<?xml version="1.0" encoding="utf-8"?>
<!-- Generator: Adobe Illustrator 23.0.1, SVG Export Plug-In . SVG Version: 6.00 Build 0)  -->
<svg version="1.1" id="Layer_1" xmlns="http://www.w3.org/2000/svg" xmlns:xlink="http://www.w3.org/1999/xlink" x="0px" y="0px"
	 viewBox="0 0 496.06 496.06" style="enable-background:new 0 0 496.06 496.06;" xml:space="preserve">
<style type="text/css">
	.st0{fill:#252F3E;}
</style>
<path class="st0" d="M70.44,326.03c3.45,6.9,8.62,12.76,14.83,17.24c6.55,4.48,13.8,7.93,21.73,9.66c8.28,2.07,16.9,3.1,25.52,3.1
	c6.55,0,12.76-0.69,19.31-1.38c6.55-1.03,13.11-2.76,19.31-5.86c5.86-2.76,11.04-6.9,14.83-11.73c4.14-5.52,6.21-12.07,5.86-18.97
	c0.34-7.59-2.76-14.83-7.93-20c-5.86-5.52-13.11-9.66-20.69-12.76c-9.31-3.79-18.97-6.55-28.97-8.97
	c-10.69-2.41-21.73-5.52-32.76-8.62c-11.38-2.76-22.42-6.21-33.45-10.35c-10.35-3.79-20.35-9.31-28.97-16.21
	c-8.62-6.55-15.52-14.83-20.69-24.49c-5.52-11.04-8.28-23.11-7.93-35.52c-0.34-14.14,3.1-28.28,10.35-40.7
	c6.55-11.38,15.52-21.38,26.21-28.97c11.04-7.93,23.45-13.45,36.56-17.24c13.45-3.79,27.25-5.52,41.04-5.52
	c15.52,0,30.7,1.72,45.87,5.17c14.14,3.1,27.25,8.97,38.97,17.24c11.38,7.93,20.69,18.28,27.25,30.35c6.9,13.8,10.35,29.32,10,44.84
	h-64.84c-0.34-7.93-2.41-15.52-5.86-22.42c-3.1-5.86-7.59-10.69-13.11-14.14c-5.86-3.45-12.07-5.86-18.62-7.24
	c-7.59-1.38-15.18-2.07-22.76-2.07c-5.52,0-11.04,0.69-16.21,1.72c-5.17,1.03-10.35,3.1-14.83,5.86s-7.93,6.55-10.69,10.69
	c-3.1,4.83-4.48,10.35-4.14,16.21c-0.34,5.17,1.03,10,3.45,14.49c3.45,4.83,7.93,8.28,13.45,10.35c8.97,3.79,18.28,6.9,27.59,9.31
	c11.73,3.1,27.25,7.24,46.22,12.07c5.52,1.03,13.45,3.1,23.8,6.21c10.69,3.1,20.69,7.93,30.01,14.14
	c10.35,6.9,19.31,15.52,25.87,25.87c7.24,11.04,11.04,24.83,11.04,42.08c0,13.45-2.76,26.56-8.28,38.97
	c-5.52,12.07-13.8,22.76-24.14,31.04c-11.73,9.31-25.18,16.21-39.66,20.35c-17.93,5.17-36.21,7.59-54.84,7.24
	c-16.55,0-32.76-2.07-48.97-6.21c-15.18-3.79-29.32-10.35-41.73-19.66c-12.07-8.97-22.07-20.35-28.97-33.8
	C2.85,332.24-0.6,315.69,0.09,298.79h64.84C64.58,308.79,66.65,317.75,70.44,326.03L70.44,326.03z M384.98,222.91
	c7.24-0.34,14.14-2.07,20.69-4.83c6.21-2.41,11.73-6.55,15.86-11.73c4.48-5.86,6.55-13.11,6.21-20.35
	c0-12.76-4.14-22.76-12.76-29.32c-8.28-6.9-18.62-10.35-29.32-10.35c-15.52,0-26.9,5.17-34.83,15.18
	c-8.28,11.04-12.07,24.49-11.38,38.28h-57.6c0.34-14.49,3.1-28.63,8.28-42.08c4.83-12.07,11.73-23.45,21.04-32.76
	c9.31-9.31,20-16.55,32.07-21.04c13.45-5.17,27.59-7.59,41.73-7.59c12.07,0,24.14,1.72,35.87,5.17
	c11.73,3.45,22.42,8.97,32.07,15.86c9.31,6.9,17.24,15.86,23.11,25.87c6.21,10.69,9.31,23.11,8.97,35.52
	c0.34,13.45-3.45,26.9-10.35,38.28c-7.24,11.38-18.28,19.31-31.38,22.76v1.03c15.18,3.1,28.97,11.38,38.63,23.8
	c9.66,12.76,14.49,28.28,14.14,43.8c0.34,14.49-2.76,28.97-8.97,41.73c-5.86,12.07-14.14,22.42-24.49,30.7
	c-10.69,8.28-22.42,14.83-35.52,18.62c-13.45,4.14-27.59,6.55-41.73,6.55c-15.52,0.34-31.04-2.41-45.87-7.24
	c-13.11-4.48-25.18-11.73-35.18-21.04c-10-9.66-17.59-21.04-22.42-34.14c-5.52-14.83-7.93-30.35-7.59-46.22h57.6
	c0.34,7.59,1.38,15.52,3.79,22.76c2.07,6.9,5.52,13.11,10,18.97c4.48,5.17,9.66,9.66,15.86,12.42c7.24,3.45,14.83,4.83,22.76,4.83
	c12.76,0.34,25.18-4.14,34.49-12.42c9.31-8.28,14.14-20,14.14-34.49c0-11.38-2.07-20-6.55-25.87c-4.14-5.86-10-10.35-16.9-13.11
	c-7.24-2.76-14.83-4.14-22.42-4.48c-8.28-0.34-15.86-0.69-23.11-0.69v-42.42C370.84,223.6,378.08,223.6,384.98,222.91L384.98,222.91
	z"/>
</svg>
