<?xml version="1.0" encoding="utf-8"?>
<!-- Generator: Adobe Illustrator 23.0.1, SVG Export Plug-In . SVG Version: 6.00 Build 0)  -->
<svg version="1.1" id="Layer_1" xmlns="http://www.w3.org/2000/svg" xmlns:xlink="http://www.w3.org/1999/xlink" x="0px" y="0px"
	 viewBox="0 0 388.2 232.99" style="enable-background:new 0 0 388.2 232.99;" xml:space="preserve">
<style type="text/css">
	.st0{fill:#34AEE2;}
	.st1{fill:#474749;}
</style>
<g>
	<path class="st0" d="M194.21,0.02c48.21-1.11,88.78,41.02,88.76,88.64c-0.02,48.34-41.84,89.12-89.43,88.77
		C146.62,177.09,105,136.82,105.32,88C105.63,40.49,146.13-1.13,194.21,0.02z M193.81,173.11c46.49,0.22,84.31-37.39,84.83-83.44
		c0.52-46.99-37.03-85.12-83.69-85.56c-47.33-0.44-85.06,37.79-85.33,83.93C109.34,135.22,147.59,173.03,193.81,173.11z"/>
	<path class="st1" d="M108.76,217.99c0-3.33,0.03-6.66-0.01-9.99c-0.02-2.08,0-4.11,2.53-4.78c2.3-0.61,3.87,0.44,5.13,3.56
		c2.12,5.24,4.16,10.5,6.24,15.76c0.37,0.93,0.69,1.87,1.08,2.79c0.18,0.43,0.47,0.81,0.71,1.21c0.4-0.43,0.98-0.78,1.18-1.29
		c2.18-5.39,4.29-10.8,6.43-16.2c0.55-1.39,1.03-2.83,1.76-4.12c0.93-1.65,2.52-2.1,4.31-1.65c1.71,0.43,2.37,1.65,2.37,3.34
		c0,7.49,0.01,14.98,0.01,22.47c0,1.41-0.22,2.84-1.96,2.91c-1.85,0.08-1.97-1.39-1.97-2.78c-0.01-4.16,0.02-8.32-0.02-12.49
		c-0.02-2.12-0.15-4.25-0.24-6.37c-0.98,1.85-2.07,3.65-2.91,5.57c-1.66,3.8-3.13,7.69-4.78,11.5c-0.82,1.89-1.01,4.55-3.83,4.62
		c-3.15,0.08-3.34-2.84-4.19-4.85c-2.19-5.21-4.19-10.49-6.31-15.73c-0.16-0.4-0.64-0.68-0.97-1.02c-0.19,0.48-0.53,0.96-0.53,1.44
		c-0.04,4.99-0.03,9.99-0.03,14.98c0,1,0.19,2.06-0.08,2.98c-0.24,0.82-1.01,1.48-1.54,2.22c-0.78-0.7-2.2-1.37-2.24-2.11
		c-0.22-3.98-0.11-7.98-0.11-11.98C108.78,217.99,108.77,217.99,108.76,217.99z"/>
	<path class="st1" d="M388.18,217.49c0,3.16,0.02,6.33-0.01,9.49c-0.02,1.94,0.51,4.22-2.09,5.02c-2.42,0.74-3.58-0.93-4.77-2.67
		c-3.47-5.09-7.02-10.12-10.54-15.17c-0.48-0.68-0.88-1.43-1.42-2.05c-0.49-0.57-1.12-1.02-1.7-1.53c-0.1,0.65-0.27,1.3-0.28,1.95
		c-0.03,4.66-0.02,9.33-0.03,13.99c0,1,0.06,2.01-0.05,3c-0.16,1.39-0.66,2.9-2.35,2.47c-0.81-0.2-1.86-1.58-1.88-2.44
		c-0.16-7.49-0.17-14.99-0.06-22.48c0.02-1.61,0.45-3.43,2.55-3.82c1.95-0.37,3.04,0.81,4.04,2.28c4.32,6.32,8.68,12.61,13.07,18.87
		c0.33,0.47,1.01,0.68,1.53,1.01c0.04-0.47,0.12-0.94,0.12-1.41c0-5-0.01-9.99-0.01-14.99c0-1.17-0.17-2.38,0.1-3.48
		c0.21-0.84,1.01-1.53,1.54-2.29c0.73,0.75,2.05,1.47,2.09,2.27c0.22,3.99,0.1,7.99,0.1,11.99
		C388.16,217.49,388.17,217.49,388.18,217.49z"/>
	<path class="st1" d="M260.89,217.71c0,3.49,0.15,6.99-0.08,10.46c-0.08,1.29-0.7,3.12-1.66,3.67c-1.84,1.05-3.36-0.16-4.51-1.87
		c-2.88-4.27-5.81-8.5-8.81-12.68c-1.52-2.12-3.23-4.09-4.85-6.13c-0.27,2.66-0.65,5.31-0.77,7.98c-0.14,2.99,0,5.98-0.06,8.97
		c-0.02,0.97-0.05,2.06-0.48,2.87c-0.29,0.55-1.29,0.93-1.99,0.97c-0.4,0.02-1.05-0.75-1.22-1.27c-0.24-0.76-0.18-1.64-0.18-2.46
		c-0.02-6.81-0.02-13.63-0.02-20.44c0-0.33,0-0.66,0-1c0-1.59,0.32-3.35,2.1-3.41c1.25-0.05,2.99,0.71,3.73,1.7
		c3.66,4.93,7.03,10.07,10.57,15.1c1.11,1.59,2.42,3.04,3.63,4.56c0.19-1.87,0.51-3.73,0.56-5.6c0.09-3.49,0.02-6.98,0.02-10.47
		c0-1-0.23-2.11,0.12-2.96c0.39-0.94,1.35-1.64,2.06-2.44c0.61,0.83,1.64,1.61,1.75,2.5c0.26,2.13,0.09,4.31,0.09,6.47
		c0,1.83,0,3.66,0,5.48C260.87,217.71,260.88,217.71,260.89,217.71z"/>
	<path class="st1" d="M0.03,217.76c0-3.65,0.07-7.31-0.02-10.96c-0.07-2.6,1.11-3.59,3.61-3.49c2.65,0.1,5.32-0.12,7.97,0.07
		c7.83,0.59,13.14,6.68,13.02,14.77c-0.12,7.85-5.5,13.45-13.38,13.84c-2.65,0.13-5.31-0.02-7.97,0.05
		c-2.35,0.06-3.28-1.04-3.24-3.33c0.07-3.65,0.02-7.31,0.02-10.96C0.04,217.76,0.03,217.76,0.03,217.76z M3.89,217.75
		c0,1.16,0,2.33,0,3.49c0,7.5,0.66,8.06,8.17,6.84c4.86-0.79,8.17-4.25,8.59-8.98c0.49-5.53-1.99-9.69-6.97-11.22
		c-1.86-0.57-3.9-0.71-5.87-0.76c-3.84-0.09-3.86-0.01-3.91,3.63C3.87,213.09,3.89,215.42,3.89,217.75z"/>
	<path class="st1" d="M168.96,232.3c-8.61,0.02-14.32-5.63-14.43-14.26c-0.11-8.94,5.6-14.94,14.26-14.98
		c8.43-0.04,14.84,6.32,14.54,14.83C183.06,225.9,178.19,232.45,168.96,232.3z M158.53,217.71c-0.01,6.53,4.12,10.95,10.31,11.04
		c5.93,0.09,10.4-4.58,10.5-10.97c0.1-6.26-4.3-10.85-10.44-10.87C162.56,206.88,158.54,211.07,158.53,217.71z"/>
	<path class="st1" d="M38.62,217.34c0-3.49,0.05-6.99-0.02-10.48c-0.05-2.54,1.09-3.6,3.62-3.55c4.49,0.08,8.98-0.01,13.48,0.05
		c0.78,0.01,1.68,0.22,2.29,0.66c0.39,0.28,0.67,1.35,0.44,1.72c-0.37,0.6-1.19,1.25-1.85,1.28c-3.49,0.13-6.99,0.05-10.48,0.09
		c-3.39,0.04-3.39,0.08-3.45,3.63c-0.01,0.67,0.07,1.34-0.01,1.99c-0.29,2.32,0.53,3.34,3.03,3.19c2.98-0.18,5.99-0.05,8.98,0
		c1.25,0.02,2.54,0.41,2.19,1.94c-0.16,0.7-1.29,1.6-2.03,1.66c-2.98,0.21-5.99,0.24-8.97,0.11c-2.29-0.1-3.51,0.52-3.21,3.04
		c0.12,0.98,0.1,2,0.01,2.99c-0.19,1.98,0.71,2.64,2.6,2.57c2.83-0.09,5.66-0.03,8.48-0.02c1,0,2.09-0.2,2.96,0.14
		c0.76,0.31,1.27,1.25,1.89,1.92c-0.7,0.58-1.38,1.2-2.12,1.72c-0.23,0.16-0.65,0.04-0.98,0.04c-4.49,0-8.99-0.07-13.48,0.03
		c-2.71,0.06-3.43-1.34-3.38-3.74c0.08-3.66,0.02-7.32,0.02-10.98C38.63,217.34,38.63,217.34,38.62,217.34z"/>
	<path class="st1" d="M306.11,232.99c-0.87-1.37-1.65-2.03-1.61-2.64c0.07-1.12,0.53-2.24,0.97-3.31c2.8-6.75,5.64-13.49,8.48-20.23
		c0.32-0.76,0.64-1.55,1.13-2.21c1.46-1.99,3.48-1.98,4.92,0.03c0.48,0.67,0.77,1.47,1.09,2.24c2.85,6.73,5.69,13.47,8.53,20.21
		c0.32,0.76,0.86,1.55,0.84,2.31c-0.03,0.86-0.37,2.15-0.95,2.42c-0.61,0.28-1.73-0.35-2.52-0.78c-0.35-0.19-0.56-0.83-0.65-1.31
		c-0.87-4.65-4.02-5.43-8.05-4.84c-0.82,0.12-1.68,0.12-2.49,0c-3.59-0.54-6.07,0.36-6.92,4.37
		C308.63,230.47,307.3,231.45,306.11,232.99z M317.2,221.06C317.2,221.06,317.2,221.07,317.2,221.06c0.99,0.01,1.99-0.01,2.98,0.01
		c1.57,0.04,2.61-0.14,1.67-2.17c-1.25-2.7-2.28-5.5-3.44-8.24c-0.17-0.4-0.53-0.73-0.8-1.09c-0.32,0.31-0.76,0.56-0.93,0.94
		c-1.24,2.88-2.42,5.78-3.65,8.67c-0.52,1.23-0.21,1.88,1.18,1.88C315.21,221.06,316.2,221.06,317.2,221.06z"/>
	<path class="st1" d="M220.58,214.68c0,2.5,0.14,5.01-0.03,7.49c-0.41,5.9-4.74,9.83-10.96,10.09c-6.76,0.29-11.63-2.95-12.25-9.02
		c-0.59-5.77-0.37-11.63-0.29-17.44c0.01-0.86,1.21-1.7,1.86-2.55c0.74,0.93,2.07,1.84,2.11,2.8c0.23,4.99,0.35,10,0.09,14.98
		c-0.34,6.55,6.58,8.9,10.8,7.15c3.16-1.31,4.63-3.65,4.65-6.97c0.03-4.66-0.03-9.32,0.02-13.99c0.02-1.57-0.47-3.84,1.93-3.85
		c2.29-0.01,2.05,2.15,2.06,3.81c0.01,2.5,0,5,0,7.49C220.57,214.68,220.58,214.68,220.58,214.68z"/>
	<path class="st1" d="M96.32,205.08c-0.35,0.96-0.59,1.74-0.91,2.5c-2.93,7.07-5.87,14.13-8.8,21.19c-0.72,1.74-1.46,3.4-3.77,3.38
		c-2.34-0.02-2.92-1.74-3.64-3.49c-2.84-6.92-5.75-13.81-8.61-20.73c-0.37-0.91-0.74-1.87-0.8-2.83c-0.03-0.52,0.5-1.44,0.92-1.54
		c0.67-0.16,1.75-0.03,2.15,0.43c0.75,0.83,1.22,1.96,1.65,3.02c2.43,6.01,4.79,12.05,7.22,18.06c0.24,0.59,0.7,1.08,1.05,1.62
		c0.44-0.56,1.02-1.06,1.28-1.69c2.31-5.7,4.56-11.42,6.85-17.13c0.49-1.23,0.95-2.52,1.7-3.59c0.38-0.54,1.44-1,2.05-0.87
		C95.29,203.55,95.75,204.46,96.32,205.08z"/>
	<path class="st1" d="M285.24,203.33c3.17,0,6.34-0.14,9.49,0.09c0.87,0.06,1.66,1.22,2.49,1.88c-0.83,0.6-1.6,1.57-2.51,1.72
		c-2.25,0.38-4.56,0.39-6.85,0.55c-0.15,2.62-0.39,5.24-0.43,7.86c-0.07,4,0.02,8-0.01,11.99c-0.01,1.15,0.01,2.38-0.38,3.42
		c-0.21,0.57-1.29,1.2-1.91,1.14c-0.58-0.06-1.46-0.96-1.51-1.56c-0.21-2.15-0.13-4.32-0.14-6.48c-0.01-4.83-0.07-9.66,0.01-14.49
		c0.03-1.71-0.55-2.43-2.29-2.34c-1.83,0.09-3.68,0.16-5.49-0.07c-0.77-0.1-1.44-0.99-2.15-1.52c0.73-0.73,1.42-2.02,2.2-2.08
		C278.9,203.19,282.07,203.33,285.24,203.33z"/>
	<path class="st1" d="M347.57,217.51c0,3.8,0.01,7.61,0,11.41c-0.01,1.54-0.07,3.22-2.19,3.12c-1.78-0.08-1.84-1.57-1.85-2.94
		c-0.01-7.44-0.03-14.89-0.01-22.33c0-1.46-0.15-3.44,1.85-3.43c2.24,0.01,2.15,2.07,2.15,3.75c0,3.47,0,6.95,0,10.42
		C347.54,217.51,347.55,217.51,347.57,217.51z"/>
	<path class="st0" d="M164.11,118.17c7,0,14-0.17,20.98,0.08c3.22,0.12,5.13-0.82,6.74-3.7c6.5-11.59,13.24-23.04,19.89-34.54
		c2.66-4.6,5.26-9.23,7.97-13.8c2.26-3.82,3.59-3.81,5.82,0.03c6.26,10.77,12.46,21.57,18.69,32.36
		c3.65,6.33,7.38,12.61,10.95,18.99c2.19,3.92,1.5,5.11-2.88,5.13c-12.83,0.05-25.65,0.02-38.48,0.01c-0.82,0-1.8,0.15-2.44-0.23
		c-0.75-0.44-1.68-1.39-1.66-2.09c0.02-0.7,1-1.71,1.77-1.98c1.05-0.37,2.29-0.19,3.46-0.19c9.83-0.01,19.66,0,29.48-0.01
		c1,0,2-0.02,3,0c2.05,0.05,2.82-0.6,1.64-2.63c-2.84-4.88-5.61-9.8-8.43-14.69c-5.05-8.78-10.11-17.56-15.18-26.34
		c-0.25-0.43-0.54-0.84-0.81-1.26c-2.09-3.22-2.26-3.25-4.1-0.11c-3.02,5.16-5.95,10.38-8.94,15.56
		c-5.9,10.21-11.91,20.36-17.67,30.64c-1.26,2.25-2.72,2.9-5.13,2.89c-17.49-0.08-34.98-0.04-52.47-0.04c-0.5,0-1,0.04-1.5-0.01
		c-2.9-0.29-3.54-1.31-2.1-3.89c2.58-4.64,5.34-9.19,8-13.79c10.7-18.56,21.39-37.13,32.1-55.69c1.83-3.17,3.66-6.33,5.63-9.41
		c1.91-2.99,3.08-2.96,4.92,0.14c1.52,2.57,2.86,5.25,4.25,7.89c3.96,7.49,7.92,14.98,11.86,22.48c0.54,1.03,1.26,2.06,1.43,3.16
		c0.12,0.76-0.34,2.06-0.93,2.36c-0.61,0.31-1.94-0.03-2.5-0.56c-0.81-0.76-1.24-1.94-1.78-2.96c-4.09-7.8-8.17-15.6-12.26-23.4
		c-0.46-0.88-0.9-1.78-1.44-2.62c-0.83-1.28-1.64-1.52-2.53,0.04c-1.9,3.32-3.9,6.58-5.81,9.88
		c-10.99,18.97-21.97,37.94-32.91,56.95c-0.88,1.53-1.35,3.29-2.01,4.95c1.63,0.16,3.26,0.45,4.89,0.47
		c6.83,0.05,13.66,0.02,20.49,0.02C164.11,118.21,164.11,118.19,164.11,118.17z"/>
</g>
</svg>
