<?xml version="1.0" encoding="utf-8"?>
<!-- Generator: Adobe Illustrator 23.0.1, SVG Export Plug-In . SVG Version: 6.00 Build 0)  -->
<svg version="1.1" id="Layer_1" xmlns="http://www.w3.org/2000/svg" xmlns:xlink="http://www.w3.org/1999/xlink" x="0px" y="0px"
	 viewBox="0 0 496.06 496.06" style="enable-background:new 0 0 496.06 496.06;" xml:space="preserve">
<g>
	<g>
		<g>
			<g>
				<path d="M365.91,234.41c3.62-0.43,7.09-0.45,10.28,0c1.85-4.23,2.16-11.53,0.5-19.47c-2.47-11.81-5.8-18.95-12.7-17.84
					c-6.9,1.11-7.15,9.66-4.69,21.47C360.69,225.22,363.16,230.9,365.91,234.41z"/>
				<path d="M306.69,243.76c4.94,2.17,7.97,3.6,9.16,2.35c0.76-0.78,0.53-2.28-0.64-4.2c-2.44-3.98-7.45-8.01-12.76-10.27
					c-10.87-4.68-23.84-3.12-33.84,4.06c-3.3,2.42-6.43,5.77-5.98,7.81c0.14,0.66,0.64,1.15,1.8,1.32c2.72,0.31,12.24-4.5,23.2-5.17
					C295.35,239.17,301.76,241.59,306.69,243.76z"/>
				<path d="M296.76,249.42c-6.43,1.02-9.97,3.13-12.25,5.11c-1.94,1.7-3.14,3.57-3.13,4.89c0.01,0.63,0.28,0.99,0.49,1.17
					c0.29,0.26,0.64,0.4,1.06,0.4c1.45,0,4.7-1.3,4.7-1.3c8.95-3.2,14.85-2.82,20.7-2.15c3.23,0.36,4.76,0.56,5.47-0.54
					c0.21-0.32,0.46-1.01-0.18-2.06C312.11,252.5,305.62,248.37,296.76,249.42z"/>
				<path d="M345.92,270.22c4.36,2.14,9.17,1.3,10.74-1.88c1.56-3.18-0.71-7.5-5.07-9.65c-4.37-2.14-9.17-1.3-10.74,1.88
					C339.28,263.75,341.55,268.07,345.92,270.22z"/>
				<path d="M373.98,245.7c-3.55-0.06-6.49,3.83-6.57,8.7c-0.08,4.86,2.73,8.85,6.27,8.91c3.55,0.06,6.49-3.83,6.57-8.7
					C380.33,249.75,377.53,245.76,373.98,245.7z"/>
				<path d="M135.8,333.38c-0.88-1.11-2.33-0.77-3.73-0.44c-0.98,0.23-2.09,0.49-3.31,0.47c-2.61-0.05-4.82-1.16-6.06-3.07
					c-1.62-2.48-1.52-6.18,0.26-10.41c0.24-0.57,0.52-1.2,0.83-1.9c2.84-6.38,7.6-17.06,2.26-27.24
					c-4.02-7.66-10.58-12.43-18.47-13.43c-7.57-0.96-15.37,1.85-20.34,7.33c-7.84,8.66-9.07,20.43-7.55,24.59
					c0.56,1.52,1.43,1.95,2.06,2.03c1.33,0.18,3.31-0.79,4.54-4.12c0.09-0.24,0.21-0.61,0.35-1.08c0.55-1.76,1.58-5.03,3.26-7.66
					c2.03-3.17,5.18-5.35,8.89-6.14c3.77-0.81,7.63-0.09,10.86,2.03c5.49,3.6,7.61,10.33,5.27,16.76c-1.21,3.32-3.18,9.68-2.75,14.9
					c0.88,10.57,7.38,14.81,13.22,15.26c5.68,0.21,9.65-2.97,10.65-5.3C136.62,334.58,136.12,333.74,135.8,333.38z"/>
				<path d="M463.46,314.06c-0.22-0.76-1.62-5.91-3.56-12.11c-1.93-6.2-3.94-10.57-3.94-10.57c7.76-11.62,7.9-22,6.87-27.89
					c-1.1-7.29-4.14-13.51-10.26-19.93s-18.63-13-36.22-17.94c-2.01-0.56-8.65-2.38-9.23-2.56c-0.04-0.38-0.48-21.76-0.89-30.93
					c-0.29-6.63-0.86-16.99-4.07-27.19c-3.83-13.81-10.5-25.89-18.83-33.62c22.98-23.82,37.33-50.07,37.3-72.58
					c-0.07-43.3-53.24-56.4-118.77-29.26c-0.07,0.03-13.79,5.84-13.88,5.89c-0.06-0.06-25.1-24.63-25.48-24.96
					C187.78-54.76-45.81,204.89,28.87,267.95l16.32,13.83c-4.23,10.97-5.9,23.53-4.54,37.04c1.74,17.35,10.7,33.99,25.21,46.85
					c13.77,12.2,31.88,19.93,49.46,19.91c29.06,66.97,95.47,108.06,173.33,110.37c83.52,2.48,153.63-36.71,183.01-107.11
					c1.92-4.94,10.08-27.2,10.08-46.85C481.73,322.24,470.57,314.06,463.46,314.06z M121.74,366.77c-2.54,0.43-5.13,0.6-7.74,0.54
					c-25.23-0.68-52.47-23.39-55.18-50.32c-2.99-29.77,12.22-52.68,39.15-58.11c3.22-0.65,7.11-1.02,11.31-0.81
					c15.09,0.83,37.32,12.41,42.4,45.28C156.18,332.47,149.04,362.11,121.74,366.77z M93.57,241.07
					c-16.77,3.26-31.54,12.76-40.58,25.89c-5.4-4.5-15.46-13.22-17.24-16.62c-14.43-27.39,15.74-80.65,36.82-110.72
					C124.66,65.29,206.24,9.03,244,19.23c6.14,1.74,26.47,25.31,26.47,25.31s-37.75,20.94-72.75,50.14
					C150.55,131,114.92,183.79,93.57,241.07z M358.35,355.64c0.55-0.23,0.93-0.86,0.86-1.48c-0.08-0.76-0.76-1.32-1.52-1.24
					c0,0-39.52,5.85-76.85-7.82c4.07-13.22,14.88-8.44,31.22-7.12c29.46,1.76,55.86-2.55,75.37-8.15
					c16.91-4.85,39.11-14.42,56.36-28.03c5.82,12.78,7.87,26.84,7.87,26.84s4.5-0.81,8.27,1.51c3.56,2.19,6.16,6.74,4.38,18.5
					c-3.63,21.97-12.97,39.81-28.66,56.21c-9.55,10.29-21.15,19.23-34.43,25.73c-7.05,3.7-14.56,6.91-22.48,9.5
					c-59.17,19.33-119.75-1.92-139.27-47.55c-1.56-3.43-2.88-7.02-3.92-10.78c-8.32-30.07-1.26-66.14,20.83-88.85v-0.01
					c1.36-1.45,2.75-3.15,2.75-5.29c0-1.79-1.14-3.68-2.13-5.02c-7.72-11.21-34.48-30.3-29.11-67.25
					c3.86-26.55,27.07-45.24,48.72-44.13c1.83,0.09,3.66,0.21,5.48,0.32c9.38,0.55,17.56,1.76,25.29,2.08
					c12.92,0.56,24.55-1.32,38.31-12.79c4.64-3.87,8.37-7.22,14.67-8.29c0.66-0.11,2.31-0.7,5.6-0.55c3.36,0.18,6.56,1.1,9.43,3.02
					c11.03,7.34,12.6,25.13,13.17,38.14c0.32,7.43,1.22,25.39,1.53,30.55c0.7,11.79,3.8,13.46,10.07,15.52
					c3.53,1.16,6.8,2.03,11.63,3.38c14.61,4.1,23.27,8.26,28.73,13.61c3.26,3.34,4.77,6.89,5.24,10.27
					c1.72,12.57-9.75,28.09-40.14,42.19c-33.21,15.42-73.51,19.32-101.35,16.22c-2.14-0.24-9.73-1.1-9.75-1.1
					c-22.27-3-34.97,25.78-21.61,45.5c8.61,12.71,32.08,20.98,55.55,20.98c53.82,0.01,95.19-22.98,110.58-42.83
					c0.46-0.59,0.51-0.66,1.23-1.75c0.76-1.14,0.13-1.77-0.81-1.12c-12.57,8.6-68.42,42.76-128.15,32.48c0,0-7.26-1.19-13.88-3.77
					c-5.27-2.05-16.28-7.12-17.62-18.42C328,369.73,358.35,355.64,358.35,355.64z M281.99,346.62c0,0,0,0.01,0.01,0.01
					c0,0.01,0.01,0.02,0.01,0.02C282,346.65,282,346.63,281.99,346.62z M189.77,139.31c18.52-21.4,41.31-40,61.73-50.45
					c0.71-0.36,1.46,0.41,1.07,1.1c-1.62,2.94-4.74,9.22-5.73,13.99c-0.15,0.74,0.66,1.3,1.28,0.88
					c12.7-8.66,34.8-17.94,54.19-19.13c0.83-0.05,1.24,1.02,0.57,1.52c-2.95,2.26-6.17,5.39-8.53,8.56
					c-0.4,0.54-0.02,1.31,0.65,1.32c13.61,0.1,32.8,4.86,45.3,11.87c0.85,0.48,0.24,2.11-0.7,1.9c-18.92-4.34-49.9-7.63-82.07,0.22
					c-28.72,7.01-50.65,17.82-66.64,29.46C190.09,141.13,189.12,140.07,189.77,139.31z"/>
			</g>
		</g>
	</g>
</g>
</svg>
