<?xml version="1.0" encoding="utf-8"?>
<!-- Generator: Adobe Illustrator 23.0.1, SVG Export Plug-In . SVG Version: 6.00 Build 0)  -->
<svg version="1.1" id="Layer_1" xmlns="http://www.w3.org/2000/svg" xmlns:xlink="http://www.w3.org/1999/xlink" x="0px" y="0px"
	 viewBox="0 0 496.06 496.06" style="enable-background:new 0 0 496.06 496.06;" xml:space="preserve">
<style type="text/css">
	.st0{fill:#DA1F26;}
</style>
<g>
	<g>
		<path class="st0" d="M496.06,239.86v16.33c-0.16,0.88-0.35,1.76-0.46,2.64c-0.85,7.11-1.39,14.26-2.56,21.3
			c-3.81,22.91-12.06,44.22-24.31,63.91c-18.6,29.9-43.75,52.71-75.35,68.28c-18.37,9.05-37.76,14.81-58.12,17.15
			c-4.49,0.52-8.98,0.98-13.47,1.48H147.53c-0.87-0.16-1.75-0.43-2.63-0.48c-17.58-1.11-34.48-5.11-50.59-12.17
			c-35.08-15.35-61.24-40.23-78.37-74.48c-7.6-15.2-12.43-31.28-14.47-48.18c-0.5-4.08-0.97-8.15-1.46-12.23c0-5.28,0-10.57,0-15.85
			c0.17-0.87,0.43-1.75,0.48-2.63c0.9-15.23,4.04-30.01,9.53-44.22c14.8-38.23,40.6-66.59,77.26-84.94
			c19.03-9.52,39.3-14.53,60.5-15.64c10.38-0.54,20.76,0.04,31.08,1.42c0.93,0.13,2.29-0.29,2.93-0.95
			c14.84-15.16,31.74-27.47,50.79-36.8c18.48-9.05,37.94-14.88,58.4-17.22c4.82-0.55,9.65-1,14.47-1.5h14.86
			c0.96,0.15,1.95,0.32,2.92,0.44c7.37,0.85,14.76,1.39,22.05,2.61c22.76,3.82,43.93,11.98,63.52,24.12
			c30.05,18.6,52.96,43.78,68.59,75.47c9.07,18.39,14.83,37.78,17.17,58.17C495.12,230.56,495.57,235.22,496.06,239.86
			 M218.7,134.19c0.3,0.4,0.37,0.58,0.5,0.64c10.24,5.02,19.91,10.94,29.15,17.63c0.58,0.42,2.02,0.24,2.72-0.2
			c25.26-16.01,52.66-21.53,82.07-16.31c28.83,5.11,52.29,19.51,70.21,42.52c20.29,26.04,28.03,55.48,22.43,88.23
			c-3.76,21.95-12.56,41.65-27.5,58.15c-27.27,30.08-61.43,42.52-101.63,37.25c-24.75-3.24-46.12-13.92-63.8-31.79
			c-22.7-22.92-45.54-45.7-68.31-68.56c-3.03-3.04-6.41-5.5-10.78-6.02c-7.63-0.93-14.55,2.87-17.85,9.73
			c-2.94,6.12-2.55,13.02,3.82,19.29c25.37,24.91,50.52,50.04,75.87,74.99c4.33,4.26,9,8.28,13.92,11.85
			c18.52,13.44,39.4,20.88,61.99,23.87c17.74,2.35,35.35,1.84,52.82-2.09c33.32-7.49,60.93-24.49,82.67-50.74
			c17.95-21.68,28.81-46.61,32.59-74.59c2.18-16.08,1.75-32.08-1.35-47.97c-5.04-25.85-15.98-48.97-33.49-68.65
			c-33.43-37.53-75.48-54.29-125.53-50.55c-19.25,1.44-37.46,7.1-54.6,16.06C235.42,121.74,226.77,127.43,218.7,134.19
			 M206.45,396.21c-0.9-0.84-1.48-1.38-2.06-1.92c-10.38-9.79-20.81-19.52-31.06-29.45c-1.99-1.92-3.81-2.85-6.62-2.78
			c-10.38,0.25-20.78,0.3-31.01-2.02c-50.87-11.51-80.41-66.81-61.66-115.49c14.78-38.37,55.73-61.74,96.09-54.54
			c18.09,3.23,33.98,10.89,47.01,24.34c15.9,16.41,32.27,32.36,48.34,48.6c3.66,3.7,7.86,5.39,12.92,4.66
			c6.55-0.93,11.76-4.06,14.13-10.48c2.32-6.32,1.19-12.31-3.59-17.15c-16.87-17.09-33.33-34.61-50.88-50.96
			c-34.04-31.74-74.17-41.19-118.56-27.69c-59.71,18.13-94.64,79.79-81,140.62c12.44,55.43,60.91,94.33,117.63,94.38
			c15.84,0.02,31.68,0.01,47.52,0C204.46,396.35,205.24,396.28,206.45,396.21"/>
	</g>
</g>
</svg>
