<?xml version="1.0" encoding="utf-8"?>
<!-- Generator: Adobe Illustrator 23.0.1, SVG Export Plug-In . SVG Version: 6.00 Build 0)  -->
<svg version="1.1" id="Layer_1" xmlns="http://www.w3.org/2000/svg" xmlns:xlink="http://www.w3.org/1999/xlink" x="0px" y="0px"
	 viewBox="0 0 496.06 496.06" style="enable-background:new 0 0 496.06 496.06;" xml:space="preserve">
<style type="text/css">
	.st0{fill:#FFFFFF;}
	.st1{fill:#326691;}
</style>
<g>
	<g>
		<g>
			<path class="st0" d="M294.61,8.29c-20.83-2.81-42.31-4.79-63.3-0.5c-12.23,1.98-23.47,7.44-34.71,12.56
				C162.06,9.45,124.7,2.34,88.67,9.78c-25.45,4.96-49.25,20-62.97,42.31C8.84,79.36,6.03,112.92,8.51,144.32
				c4.46,35.2,12.89,69.91,22.64,104.13c8.93,29.58,19.01,59.17,35.2,85.61c9.26,14.71,21.65,29.42,39.17,34.21
				c13.72,3.8,28.59-0.66,39.34-9.59c5.62,5.29,12.07,9.75,19.34,12.4c20.83,7.11,44.29,7.11,64.79-1.16
				c1.16,28.43,0.17,57.85,10.58,84.79c4.13,12.89,11.57,25.45,23.14,32.89c12.73,8.43,28.76,9.92,43.3,7.27
				c13.39-2.48,26.94-5.95,38.68-13.22c12.23-7.44,21.49-19.01,27.44-32.06c13.22-29.09,13.88-61.65,15.7-93.05
				c30.41,1.82,62.64-5.12,85.94-25.78c9.09-7.77,16.86-19.67,13.39-32.06c-2.81-11.57-15.04-18.68-26.61-18.02
				c-11.73,0.83-23.14,4.46-34.87,4.46c26.28-45.62,46.77-95.04,56.19-146.93c3.64-21.65,5.95-44.46,0-65.78
				c-3.31-12.56-12.4-22.15-21.32-31.07c-20.16-20-46.44-32.89-74.21-38.01C356.09-2.78,324.52,0.53,294.61,8.29"/>
			<path class="st0" d="M294.44,22.34c32.56-10.08,68.09-12.73,101.15-3.8c26.44,7.11,50.58,22.97,67.1,44.96
				c6.78,9.09,8.26,20.83,8.76,31.73c0.66,19.67-2.81,39.01-7.11,58.01c-12.07,50.08-33.72,97.51-61.32,140.98
				c15.37,6.61,32.73,3.31,48.59,0.5c6.61-1.32,15.21-2.98,20.16,2.98c4.96,6.28,0.17,14.38-4.79,19.01
				c-23.14,22.64-58.18,28.59-89.08,23.3c-3.14,27.6-6.45,55.37-10.74,82.97c-2.48,15.37-7.6,31.4-19.5,41.98
				c-11.24,9.92-26.28,14.21-40.66,17.02c-14.71,2.64-31.4,0.5-42.97-9.75c-12.4-10.91-19.34-27.11-20.83-43.3
				c-3.14-27.77-3.31-55.7-3.14-83.47c-13.39,11.4-31.07,17.35-48.59,16.03c-12.4-0.99-26.11-2.98-35.37-12.07
				c-5.12-4.63-4.79-13.55,0.83-17.68c9.92-7.44,23.14-6.94,34.38-11.24c8.26-2.48,12.73-10.58,17.85-16.86
				c-9.75-0.66-19.17-3.14-27.93-7.44c-13.39,14.21-26.28,28.92-38.84,43.96c-7.27,8.59-17.85,16.03-29.75,14.54
				c-13.22-1.65-23.14-12.07-30.58-22.31c-14.71-20.99-23.63-45.29-31.9-69.42c-12.56-38.68-22.31-78.34-27.93-118.5
				c-2.98-30.41-0.5-63.47,17.19-89.42C53.47,34.24,77.93,23,102.23,20.52c32.73-3.47,65.78,3.31,96.52,14.38
				c25.62-17.19,58.18-19.5,87.76-13.39C289.15,21.68,291.8,23,294.44,22.34 M318.57,30.77c6.45,4.46,13.55,7.44,19.83,11.9
				c26.28,17.52,46.61,43.14,59.5,71.73c3.47,8.26,7.27,17.02,6.45,26.28c0.17,18.84-6.28,37.19-4.3,56.19
				c1.82,20,6.12,40.49,0.99,60.49c-1.49,7.11-5.12,13.39-7.6,20c0.17,0.99,0.5,2.81,0.83,3.8c2.48-3.14,4.63-6.45,6.61-9.75
				c20.33-34.54,36.53-71.57,47.27-110.24c5.62-20.83,9.92-42.31,9.75-64.13c-0.33-9.09-1.16-19.01-7.11-26.44
				c-12.4-15.54-28.92-27.77-47.43-34.87C376.26,25.65,346.34,24.82,318.57,30.77 M241.06,33.42
				c-20.83,2.64-40.33,13.88-52.72,30.74c-17.02,22.64-24.63,51.24-26.78,79c17.19-7.93,36.53-15.54,55.7-10.74
				c12.4,3.14,21.82,13.88,24.63,26.28c5.62,24.63,8.59,50.58,3.14,75.53c-4.3,20.16-16.53,37.68-20.66,57.85
				c5.12,0.5,10.58,0.83,15.21,3.31c9.59,5.29,15.04,16.36,14.54,27.11c-0.66,27.44-0.66,55.04,0.83,82.47
				c0.83,11.4,1.16,22.97,4.13,34.05c4.13,13.22,13.22,26.78,27.77,29.25c15.37,2.31,31.07-1.98,44.63-8.93
				c13.22-6.94,19.17-21.98,21.49-36.03c4.79-29.25,8.1-58.84,11.57-88.42c1.49-10.58-0.66-22.15,5.29-31.57
				c3.31-6.12,9.92-8.93,15.87-11.9c-4.96-6.28-10.25-12.56-14.05-19.67c-14.54-30.25-34.38-58.67-40.49-92.39
				c-2.64-14.21-1.16-30.91,10.58-40.82c12.89-11.07,30.91-10.41,46.94-9.92c-9.59-27.11-27.44-51.24-49.91-68.92
				C311.47,38.54,275.44,29.12,241.06,33.42 M94.95,35.73C75.95,39.37,57.77,50.27,48.01,67.3c-13.06,22.64-14.38,49.91-12.07,75.37
				c4.63,33.39,12.56,66.28,21.98,98.51c8.43,27.27,17.52,54.87,32.73,79.17c5.62,8.26,12.07,17.52,22.15,20.49
				c8.59,1.82,15.54-5.29,20.49-11.24c11.57-14.21,24.13-27.44,35.87-41.32c-17.35-15.87-26.78-40-23.63-63.47
				c2.48-18.02,2.98-36.2,1.82-54.21c-1.82-25.78,1.98-51.9,9.92-76.36c5.95-18.35,15.87-35.04,28.92-49.25
				C156.77,36.06,125.53,29.78,94.95,35.73 M351.46,148.62c-8.93,6.94-8.43,19.5-6.61,29.58c6.45,31.4,24.63,58.18,38.84,86.28
				c10.58-21.16,4.13-45.29,2.48-67.6c-1.82-18.02,3.8-35.7,4.3-53.55C377.41,142.5,362.7,140.68,351.46,148.62 M161.06,160.18
				c0.33,15.04,1.32,30.08,0.33,45.12c-0.5,13.39-4.3,26.61-1.32,40c4.3,23.47,25.29,44.29,50.08,44.13
				c3.64-11.9,7.77-23.47,13.06-34.87c14.88-29.25,12.4-63.47,4.63-94.37c-2.15-8.76-10.25-14.88-19.17-15.37
				C191.64,143.99,175.28,151.09,161.06,160.18 M383.53,308.44c-4.63,4.3-4.3,11.07-4.3,16.86c10.08,3.47,21.16,3.14,31.57,1.82
				c15.87-1.65,32.06-7.11,43.8-18.35c-19.17,2.31-40,6.94-58.01-2.48C392.45,303.32,387.16,305.79,383.53,308.44 M202.55,330.59
				c-10.58,6.28-23.63,5.95-34.71,11.07c22.48,11.4,53.38,7.44,68.92-13.55c7.93-7.44,0.33-22.97-10.25-21.49
				C217.09,312.74,212.96,324.97,202.55,330.59"/>
			<path class="st0" d="M355.6,152.91c6.45-4.63,15.21-4.96,22.31-1.65c-0.33,8.93-10.91,15.37-18.68,10.74
				C355.93,160.52,351.96,155.89,355.6,152.91"/>
			<path class="st0" d="M200.73,153.41c6.61-1.82,14.54-0.99,20.16,3.47c3.8,3.14,0.33,8.26-2.98,10.08
				c-7.6,5.62-19.5,0.17-20.99-8.76C196.27,155.56,198.58,154.23,200.73,153.41"/>
			<path class="st1" d="M318.57,30.77c27.93-5.95,57.68-5.29,84.62,4.96c18.68,7.11,35.04,19.34,47.43,34.87
				c5.95,7.44,6.61,17.35,7.11,26.44c0.33,21.65-4.13,43.14-9.75,64.13c-10.74,38.68-26.94,75.7-47.27,110.24
				c-1.98,3.47-4.13,6.61-6.61,9.75c-0.17-0.99-0.5-2.81-0.83-3.8c2.48-6.61,6.28-12.89,7.6-20c5.12-19.83,0.83-40.33-0.99-60.49
				c-1.98-18.84,4.46-37.35,4.3-56.19c0.66-9.26-2.98-18.02-6.45-26.28c-12.89-28.76-33.22-54.21-59.5-71.73
				C331.96,38.21,324.85,35.23,318.57,30.77"/>
			<path class="st1" d="M241.06,33.42c34.21-4.3,70.24,5.12,97.51,26.44c22.48,17.85,40.33,41.82,49.91,68.92
				c-15.87-0.5-34.05-1.16-46.94,9.92c-11.73,9.92-13.22,26.61-10.58,40.82c6.12,33.55,25.95,62.14,40.49,92.39
				c3.8,7.11,9.09,13.22,14.05,19.67c-5.95,2.98-12.56,5.78-15.87,11.9c-5.95,9.42-3.8,20.99-5.29,31.57
				c-3.31,29.58-6.78,59-11.57,88.42c-2.31,14.05-8.26,28.92-21.49,36.03c-13.55,6.94-29.42,11.24-44.63,8.93
				c-14.54-2.48-23.63-16.03-27.77-29.25c-2.98-11.07-3.31-22.64-4.13-34.05c-1.49-27.44-1.49-55.04-0.83-82.47
				c0.66-10.74-4.96-21.98-14.54-27.11c-4.63-2.64-10.08-2.98-15.21-3.31c4.13-20.16,16.36-37.68,20.66-57.85
				c5.45-24.96,2.48-50.91-3.14-75.53c-2.64-12.56-12.07-23.3-24.46-26.44c-19.17-4.79-38.51,2.64-55.7,10.74
				c2.15-27.93,9.59-56.36,26.78-79C200.9,47.3,220.23,36.06,241.06,33.42"/>
			<path class="st1" d="M94.95,35.73c30.58-5.95,61.81,0.33,91.23,9.26c-13.06,14.21-22.97,30.91-28.92,49.25
				c-7.93,24.46-11.57,50.41-9.75,76.19c1.16,18.18,0.66,36.36-1.82,54.21c-3.14,23.47,6.28,47.6,23.63,63.47
				c-11.9,13.88-24.46,27.11-35.87,41.32c-5.12,5.95-11.9,13.06-20.49,11.24c-10.08-2.98-16.53-12.23-22.15-20.49
				c-15.21-24.3-24.46-51.9-32.73-79.17c-9.42-32.23-17.35-65.12-21.98-98.51c-2.48-25.29-1.16-52.56,11.9-75.2
				C57.77,50.27,75.95,39.37,94.95,35.73"/>
			<path class="st1" d="M351.46,148.62c11.24-7.93,25.95-6.12,38.84-5.45c-0.5,18.02-6.12,35.53-4.3,53.55
				c1.65,22.31,8.1,46.44-2.48,67.6c-14.21-28.1-32.39-55.04-38.84-86.28C343.04,168.28,342.7,155.56,351.46,148.62 M355.6,152.91
				c-3.8,3.14,0.33,7.6,3.47,9.09c7.77,4.63,18.51-1.82,18.68-10.74C370.8,147.95,362.04,148.28,355.6,152.91"/>
			<path class="st1" d="M161.06,160.18c14.05-9.09,30.58-16.2,47.6-15.21c8.76,0.33,17.02,6.61,19.17,15.37
				c7.77,30.91,10.08,65.12-4.63,94.37c-5.12,11.24-9.42,22.97-13.06,34.87c-24.63,0.17-45.62-20.66-50.08-44.13
				c-2.98-13.22,0.99-26.61,1.32-40C162.55,190.43,161.39,175.23,161.06,160.18 M200.73,153.41c-2.15,0.83-4.46,2.15-3.97,4.79
				c1.49,8.93,13.55,14.38,20.99,8.76c3.31-1.82,6.78-7.11,2.98-10.08C215.28,152.42,207.34,151.59,200.73,153.41"/>
			<path class="st1" d="M383.53,308.44c3.64-2.64,8.93-5.12,13.06-2.31c18.02,9.42,38.84,4.79,58.01,2.48
				c-11.73,11.4-27.77,16.69-43.8,18.35c-10.58,1.32-21.49,1.65-31.57-1.82C379.23,319.51,378.9,312.74,383.53,308.44"/>
			<path class="st1" d="M202.55,330.59c10.25-5.62,14.38-17.85,24.13-24.13c10.58-1.49,18.18,14.05,10.25,21.49
				c-15.54,20.99-46.44,24.96-68.92,13.55C179.08,336.37,191.97,336.87,202.55,330.59"/>
			<path d="M294.61,8.29c29.92-7.77,61.48-11.24,92.06-5.29c27.77,4.96,54.21,18.02,74.21,38.01c8.93,8.93,17.85,18.68,21.32,31.07
				c5.95,21.49,3.64,44.13,0,65.78c-9.42,51.9-30.08,101.32-56.19,146.93c11.9,0,23.14-3.8,34.87-4.46
				c11.57-0.83,23.8,6.28,26.61,18.02c3.47,12.4-4.3,24.46-13.39,32.06c-23.3,20.66-55.53,27.6-85.94,25.78
				c-1.82,31.4-2.48,63.96-15.7,93.05c-5.95,13.06-15.21,24.63-27.44,32.06c-11.73,7.27-25.29,10.74-38.68,13.22
				c-14.71,2.64-30.74,1.16-43.3-7.27c-11.73-7.44-19.01-20-23.14-32.89c-10.41-26.94-9.42-56.36-10.58-84.79
				c-20.49,8.26-43.96,8.26-64.79,1.16c-7.27-2.48-13.88-6.94-19.34-12.4c-10.74,8.93-25.62,13.55-39.34,9.59
				c-17.52-4.79-29.92-19.34-39.17-34.21c-16.03-26.44-26.28-56.03-35.2-85.61c-9.92-34.05-18.18-68.76-22.64-104.13
				c-2.81-31.07,0-64.62,16.86-91.89C39.25,29.61,63.05,14.74,88.67,9.78c36.2-7.27,73.38-0.17,108.09,10.58
				C208,15.4,219.24,9.78,231.47,7.8C252.13,3.5,273.62,5.48,294.61,8.29 M294.44,22.34c-2.64,0.5-5.29-0.66-7.93-0.99
				c-29.58-5.95-62.14-3.64-87.76,13.39c-30.74-10.91-63.8-17.68-96.52-14.21C77.93,23,53.47,34.41,39.42,55.07
				c-17.68,25.95-20.16,59-17.35,89.25c5.62,40.33,15.54,79.83,27.93,118.5c8.26,24.13,17.35,48.43,31.9,69.42
				c7.44,10.41,17.35,20.83,30.58,22.31c11.9,1.49,22.48-5.95,29.75-14.54c12.56-15.04,25.45-29.75,38.84-43.96
				c8.76,4.3,18.18,6.78,27.93,7.44c-5.29,6.28-9.59,14.38-17.85,16.86c-11.24,4.3-24.46,3.8-34.38,11.24
				c-5.78,4.13-5.95,13.06-0.83,17.68c9.26,9.09,22.97,10.91,35.37,12.07c17.52,1.32,35.2-4.63,48.59-16.03
				c-0.17,27.93,0,55.86,3.14,83.47c1.49,16.2,8.59,32.39,20.83,43.3c11.57,10.08,28.26,12.23,42.97,9.75
				c14.54-2.81,29.42-7.11,40.66-17.02c12.07-10.58,17.19-26.61,19.5-41.98c4.3-27.6,7.6-55.2,10.74-82.97
				c30.91,5.29,65.95-0.66,89.08-23.3c4.96-4.63,9.59-12.73,4.79-19.01c-4.96-5.78-13.55-4.3-20.16-2.98
				c-15.7,2.98-33.06,6.28-48.43-0.33c27.6-43.47,49.25-90.9,61.32-140.98c4.46-19.01,7.77-38.51,7.11-58.01
				c-0.5-10.91-1.98-22.64-8.76-31.73c-16.53-21.82-40.66-37.85-67.1-44.96C362.54,9.62,327,12.26,294.44,22.34"/>
		</g>
	</g>
</g>
</svg>
