<?xml version="1.0" encoding="utf-8"?>
<!-- Generator: Adobe Illustrator 23.0.1, SVG Export Plug-In . SVG Version: 6.00 Build 0)  -->
<svg version="1.1" id="Layer_1" xmlns="http://www.w3.org/2000/svg" xmlns:xlink="http://www.w3.org/1999/xlink" x="0px" y="0px"
	 viewBox="0 0 864 864" style="enable-background:new 0 0 864 864;" xml:space="preserve">
<style type="text/css">
	.st0{fill:#007BB6;}
	.st1{fill:#FFFFFF;}
</style>
<g>
	<g>
		<path class="st0" d="M800.1-2.5H63.7C28.6-2.5,0,25.4,0,59.8v739.4c0,34.4,28.6,62.3,63.7,62.3h736.4c35.2,0,63.9-27.9,63.9-62.3
			V59.8C864,25.4,835.3-2.5,800.1-2.5z"/>
		<path class="st1" d="M128,321.4h128.3v412.3H128V321.4z M192.2,116.4c41,0,74.3,33.3,74.3,74.3c0,41-33.3,74.3-74.3,74.3
			c-41.2,0-74.3-33.3-74.3-74.3C117.8,149.7,151,116.4,192.2,116.4"/>
		<path class="st1" d="M336.7,321.4h122.8v56.4h1.8c17.1-32.4,58.9-66.6,121.2-66.6c129.8,0,153.7,85.4,153.7,196.4v226.1H608.1
			V533.2c0-47.8-0.8-109.3-66.6-109.3c-66.7,0-76.9,52.1-76.9,105.9v203.9h-128V321.4z"/>
	</g>
</g>
</svg>
