<?xml version="1.0" encoding="utf-8"?>
<!-- Generator: Adobe Illustrator 23.0.1, SVG Export Plug-In . SVG Version: 6.00 Build 0)  -->
<svg version="1.1" id="Layer_1" xmlns="http://www.w3.org/2000/svg" xmlns:xlink="http://www.w3.org/1999/xlink" x="0px" y="0px"
	 viewBox="0 0 496.06 496.06" style="enable-background:new 0 0 496.06 496.06;" xml:space="preserve">
<style type="text/css">
	.st0{fill:#CD6799;}
</style>
<g id="vARuim.tif">
	<g>
		<path class="st0" d="M496.06,331.96c-0.24,1.22-0.37,2.57-0.61,3.79c-1.84,9.18-6.97,16.03-14.68,21.16
			c-2.2,1.47-4.4,2.69-6.97,3.55c-1.22,0.49-2.45,0.49-3.79,0.49c-0.98,0-1.59-0.49-1.84-1.35c-0.37-0.86-0.12-1.71,0.61-2.2
			c1.35-0.98,2.81-1.96,4.16-2.94c3.43-2.32,6.24-5.02,8.56-8.44c4.04-6.12,5.02-12.72,3.18-19.82
			c-2.94-10.77-9.79-18.35-19.08-23.98c-8.81-5.26-18.47-7.83-28.5-9.3c-6.85-0.98-13.82-1.22-20.8-0.86
			c-9.3,0.49-18.47,2.2-27.16,5.63c-1.47,0.61-1.47,0.61-0.86,2.2c1.96,5.51,3.43,11.25,3.55,17.13c0.12,6.61-1.96,12.36-5.87,17.49
			c-7.34,9.79-17,16.64-28.5,20.8c-3.18,1.22-6.36,2.45-9.79,3.06c-6.97,1.22-13.09-3.3-13.95-10.4
			c-0.61-5.63,0.73-10.89,2.69-16.15c2.69-7.22,7.1-13.46,11.87-19.33c3.91-4.65,8.2-8.93,12.85-12.85
			c0.98-0.86,1.22-1.47,0.61-2.81c-2.45-4.77-5.02-9.66-6.85-14.68c-2.57-7.34-4.4-14.8-5.87-22.39c0-0.24-0.12-0.37-0.12-0.73
			c-1.35,2.69-2.69,5.14-3.91,7.58c-7.46,14.19-15.41,28.01-24.59,41.1c-0.73,1.1-0.86,2.08-0.37,3.3
			c2.2,5.26,4.04,10.64,4.65,16.39c1.35,11.13-1.22,21.04-8.93,29.48c-5.51,5.87-12.36,9.79-19.7,12.85
			c-5.75,2.45-11.74,4.04-17.98,4.65c-3.67,0.37-7.22,0.49-10.89-0.37c-5.51-1.35-7.83-5.63-6.12-11.01
			c0.61-1.96,1.83-3.67,3.06-5.26c5.38-7.1,11.13-13.82,16.88-20.55c5.38-6.36,10.52-12.85,15.41-19.7
			c0.61-0.86,0.49-1.59,0.12-2.32c-2.2-4.53-4.4-9.05-6.61-13.58c-3.3-6.97-4.89-14.31-6.73-21.78c-0.49-1.83-0.73-3.67-1.1-5.38
			c-0.49,0-0.49,0.49-0.61,0.73c-4.65,11.74-9.66,23.37-14.8,34.87c-5.26,11.74-11.13,23.12-17.13,34.5
			c-3.67,6.85-7.22,13.58-11.13,20.31c-3.18,5.63-7.34,10.64-12.72,14.44c-3.3,2.32-6.97,3.18-10.89,1.71
			c-3.3-1.22-5.51-3.79-6.85-6.85c-1.71-3.67-2.32-7.58-2.69-11.5c-0.61-6.24-0.12-12.48,0.73-18.72c0-0.24,0.12-0.37-0.24-0.61
			c-0.49,1.1-0.98,2.2-1.35,3.3c-4.4,10.4-8.93,20.8-14.68,30.58c-2.08,3.55-4.4,6.73-7.95,8.93c-7.46,4.77-17.74,2.94-23.12-4.28
			c-4.53-5.99-7.34-12.72-9.3-19.82c-2.08-7.46-3.43-15.05-3.06-22.88c0.61-11.5,2.2-22.75,5.99-33.64
			c0.12-0.24,0.12-0.61,0.24-0.98c-0.61-0.12-0.98,0.24-1.35,0.49c-8.56,4.65-17,9.66-25.45,14.56c-0.61,0.37-0.73,0.73-0.37,1.35
			c3.67,7.34,5.26,15.29,5.75,23.37c1.1,14.56-1.22,28.63-7.1,41.96c-3.18,7.22-7.34,13.7-12.48,19.57
			c-7.34,8.56-16.15,15.41-26.3,20.31c-8.2,4.04-16.76,6.48-25.81,7.46c-8.2,0.86-16.27,0.12-24.34-1.96
			c-5.02-1.35-8.56-4.65-11.5-8.56c-4.77-6.48-7.1-13.95-7.22-22.02c-0.24-14.44,4.77-27.04,14.31-37.8
			c7.58-8.44,16.27-15.54,25.57-22.02c11.62-8.07,23.86-15.17,36.58-21.65c1.22-0.61,2.45-1.35,3.67-1.96
			c0.73-0.37,0.73-0.73,0-1.22c-5.87-5.02-12.23-9.42-18.59-13.82c-10.52-7.34-21.29-14.44-31.44-22.39
			c-6.97-5.38-13.58-11.01-19.94-17.13c-7.1-6.97-13.58-14.56-18.47-23.37c-3.91-6.85-6.85-13.95-7.83-21.78
			c-0.61-4.77,0-9.42,0.98-14.19c1.84-8.44,5.14-16.39,9.3-23.98c5.75-10.52,13.09-20.06,21.29-28.87
			c11.25-12.11,23.86-22.51,37.31-31.93c14.8-10.4,30.58-19.33,46.85-27.28c16.03-7.83,32.42-14.68,49.42-20.06
			c11.99-3.91,24.22-6.61,36.7-8.07c5.26-0.61,10.4-1.22,15.66-1.22c0.37,0,0.73-0.12,1.1-0.24c3.91,0,7.95,0,11.87,0
			c1.96,0.49,4.04,0.24,5.99,0.49c16.03,1.22,31.44,4.53,45.63,11.99c9.54,5.02,17.62,11.74,23.12,21.04
			c3.43,5.75,5.38,12.11,6.24,18.72c1.96,14.19-0.73,27.65-6.24,40.61c-4.89,11.38-11.62,21.53-19.82,30.83
			c-11.99,13.58-26.18,24.34-42.69,31.93c-12.48,5.75-25.57,9.66-39.02,12.23c-8.07,1.59-16.27,2.69-24.59,3.06
			c-11.25,0.49-22.39,0.24-33.27-2.81c-11.01-3.06-20.43-8.81-27.65-17.86c-2.08-2.69-3.55-5.75-4.16-9.18
			c-0.24-0.86-0.12-1.71,0.24-2.57c0.61-1.59,2.32-2.08,3.67-1.1c0.73,0.49,1.47,1.1,2.08,1.84c5.63,6.36,12.85,10.03,20.8,12.36
			c5.75,1.71,11.62,2.45,17.62,2.69c12.85,0.37,25.45-1.96,37.8-5.14c11.25-2.94,22.02-7.22,32.3-12.6
			c9.66-5.14,18.59-11.13,26.79-18.35c8.07-7.1,15.05-15.05,20.67-24.22c4.65-7.71,8.07-15.78,9.3-24.71
			c0.73-6.36,0.12-12.48-2.57-18.23c-2.45-5.38-6.73-8.93-11.62-11.74c-7.1-4.04-14.8-6.12-22.75-7.46
			c-4.89-0.86-9.91-1.1-14.92-1.35c-14.19-0.49-28.01,1.35-41.72,4.4c-17.62,3.91-34.62,10.03-50.89,17.74
			c-16.52,7.83-32.54,16.76-47.83,26.91c-9.05,5.75-17.98,12.6-26.18,20.31c-7.71,7.1-14.44,14.8-19.94,23.73
			c-4.77,7.83-7.95,16.27-9.18,25.45c-1.47,12.6,1.84,23.86,9.05,34.13c5.51,7.71,12.23,14.19,19.45,20.31
			c9.91,8.44,20.55,16.03,30.58,24.22c6.12,4.89,11.99,10.03,17.37,15.78c0.73,0.86,1.47,0.98,2.45,0.37
			c15.66-8.69,31.44-17.25,47.22-25.81c0.49-0.24,0.86-0.49,1.1-0.98c7.34-10.03,16.27-18.23,27.16-24.22
			c5.14-2.81,10.64-5.02,16.64-5.02c7.34,0,12.6,3.91,14.68,11.01c1.47,4.89,1.47,9.91,1.1,14.8c-0.12,1.83-0.49,3.67-0.73,5.63
			c0.61-0.12,1.1-0.49,1.47-0.86c1.96-1.83,4.28-2.2,6.85-1.71c1.84,0.24,3.67,0.98,5.26,1.96c2.45,1.71,3.55,3.91,2.94,6.97
			c-0.98,4.77-2.45,9.42-3.67,14.19c-3.06,11.5-6.12,23-8.44,34.62c-0.86,4.65-1.22,9.3-0.61,14.07c0,0.37,0,0.86,0.49,1.1
			c0.49,0.12,0.73-0.37,0.98-0.61c1.35-1.59,2.32-3.55,3.3-5.38c6.36-11.99,11.87-24.47,17.37-36.82
			c5.14-11.62,10.4-23.24,15.54-34.99c3.55-8.2,7.46-16.27,10.4-24.71c1.22-3.43,2.08-7.1,2.81-10.64c0.61-2.69,2.08-4.28,4.65-5.02
			c6.73-1.96,13.58-2.57,20.43-1.47c1.83,0.24,3.55,0.98,5.02,2.32c1.22,1.22,1.59,2.45,0.98,4.04c-1.71,4.89-3.3,9.66-4.53,14.68
			c-1.47,6.24-1.47,12.48-0.86,18.84c0.73,7.71,3.55,14.68,7.1,21.41c0.49,0.86,0.73,0.98,1.22,0c5.26-8.56,10.28-17.37,15.17-26.18
			c4.16-7.58,8.07-15.17,11.62-23c1.71-3.79,2.81-7.71,3.67-11.74c0.73-3.18,1.83-6.24,2.69-9.42c0.61-2.08,1.83-3.06,3.79-3.79
			c2.69-0.98,5.63-1.59,8.44-1.84c4.4-0.49,8.69-0.73,13.09,0.12c2.08,0.49,4.04,1.1,5.26,2.94c0.61,0.98,0.86,1.83,0.49,3.06
			c-1.59,4.4-3.06,8.93-4.28,13.46c-1.96,7.22-1.96,14.56-1.1,22.02c0.73,6.24,2.94,11.87,5.75,17.37c1.47,2.94,2.94,5.87,4.4,8.81
			c0.37,0.73,0.73,0.86,1.59,0.49c9.66-4.65,19.94-7.71,30.71-9.05c14.07-1.83,28.01-1.1,41.47,3.3
			c10.15,3.43,19.21,8.69,26.67,16.39c7.34,7.71,12.23,16.76,13.7,27.53c0.12,0.61,0,1.35,0.24,1.96
			C496.06,327.68,496.06,329.88,496.06,331.96z M112.06,344.68c0.12-1.47-0.12-3.18-0.24-5.02c-0.37-3.91-0.98-7.83-1.96-11.62
			c-0.24-0.73-0.49-0.98-1.22-0.49c-0.86,0.61-1.84,1.1-2.69,1.59c-13.82,8.07-27.04,17-39.15,27.53
			c-6.36,5.63-11.74,11.99-15.41,19.7c-2.57,5.26-4.16,10.89-4.16,16.76c0,1.59,0.24,3.06,0.61,4.53c1.35,5.02,4.89,7.58,10.15,7.83
			c6.48,0.24,12.48-1.47,18.11-4.28c8.93-4.28,16.27-10.52,22.39-18.23C107.16,371.96,111.94,359.36,112.06,344.68z M171.63,337.83
			c-0.12,1.35,0.12,2.69,0.24,4.16c0.12,3.55,0.61,6.97,1.59,10.4c0.49,1.83,1.22,3.67,2.57,5.02c0.86,0.86,1.83,0.98,2.94,0.37
			c0.98-0.61,1.83-1.35,2.57-2.32c3.06-4.04,5.14-8.56,7.1-13.09c3.43-7.83,6.36-15.9,9.54-23.98c4.65-11.99,8.93-24.1,12.11-36.58
			c0.73-3.06,1.47-5.99,1.47-9.18c0-2.2-1.1-3.18-3.18-3.18c-1.71,0-3.3,0.49-4.89,1.22c-4.77,2.32-8.69,5.75-11.99,10.03
			c-4.53,5.87-7.95,12.23-11.13,18.84C174.57,311.53,171.88,324.38,171.63,337.83z M371.16,316.06c0-2.32-0.49-4.65-1.1-6.97
			c-0.24-1.1-0.61-0.98-1.35-0.37c-3.06,2.69-5.75,5.75-8.2,8.93c-4.77,6.36-7.95,13.58-10.03,21.29c-0.24,0.86-0.24,1.83,0,2.69
			c0.24,0.73,0.61,0.98,1.35,0.73c4.4-1.71,8.44-4.04,11.87-7.34C368.96,329.76,371.04,323.27,371.16,316.06z M304.12,330.37
			c-0.49,0.12-0.61,0.37-0.73,0.49c-6.12,8.2-12.72,16.03-19.82,23.37c-1.1,1.22-2.2,2.45-3.3,3.67c-0.24,0.24-0.49,0.61-0.24,0.98
			c0.24,0.37,0.61,0.37,0.98,0.24c0.49-0.12,0.86-0.12,1.35-0.37c1.71-0.61,3.3-1.59,4.77-2.57c5.63-3.91,10.77-8.44,14.19-14.56
			C303.27,338.2,304.12,334.41,304.12,330.37z"/>
	</g>
</g>
</svg>
