<?xml version="1.0" encoding="utf-8"?>
<!-- Generator: Adobe Illustrator 23.0.1, SVG Export Plug-In . SVG Version: 6.00 Build 0)  -->
<svg version="1.1" id="Layer_1" xmlns="http://www.w3.org/2000/svg" xmlns:xlink="http://www.w3.org/1999/xlink" x="0px" y="0px"
	 viewBox="0 0 496.06 496.06" style="enable-background:new 0 0 496.06 496.06;" xml:space="preserve">
<style type="text/css">
	.st0{fill:#EA1D25;}
</style>
<g>
	<path class="st0" d="M486.64,225.89L269.97,9.22c-12.4-12.4-32.75-12.4-45.15,0l-44.99,44.99l57.06,57.06
		c13.23-4.47,28.45-1.49,39.03,9.1c10.59,10.59,13.56,25.97,9.1,39.36l55.08,55.08c13.23-4.63,28.61-1.65,39.36,9.1
		c14.89,14.89,14.89,38.87,0,53.75c-14.89,14.89-38.87,14.89-53.75,0c-11.25-11.25-13.89-27.62-8.27-41.35l-51.27-51.27V320
		c3.64,1.82,7.11,4.13,10.09,7.11c14.89,14.89,14.89,38.87,0,53.75c-14.89,14.89-38.87,14.89-53.75,0
		c-14.89-14.89-14.89-38.87,0-53.75c3.64-3.64,7.94-6.45,12.4-8.27V182.56c-4.47-1.82-8.77-4.63-12.4-8.27
		c-11.25-11.25-13.89-27.79-8.27-41.51l-56.23-56.23L9.3,224.9c-12.4,12.4-12.4,32.75,0,45.15l216.67,216.67
		c6.29,6.29,14.39,9.26,22.49,9.43h0.33c8.1,0,16.21-3.14,22.49-9.43l215.35-215.51C499.21,258.64,499.21,238.46,486.64,225.89
		L486.64,225.89z"/>
</g>
</svg>
