<?xml version="1.0" encoding="utf-8"?>
<!-- Generator: Adobe Illustrator 23.0.1, SVG Export Plug-In . SVG Version: 6.00 Build 0)  -->
<svg version="1.1" id="Layer_1" xmlns="http://www.w3.org/2000/svg" xmlns:xlink="http://www.w3.org/1999/xlink" x="0px" y="0px"
	 viewBox="0 0 496.06 496.06" style="enable-background:new 0 0 496.06 496.06;" xml:space="preserve">
<style type="text/css">
	.st0{fill:#E44F26;}
	.st1{fill:#F1662A;}
	.st2{fill:#FFFFFF;}
	.st3{fill:#EBEBEB;}
</style>
<g>
	<polygon class="st0" points="467.21,0 247.95,0 247.95,0 28.85,0 69.86,445.63 247.95,496.06 247.95,496.06 247.95,496.06 
		247.95,496.06 247.95,496.06 426.04,445.63 	"/>
	<polygon class="st1" points="247.95,36.38 247.95,458.36 247.95,458.36 392.3,417.52 427.36,36.38 	"/>
	<polygon class="st2" points="385.85,90.94 110.04,90.94 125.59,257.79 125.92,256.8 314.26,256.8 308.14,327.4 247.95,344.6 
		186.93,327.07 183.3,284.41 127.9,284.41 135.84,369.73 247.95,401.48 360.22,369.73 375.6,202.23 175.69,202.23 170.56,146.34 
		380.73,146.34 	"/>
	<g>
		<path class="st3" d="M247.95,90.94H110.04l15.38,166.84l0.33-0.99h122.2v-54.57h-72.26l-5.13-55.89h77.55V90.94H247.95z
			 M183.3,284.41H127.9l7.94,85.32l112.11,31.75V344.6l-61.02-17.53L183.3,284.41z"/>
	</g>
</g>
</svg>
