<?xml version="1.0" encoding="utf-8"?>
<!-- Generator: Adobe Illustrator 23.0.1, SVG Export Plug-In . SVG Version: 6.00 Build 0)  -->
<svg version="1.1" id="Layer_1" xmlns="http://www.w3.org/2000/svg" xmlns:xlink="http://www.w3.org/1999/xlink" x="0px" y="0px"
	 viewBox="0 0 566.93 268.67" style="enable-background:new 0 0 566.93 268.67;" xml:space="preserve">
<style type="text/css">
	.st0{fill:#002D5D;}
	.st1{fill:#BC955C;}
</style>
<g>
	<g>
		<g>
			<path class="st0" d="M12.56,200.83c-2.38,0-3.57-0.11-5.57-0.11s-4.44,0.11-6.87,0.11c-0.16,0-0.16-0.49,0.05-0.54
				c2.16-0.22,3.35-0.38,4-0.76c0.7-0.38,1.14-1.62,1.14-12.28v-7.9c0-10.66-0.43-11.9-1.14-12.28c-0.65-0.38-1.84-0.54-4-0.76
				c-0.22-0.05-0.22-0.54-0.05-0.54c2.43,0,4.87,0.11,6.87,0.11s3.14-0.11,5.57-0.11c7.19,0,10.28,4.33,10.28,7.68
				c0,3.3-2.33,6.06-5.73,7.79c5.84,1.3,8.98,4.65,8.98,9.2C26.08,195.74,22.08,200.83,12.56,200.83 M12.45,166.85
				c-1.73,0-3.3,0.22-3.46,0.43c-0.22,0.22-0.32,2.43-0.32,8.93c0,3.19,0.05,4.76,0.16,4.87c0.16,0.22,1.57,0.33,3.68,0.33
				c4.33,0,6.49-2.76,6.49-6.87C19,169.23,15.48,166.85,12.45,166.85 M11.91,182.43c-1.73,0-3.03,0.05-3.08,0.16
				c-0.11,0.05-0.16,1.3-0.16,7.68c0,5.41,0.27,8.01,0.65,8.44c0.38,0.54,2.49,0.97,4.82,0.97c4.44,0,8.01-2.87,8.01-7.9
				C22.13,186,17.7,182.43,11.91,182.43"/>
			<path class="st0" d="M73.04,200.72c-3.3,0-4.87-0.43-6.98-1.84c-2.76-1.89-5.68-5.95-10.01-13.36c-2.71,0.05-4.92,0.05-7.03-0.05
				v1.78c0,10.66,0.49,11.9,1.19,12.28c0.7,0.38,2.27,0.49,4.65,0.76c0.27,0.05,0.27,0.54,0.11,0.54H40.8
				c-0.16,0-0.16-0.49,0.05-0.54c2.11-0.22,3.08-0.38,3.73-0.76c0.65-0.38,1.14-1.62,1.14-12.28v-7.9c0-10.66-0.49-11.9-1.14-12.28
				c-0.65-0.38-1.62-0.54-3.73-0.76c-0.22-0.05-0.22-0.54-0.05-0.54c2.38,0,4.6,0.11,6.6,0.11c2,0,4.17-0.11,6.55-0.11
				c8.11,0,11.52,4.49,11.52,8.6c0,4.33-2.71,7.68-6.49,9.95c7.25,10.82,11.74,15.53,15.53,15.53c0.54,0,1.19,0,1.62-0.05
				c0.22,0,0.22,0.6,0.05,0.65C75.09,200.66,74.34,200.72,73.04,200.72 M53.89,167.01c-1.84,0-4.11,0.27-4.27,0.49
				c-0.22,0.32-0.6,4-0.6,11.85c0,3.25,0.11,4.27,0.32,4.49c0.43,0.38,2.54,0.65,5.08,0.65c4.44,0,7.09-3.84,7.09-8.06
				C61.52,171.23,59.03,167.01,53.89,167.01"/>
			<path class="st0" d="M85.32,200.83c-0.16,0-0.16-0.49,0.11-0.54c2.11-0.22,3.46-0.38,4.11-0.76c0.7-0.38,1.14-1.62,1.14-12.28
				v-7.9c0-10.66-0.43-11.9-1.14-12.28c-0.65-0.38-2-0.54-4.11-0.76c-0.27-0.05-0.27-0.54-0.11-0.54h14.07
				c0.16,0,0.16,0.49-0.05,0.54c-2.11,0.22-3.52,0.38-4.17,0.76c-0.65,0.38-1.14,1.62-1.14,12.28v7.9c0,10.66,0.49,11.9,1.14,12.28
				c0.65,0.38,2.06,0.54,4.17,0.76c0.22,0.05,0.22,0.54,0.05,0.54H85.32z"/>
			<path class="st0" d="M149.91,184.76c-2.11,0.27-2.81,0.32-3.46,0.76c-0.43,0.32-0.76,1.41-0.65,12.12v0.49
				c-2.98,1.79-7.14,3.03-11.63,3.03c-10.33,0-18.77-7.84-18.77-17.42c0-9.25,6.49-18.29,18.56-18.29c5.68,0,8.87,1.95,10.77,1.51
				c0.27-0.05,0.38,0.05,0.38,0.16c0.05,1.89,0.27,4.87,0.27,7.79c0,0.27-0.6,0.27-0.65-0.05c-0.16-1.46-0.97-3.25-2.11-4.33
				c-1.95-1.84-5.57-3.79-9.2-3.79c-9.79,0-14.12,7.74-14.12,15.42c0,9.03,6.44,17.42,16.72,17.42c2.38,0,4.87-0.54,6.44-1.24
				c-0.11-11.36-0.38-12.55-0.81-12.77c-0.65-0.38-2-0.54-4.11-0.81c-0.27,0-0.27-0.54-0.11-0.54h12.55
				C150.13,184.22,150.18,184.76,149.91,184.76"/>
			<path class="st0" d="M188.7,200.83c-0.16,0-0.16-0.49,0.05-0.54c2.11-0.22,3.03-0.38,3.73-0.76c0.65-0.38,1.14-1.62,1.14-12.28
				v-3.62h-21.04v3.62c0,10.66,0.43,11.9,1.14,12.28c0.65,0.38,1.57,0.54,3.68,0.76c0.22,0.05,0.22,0.54,0.05,0.54H164.3
				c-0.16,0-0.16-0.49,0.05-0.54c2.11-0.22,3.08-0.38,3.73-0.76c0.65-0.38,1.14-1.62,1.14-12.28v-7.9c0-10.66-0.49-11.9-1.14-12.28
				c-0.65-0.38-1.62-0.54-3.73-0.76c-0.22-0.05-0.22-0.54-0.05-0.54h13.15c0.16,0,0.16,0.49-0.05,0.54
				c-2.11,0.22-3.03,0.38-3.68,0.76c-0.7,0.38-1.14,1.62-1.14,12.28v2.87h21.04v-2.87c0-10.66-0.49-11.9-1.14-12.28
				c-0.7-0.38-1.62-0.54-3.73-0.76c-0.22-0.05-0.22-0.54-0.05-0.54h13.15c0.16,0,0.16,0.49-0.05,0.54
				c-2.11,0.22-3.03,0.38-3.73,0.76c-0.65,0.38-1.14,1.62-1.14,12.28v7.9c0,10.66,0.49,11.9,1.14,12.28
				c0.7,0.38,1.62,0.54,3.73,0.76c0.22,0.05,0.22,0.54,0.05,0.54H188.7z"/>
			<path class="st0" d="M236.79,200.83c-0.16,0-0.22-0.49,0-0.54c1.68-0.16,3.03-0.22,3.03-1.03c0-0.92-1.03-3.9-4.27-12.01
				l-0.05-0.16h-11.04l-0.05,0.16c-2.7,7.3-3.73,10.6-3.73,11.74c0,0.97,1.19,1.08,3.46,1.3c0.22,0.05,0.16,0.54,0,0.54h-10.17
				c-0.16,0-0.27-0.49,0-0.54c1.62-0.16,2.6-0.32,3.41-0.92c0.54-0.38,1.51-1.46,5.41-12.12l2.87-7.9
				c1.68-4.54,3.46-9.25,4.76-13.47c0.16-0.38,0.6-0.38,0.7,0c1.62,4.71,3.03,8.55,4.98,13.47l3.03,7.9
				c4.22,10.66,4.92,11.79,5.68,12.28c0.92,0.54,1.73,0.6,3.25,0.76c0.22,0.05,0.16,0.54,0,0.54H236.79z M229.92,171.94l-4.98,13.79
				h10.06L229.92,171.94z"/>
			<path class="st0" d="M291.86,200.83c-0.16,0-0.27-0.49,0-0.54c1.46-0.16,2.65-0.22,3.19-0.65c0.54-0.38,0.87-1.73-0.32-12.39
				l-1.24-12.71l-12.44,26.45c-0.05,0.11-0.38,0.16-0.54-0.05l-13.36-26.18l-0.87,12.23c-0.97,10.93-0.27,12.17,0.33,12.61
				c0.54,0.43,2,0.54,3.46,0.7c0.22,0.05,0.16,0.54,0,0.54h-11.41c-0.16,0-0.11-0.49,0.11-0.54c2.16-0.22,3.35-0.38,3.95-0.92
				c0.43-0.38,1.14-1.46,1.89-12.12l0.54-7.9c0.27-4.54,0.59-9.25,0.7-13.47c0.05-0.27,0.6-0.33,0.7-0.11l15.2,30.08l14.07-30.08
				c0.05-0.22,0.65-0.16,0.65,0.11c0.27,4.71,0.54,8.55,1.03,13.47l0.81,7.9c1.19,10.66,1.51,11.9,2.27,12.28
				c0.7,0.38,1.62,0.54,3.79,0.76c0.22,0.05,0.32,0.54,0.16,0.54H291.86z"/>
			<path class="st0" d="M363.59,166.74c-0.54,0.27-1.19,1.03-5.14,7.57l-2.92,4.82c-1.3,2.11-2.6,4.22-3.79,6.28v1.78
				c0,10.71,0.49,11.96,1.14,12.33c0.65,0.38,2.06,0.54,4.17,0.76c0.22,0.05,0.22,0.54,0.05,0.54h-14.07
				c-0.16,0-0.16-0.49,0.05-0.54c2.11-0.22,3.52-0.38,4.17-0.76c0.65-0.38,1.14-1.62,1.14-12.33v-1.57
				c-1.19-2.11-2.38-4.11-3.84-6.49l-3.03-4.82c-4.11-6.54-4.54-7.36-5.3-7.63c-0.92-0.38-1.68-0.32-3.19-0.43
				c-0.27,0-0.16-0.54,0-0.54h11.58c0.16,0,0.22,0.54,0,0.54c-1.25,0.05-2.6,0.05-3.03,0.32c-0.43,0.27,0,1.14,3.95,8.28l5.36,9.03
				l5.95-9.95c3.84-6.11,3.73-6.92,3.3-7.25c-0.43-0.22-1.89-0.32-3.35-0.43c-0.22,0-0.16-0.54,0-0.54h10.28
				c0.16,0,0.22,0.54,0,0.54C365.49,166.37,364.41,166.42,363.59,166.74"/>
			<path class="st0" d="M396.17,201.15c-9.9,0-17.64-7.63-17.64-17.42c0-9.31,7.36-18.29,18.39-18.29c9.95,0,17.63,7.63,17.63,17.42
				C414.56,192.17,407.26,201.15,396.17,201.15 M395.9,166.96c-9.68,0-13.47,8.22-13.47,15.2c0,8.82,6.17,17.47,14.82,17.47
				c9.63,0,13.42-8.22,13.42-15.2C410.66,175.62,404.55,166.96,395.9,166.96"/>
			<path class="st0" d="M461.73,167.23c-0.43,0.38-0.92,1.51-0.92,12.12v9.09c0,6.49-4.87,12.71-13.36,12.71
				c-8.44,0-13.58-5.57-13.58-12.6v-9.2c0-10.66-0.49-11.9-1.14-12.28c-0.65-0.38-1.57-0.54-3.73-0.76
				c-0.22-0.05-0.22-0.54-0.05-0.54h13.42c0.16,0,0.22,0.49-0.05,0.54c-2.11,0.22-3.25,0.38-3.9,0.76
				c-0.7,0.38-1.13,1.62-1.13,12.28v8.22c0,6.71,4.27,11.47,11.41,11.47c6.65,0,10.22-4.87,10.22-10.87v-8.82
				c0-10.6-0.49-11.74-0.92-12.12c-0.59-0.54-1.89-0.7-4-0.92c-0.27-0.05-0.16-0.54,0-0.54h11.52c0.16,0,0.22,0.49,0,0.54
				C463.35,166.53,462.33,166.69,461.73,167.23"/>
			<path class="st0" d="M513.73,167.5c-0.43,0.43-1.03,1.19-0.98,11.85l0.06,7.9c0.05,4.54,0,9.36,0.27,13.58
				c0.05,0.27-0.65,0.38-0.92,0.11l-26.83-28.62l0.22,14.93c0.11,9.85,0.81,11.36,1.51,11.96c0.49,0.32,2.44,0.86,3.95,0.92
				c0.22,0,0.16,0.7,0,0.7h-12.44c-0.16,0-0.22-0.65,0-0.7c2.16-0.22,3.41-0.54,4-1.03c0.43-0.43,1.03-1.19,0.92-11.85l-0.11-7.9
				c-0.06-4.54-0.06-9.36-0.33-13.58c0-0.27,0.81-0.38,0.97-0.11l26.89,28.78l-0.22-15.09c-0.05-10.66-0.87-11.47-1.46-11.95
				c-0.65-0.49-2-0.76-4.27-0.92c-0.22-0.05-0.16-0.7,0-0.7h12.55c0.16,0,0.22,0.65,0,0.7C515.35,166.69,514.32,167.01,513.73,167.5
				"/>
			<path class="st0" d="M566.74,184.76c-2.11,0.27-2.81,0.32-3.46,0.76c-0.43,0.32-0.76,1.41-0.65,12.12v0.49
				c-2.98,1.79-7.14,3.03-11.63,3.03c-10.33,0-18.77-7.84-18.77-17.42c0-9.25,6.49-18.29,18.56-18.29c5.68,0,8.87,1.95,10.77,1.51
				c0.27-0.05,0.38,0.05,0.38,0.16c0.05,1.89,0.27,4.87,0.27,7.79c0,0.27-0.6,0.27-0.65-0.05c-0.16-1.46-0.97-3.25-2.11-4.33
				c-1.95-1.84-5.57-3.79-9.2-3.79c-9.79,0-14.12,7.74-14.12,15.42c0,9.03,6.44,17.42,16.72,17.42c2.38,0,4.87-0.54,6.44-1.24
				c-0.11-11.36-0.38-12.55-0.81-12.77c-0.65-0.38-2-0.54-4.11-0.81c-0.27,0-0.27-0.54-0.11-0.54h12.55
				C566.96,184.22,567.01,184.76,566.74,184.76"/>
			<path class="st0" d="M131.62,245.83c-0.33,0.29-0.66,0.84-0.66,8.04v6.17c0,4.41-3.49,8.63-9.25,8.63
				c-5.73,0-9.43-3.78-9.43-8.55v-6.24c0-7.23-0.29-7.89-0.77-8.11c-0.44-0.26-1.06-0.48-2.5-0.62c-0.15-0.04-0.15-0.48-0.04-0.48
				h9.51c0.11,0,0.11,0.44-0.04,0.48c-1.43,0.15-2.24,0.37-2.68,0.62c-0.44,0.22-0.77,0.88-0.77,8.11v5.29
				c0,4.55,2.97,7.78,7.56,7.78c4.51,0,6.75-3.3,6.75-7.38v-5.69c0-7.19-0.33-7.75-0.66-8.04c-0.4-0.33-1.25-0.55-2.72-0.7
				c-0.15-0.04-0.11-0.48,0-0.48h8.22c0.11,0,0.18,0.44,0,0.48C132.72,245.28,131.99,245.5,131.62,245.83"/>
			<path class="st0" d="M174.61,245.83c-0.33,0.29-0.73,0.81-0.66,8.04l0.04,5.36c0,3.08,0,6.35,0.18,9.21
				c0,0.18-0.66,0.26-0.84,0.07l-18.1-18.9l0.15,9.62c0.07,6.68,0.51,7.71,1.03,8.11c0.33,0.22,1.65,0.59,2.64,0.62
				c0.18,0,0.11,0.48,0,0.48h-8.7c-0.11,0-0.18-0.44,0-0.48c1.43-0.15,2.31-0.37,2.72-0.7c0.29-0.29,0.7-0.81,0.62-8.04l-0.07-5.36
				c-0.04-3.08-0.04-6.35-0.22-9.21c-0.04-0.18,0.73-0.26,0.84-0.07l18.13,19.02l-0.15-9.73c-0.04-7.23-0.59-7.78-0.99-8.11
				c-0.44-0.33-1.36-0.51-2.86-0.62c-0.18-0.04-0.11-0.48,0-0.48h8.77c0.11,0,0.18,0.44,0,0.48
				C175.71,245.28,174.98,245.5,174.61,245.83"/>
			<path class="st0" d="M195.1,268.45c-0.11,0-0.11-0.44,0.04-0.48c1.43-0.15,2.39-0.37,2.83-0.62c0.44-0.26,0.77-0.88,0.77-8.11
				v-5.36c0-7.23-0.33-7.89-0.77-8.11c-0.44-0.26-1.4-0.48-2.83-0.62c-0.15-0.04-0.15-0.48-0.04-0.48h9.91
				c0.11,0,0.15,0.44-0.04,0.48c-1.43,0.15-2.35,0.37-2.79,0.62c-0.48,0.22-0.81,0.88-0.81,8.11v5.36c0,7.23,0.33,7.86,0.81,8.11
				c0.44,0.26,1.36,0.48,2.79,0.62c0.18,0.04,0.15,0.48,0.04,0.48H195.1z"/>
			<path class="st0" d="M243.85,245.83c-0.37,0.29-1.03,0.81-3.93,8.04l-2.13,5.36c-1.21,3.08-2.5,6.28-3.49,9.14
				c-0.11,0.26-1.21,0.26-1.28,0c-1.14-3.19-2.13-5.8-3.49-9.14l-2.17-5.36c-2.68-6.46-3.34-7.67-3.96-8.08
				c-0.55-0.37-1.32-0.55-2.42-0.66c-0.15-0.04-0.11-0.48,0-0.48h8.63c0.11,0,0.18,0.44,0,0.48c-1.36,0.15-2.09,0.4-2.09,0.99
				c0,0.62,0.4,2.24,2.68,7.75l4,10.53l4.15-10.53c1.98-5.03,2.31-6.75,2.31-7.56c0-0.66-0.62-1.03-2.17-1.18
				c-0.18-0.04-0.11-0.48,0-0.48h7.53c0.11,0,0.15,0.44,0,0.48C244.87,245.25,244.36,245.47,243.85,245.83"/>
			<path class="st0" d="M277.29,267.82c-0.26,0.4-0.7,0.66-1.62,0.66c-2.24,0-4.51-0.11-7.6-0.11c-2.35,0-3.52,0.04-6.13,0.07
				c-0.11,0-0.11-0.44,0.04-0.48c1.47-0.15,2.09-0.37,2.53-0.62c0.44-0.26,0.77-0.88,0.77-8.11v-5.36c0-7.23-0.33-7.89-0.77-8.11
				c-0.44-0.26-1.06-0.48-2.53-0.62c-0.15-0.04-0.15-0.48-0.04-0.48c2.86,0.04,7.09,0.07,9.47,0.07c3.08,0,4.37-0.04,5.51-0.18
				c0.15,0,0.22,0.07,0.22,0.15c-0.11,1.28-0.18,2.72-0.44,4.7c0,0.15-0.48,0.11-0.48-0.11c0-0.95-0.11-1.76-0.62-2.31
				c-0.62-0.66-1.76-0.99-4.37-0.99c-1.43,0-2.79,0.04-3.16,0.07c-0.07,0.37-0.11,1.84-0.11,4.15v5.32h3.01
				c3.49,0,3.96-0.4,4.18-1.73c0.04-0.15,0.51-0.11,0.51,0c-0.07,2.02-0.18,3.23-0.18,5.32c0,0.11-0.52,0.11-0.52-0.04
				c0-0.7-0.18-1.43-0.55-1.76c-0.33-0.33-0.92-0.59-3.49-0.59h-2.97v2.5c0,4.7,0.33,6.72,0.81,7.19c0.44,0.48,1.21,0.7,3.38,0.7
				c2.28,0,3.56-0.44,4.22-1.14c0.51-0.59,0.88-1.4,1.17-2.53c0.04-0.22,0.51-0.07,0.48,0.11
				C277.87,265.51,277.58,267.31,277.29,267.82"/>
			<path class="st0" d="M318.18,268.37c-2.24,0-3.49-0.29-4.92-1.25c-1.87-1.29-3.85-3.82-6.83-8.88c-1.8,0.07-2.94,0.04-4.33-0.04
				v1.03c0,7.23,0.33,7.86,0.77,8.11c0.48,0.29,1.58,0.48,3.19,0.62c0.15,0.04,0.15,0.48,0.04,0.48h-9.98
				c-0.11,0-0.15-0.44,0.04-0.48c1.43-0.15,2.06-0.37,2.5-0.62c0.48-0.26,0.77-0.88,0.77-8.11v-5.36c0-7.23-0.29-7.89-0.77-8.11
				c-0.44-0.26-1.06-0.48-2.5-0.62c-0.18-0.04-0.15-0.48-0.04-0.48c1.61,0,3.3,0.07,4.66,0.07s2.83-0.07,4.44-0.07
				c5.51,0,8.04,3.05,8.04,5.84c0,2.94-1.83,5.29-4.41,6.86c4.88,7.34,7.97,10.32,10.54,10.32c0.33,0,0.81,0,1.06-0.04
				c0.15,0,0.15,0.51,0.07,0.55C319.76,268.34,319.06,268.37,318.18,268.37 M305.19,245.8c-1.25,0-2.35,0.26-2.53,0.48
				c-0.22,0.29-0.55,2.28-0.55,7.6c0,2.2,0.11,2.46,0.29,2.68c0.4,0.37,1.43,0.59,3.16,0.59c3.01,0,4.62-2.39,4.62-5.25
				C310.18,248.37,308.67,245.8,305.19,245.8"/>
			<path class="st0" d="M339.69,268.63c-3.45,0-5.62-1.76-5.73-2.2c-0.26-1.21-0.26-3.16-0.07-5.03c0-0.18,0.51-0.18,0.51,0.04
				c0.11,1.4,0.59,2.68,1.14,3.45c0.99,1.4,2.49,2.5,4.63,2.5c2.9,0,4.44-1.98,4.44-4.44c0-5.47-9.76-6.39-9.76-12.44
				c0-3.78,3.19-6.13,6.57-6.13c2.79,0,3.34,0.99,4.66,0.66c0.15-0.04,0.22,0.04,0.22,0.11c0,1.28,0.07,3.01,0,4.96
				c-0.04,0.15-0.51,0.15-0.51-0.04c-0.11-1.18-0.62-2.42-1.36-3.16c-0.81-0.84-1.91-1.36-3.27-1.36c-2.31,0-3.85,1.43-3.85,3.71
				c0,4.59,10.13,6.5,10.13,12.48C347.43,266.32,343.4,268.63,339.69,268.63"/>
			<path class="st0" d="M366.12,268.45c-0.11,0-0.11-0.44,0.04-0.48c1.43-0.15,2.39-0.37,2.83-0.62c0.44-0.26,0.77-0.88,0.77-8.11
				v-5.36c0-7.23-0.33-7.89-0.77-8.11c-0.44-0.26-1.4-0.48-2.83-0.62c-0.14-0.04-0.14-0.48-0.04-0.48h9.91
				c0.11,0,0.15,0.44-0.04,0.48c-1.43,0.15-2.35,0.37-2.79,0.62c-0.48,0.22-0.81,0.88-0.81,8.11v5.36c0,7.23,0.33,7.86,0.81,8.11
				c0.44,0.26,1.36,0.48,2.79,0.62c0.18,0.04,0.15,0.48,0.04,0.48H366.12z"/>
			<path class="st0" d="M415.09,249.76c0,0.11-0.51,0.11-0.51-0.07c0-0.92-0.18-1.91-0.66-2.42c-0.7-0.7-2.42-1.21-6.35-1.21
				c-0.81,0-1.28,0.04-1.65,0.07c-0.11,0.37-0.15,1.83-0.15,4.15v8.96c0,7.23,0.33,7.86,0.77,8.11c0.48,0.26,1.39,0.48,2.83,0.62
				c0.15,0.04,0.15,0.48,0.04,0.48h-9.91c-0.11,0-0.11-0.44,0.04-0.48c1.43-0.15,2.35-0.37,2.83-0.62c0.44-0.26,0.77-0.88,0.77-8.11
				v-8.96c0-2.31-0.04-3.78-0.15-4.15c-0.37-0.04-1.03-0.07-1.84-0.07c-3.78,0-5.47,0.4-6.39,1.21c-0.59,0.51-0.95,1.62-1.1,2.5
				c-0.04,0.18-0.52,0.07-0.52-0.07c0.22-1.87,0.44-3.89,0.52-5.14c0-0.07,0.11-0.15,0.26-0.15c1.28,0.22,4.15,0.4,10.54,0.4
				c8.77,0,10.1-0.26,10.72-0.48c0.19-0.04,0.22,0.07,0.22,0.15C415.38,245.87,415.31,247.85,415.09,249.76"/>
			<path class="st0" d="M452.27,245.54c-0.37,0.18-1.03,0.48-3.71,4.92l-1.98,3.27c-0.88,1.43-1.76,2.86-2.57,4.26v1.21
				c0,7.27,0.33,7.89,0.77,8.15c0.48,0.26,1.4,0.48,2.83,0.62c0.18,0.04,0.15,0.48,0.04,0.48h-9.95c-0.11,0-0.11-0.44,0.04-0.48
				c1.47-0.15,2.39-0.37,2.83-0.62c0.44-0.26,0.77-0.88,0.77-8.15v-1.06c-0.81-1.43-1.62-2.79-2.61-4.41l-2.06-3.27
				c-2.79-4.44-3.27-4.77-3.78-4.99c-0.62-0.22-1.14-0.33-2.2-0.37c-0.15,0-0.11-0.48,0-0.48h8.26c0.11,0,0.18,0.48,0,0.48
				c-0.85,0.04-1.43,0.15-1.73,0.33c-0.29,0.15-0.29,0.55,2.39,4.7l3.67,6.24l3.78-6.17c2.61-4.15,2.24-4.52,1.95-4.74
				c-0.29-0.15-0.95-0.29-1.95-0.37c-0.18,0-0.11-0.48,0-0.48h7.53c0.11,0,0.18,0.48,0,0.48
				C453.52,245.17,452.82,245.32,452.27,245.54"/>
			<path class="st0" d="M144.47,38.27V20.94c0-1.34-0.19-2.38-0.19-2.38s1.21,0.2,2.38,0.2h13.06c9.94,0,15.78,1.54,15.78,10.58
				c0,5.87-3.62,11.11-15.37,11.11h-13.47c-1.18,0-2.34,0.15-2.34,0.15S144.47,39.47,144.47,38.27 M144.47,78.04V58
				c0-1.35-0.16-2.34-0.16-2.34s1.17,0.16,2.34,0.16h11.05c8.81,0,19.6,0,19.6,12.2c0,9.04-7.72,12.2-18.11,12.2h-12.54
				c-1.18,0-2.31,0.18-2.31,0.18S144.47,79.19,144.47,78.04 M112.79,7.98l-0.02,83.45c0,2.71,0.16,3.67-1.76,4.86
				c-1.88,1.16-3.8,1.35-6.89,1.88c0,0-0.03,0.01-0.06,0.01c-0.31,0.08-0.25,1.24,0.06,1.24h67.51c28.47,0,40.45-11.3,40.45-28.93
				c0-13.03-6.07-21-18.08-23.99c-0.2-0.05-0.21-0.32,0-0.38c7.66-2.39,14.7-7.93,14.7-21.5C208.71,6.23,196.28,0,169.16,0l-65,0
				c-0.31,0-0.37,1.16-0.06,1.24c0.03,0.01,0.06,0.01,0.06,0.01c3.09,0.53,5.01,0.72,6.89,1.88C112.96,4.33,112.79,5.28,112.79,7.98
				"/>
			<path class="st0" d="M452.96,7.98c0-2.71-0.16-3.66,1.76-4.85c1.88-1.17,3.8-1.35,6.89-1.88c0,0,0.03-0.01,0.06-0.01
				C461.97,1.17,461.91,0,461.6,0l-49.79,0c-0.31,0-0.37,1.17-0.06,1.24c0.03,0.01,0.06,0.01,0.06,0.01
				c3.14,0.39,4.6,0.72,6.48,1.88c1.91,1.19,1.76,2.15,1.76,4.85v50.15c0,11.43-6.55,20.22-19.55,20.22
				c-13.01,0-19.56-8.79-19.56-20.22l0-50.14c0-2.71-0.16-3.67,1.76-4.86c1.87-1.17,3.44-1.46,6.48-1.88c0,0,0.03-0.01,0.06-0.01
				c0.31-0.08,0.25-1.24-0.06-1.24l-46.99,0c-0.35,0-0.28,1.17,0.01,1.23c0.03,0.01,0.06,0.01,0.06,0.01c1.72,0.11,2.9,0.2,3.95,1.1
				c1.57,1.33,1.82,2.92,1.82,5.63v49.3c0,23.77,13,43.95,52.47,43.95c39.46,0,52.47-20.18,52.47-43.95V7.98z"/>
			<path class="st0" d="M302.06,99.43c0.31,0,0.37-1.16,0.06-1.24c-0.03-0.01-0.06-0.01-0.06-0.01c-3.09-0.53-5.01-0.72-6.89-1.88
				c-1.92-1.19-1.76-2.15-1.76-4.86V59.77l34.43-51.13c1.89-2.8,3.09-4.27,4.64-5.57c0.26-0.22,0.9-0.64,1.29-0.89
				c1.42-0.71,1.96-0.88,3.72-0.93c0,0,0.03-0.01,0.06-0.01C337.87,1.2,337.96,0,337.6,0l-46.44,0c-0.38,0-0.3,1.21,0.02,1.25
				c0.03,0,0.06,0.01,0.06,0.01c2.25,0,5.03,0.02,4.58,3.25c-0.26,3.14-13.64,22.49-18.41,29.85c-0.68,1.05-1.22,2.14-1.45,3.46
				c-0.17-1.3-0.99-2.63-1.54-3.45c-6.65-9.89-18.01-25.93-18.34-29.86c-0.28-3.36,2.32-3.26,4.58-3.26c0,0,0.03-0.01,0.06-0.01
				C261.04,1.2,261.16,0,260.78,0l-48.77,0c-0.29,0-0.26,1.12,0.03,1.23c0.03,0.01,0.06,0.01,0.06,0.01
				c2.08,0.21,3.22,0.07,5.66,1.25c0.29,0.14,0.97,0.59,1.23,0.82c1.55,1.3,2.49,2.51,4.38,5.31l34.39,50.92l0,31.88
				c0,2.71,0.16,3.67-1.76,4.86c-1.88,1.16-3.8,1.36-6.89,1.88c0,0-0.03,0.01-0.06,0.01c-0.31,0.08-0.25,1.24,0.06,1.24H302.06z"/>
			<path class="st1" d="M452.16,134.14L452.16,134.14l-347.49,0.03c-0.45,0-0.81-0.36-0.81-0.81c0-0.45,0.36-0.81,0.81-0.81h0
				l347.49-0.03c0.45,0,0.81,0.36,0.81,0.81C452.97,133.77,452.61,134.14,452.16,134.14"/>
		</g>
	</g>
</g>
</svg>
