<?xml version="1.0" encoding="utf-8"?>
<!-- Generator: Adobe Illustrator 23.0.1, SVG Export Plug-In . SVG Version: 6.00 Build 0)  -->
<svg version="1.1" id="Layer_1" xmlns="http://www.w3.org/2000/svg" xmlns:xlink="http://www.w3.org/1999/xlink" x="0px" y="0px"
	 viewBox="0 0 496.06 325.93" style="enable-background:new 0 0 496.06 325.93;" xml:space="preserve">
<style type="text/css">
	.st0{fill:#E3232A;}
</style>
<g>
	<g>
		<path class="st0" d="M323.91,0c2.86,8.73,5.68,17.26,8.45,25.79c10.33,31.78,20.69,63.55,30.91,95.36
			c0.78,2.44,1.86,3.04,4.27,3.04c41.2-0.07,82.4-0.04,123.59-0.04c1.13,0,2.26,0,4.42,0c-3.08,2.27-5.4,3.99-7.74,5.69
			c-31.8,23.11-63.58,46.25-95.44,69.28c-2.3,1.66-2.88,3.03-1.97,5.81c12.81,39.04,25.49,78.11,38.18,117.19
			c0.38,1.16,1.18,2.26,0.77,3.81c-50.93-37.01-101.78-73.96-152.63-110.91c0.05-0.29,0.11-0.58,0.16-0.87
			c3.82,0,7.68,0.3,11.47-0.06c8.68-0.84,13.5-6.99,12.58-15.6c-0.62-5.75-3.64-9.16-9.43-10.18c-7.51-1.33-15.11-0.43-22.67-0.59
			c-6.64-0.14-6.64-0.03-6.64,6.45c0,27.2-0.05,54.4,0.07,81.59c0.01,2.82-0.59,3.66-3.51,3.59c-9.06-0.21-18.13-0.21-27.19,0
			c-2.82,0.06-3.44-0.86-3.28-3.43c0.21-3.2-0.13-6.44,0.1-9.63c0.18-2.5-0.73-3.01-3.06-3c-15.38,0.1-30.75,0.05-46.13,0.05
			c-1.12,0-2.24,0-3.7,0c0.63-1.71,1.87-2.55,2.86-3.53c8.28-8.26,16.64-16.45,24.88-24.77c1.42-1.44,2.83-1.97,4.81-1.94
			c5.85,0.12,11.71-0.03,17.56,0.08c1.94,0.04,2.84-0.23,2.81-2.55c-0.14-9.63-0.06-19.26-0.06-29.08
			c-1.52,0.23-2.13,1.43-2.95,2.26c-24.33,24.35-48.66,48.7-72.93,73.12c-1.66,1.67-3.28,2.43-5.67,2.4
			c-9.06-0.14-18.13-0.18-27.2,0.01c-2.91,0.06-3.82-0.52-3.8-3.67c0.15-28.11,0.04-56.23,0.15-84.35c0.01-2.91-0.59-3.74-3.66-3.71
			c-23.52,0.23-47.04,0.23-70.56,0.31c-5.73,0.02-8.29,1.54-8.78,5.16c-0.59,4.39,2.24,7.77,7.49,9.13
			c4.39,1.14,8.9,0.52,13.34,1.19c20.39,3.06,33.73,19.3,32.47,39.74c-1.22,19.72-17.74,35.82-37.38,36.09
			c-15.37,0.21-30.76-0.01-46.13,0.11c-2.44,0.02-2.74-0.89-2.72-2.96c0.1-8.49,0.12-16.98-0.01-25.47
			c-0.03-2.25,0.54-2.92,2.84-2.88c13.76,0.21,27.53,0.22,41.3,0.41c3.2,0.04,5.57-1.07,7.13-3.84c2.96-5.26-0.05-10.55-6.31-10.79
			c-4.37-0.17-8.72-0.31-12.96-1.41c-29.41-7.63-36.94-40.04-25.07-58.21c7.82-11.98,19.23-18.28,33.54-18.31
			c59.79-0.13,119.58-0.06,179.37-0.05c0.56,0,1.12,0.06,1.66,0.08c0.47,1.14-0.53,1.47-1.02,1.96
			c-9.39,9.43-18.84,18.81-28.19,28.28c-1.35,1.36-2.71,1.81-4.54,1.8c-11.71-0.05-23.41,0.01-35.12-0.04
			c-1.71-0.01-2.73,0.04-2.72,2.27c0.1,15.72,0.06,31.44,0.09,47.16c0,0.18,0.19,0.36,0.61,1.13c5.05-5.16,9.94-10.22,14.91-15.21
			c21.77-21.87,43.56-43.73,65.34-65.59c0.96-0.97,1.81-1.89,3.45-1.88c22.49,0.2,45.01-0.85,67.45,0.5
			c14.66,0.88,26.69,7.5,31.64,22.4c4.24,12.78,3.86,25.55-3.63,37.38c-0.83,1.31-0.94,2.01,0.44,3
			c14.97,10.79,29.89,21.64,44.83,32.46c0.17,0.13,0.42,0.15,1.1,0.39c-2.33-7.19-4.56-14.11-6.81-21.02
			c-4.06-12.52-8.08-25.06-12.25-37.54c-0.7-2.1-0.39-3.18,1.44-4.5c16.46-11.85,32.84-23.81,49.36-35.83
			c-1.09-1.21-2.42-0.67-3.55-0.67c-19.29-0.04-37.43-0.09-57.49,0.03c-2.39,0.01-3.31-0.72-4.02-2.94
			c-5.85-18.31-11.84-36.58-17.79-54.86c-0.34-1.06-0.72-2.1-1.13-3.26c-1.37,0.88-1.33,2.26-1.7,3.38
			c-5.93,17.7-11.85,35.4-17.65,53.15c-0.65,2-1.49,2.61-3.57,2.61c-86.87-0.1-173.74-0.15-260.61-0.18c-1.52,0-2.88-0.15-4.21-1.07
			c-11.76-8.15-23.57-16.24-35.57-24.5c1.24-0.94,2.51-0.55,3.66-0.55c91.69-0.02,183.38-0.04,275.07,0.06
			c3.01,0,4.1-1.02,4.96-3.68c12.62-39.1,25.33-78.18,38.05-117.25C322.65,2.26,322.63,1.03,323.91,0z"/>
		<path class="st0" d="M198.52,115.73c0.01,2.58-0.55,3.43-3.29,3.39c-10.44-0.17-20.88-0.17-31.32,0
			c-2.87,0.05-3.84-0.45-3.82-3.66c0.16-25.7,0.09-51.4,0.08-77.1c0-1.21,0-2.42,0-4.43c-33.4,28.65-66.14,56.74-99.48,85.35
			c0-17.17,0-33.44,0-50.49c-20.14,16.88-39.83,33.38-59.53,49.89c-1.23-0.52-0.7-1.59-0.7-2.38C0.42,89.23,0.43,62.15,0.41,35.08
			c0-1.52,0.12-2.74,1.49-3.91C12.99,21.74,23.98,12.2,35,2.69c0.43-0.37,0.82-0.79,1.82-0.65c0,16.38,0,32.83,0,50.16
			c20.5-17.38,40.36-34.21,60.75-51.49c0,16.81,0,32.99,0,49.96c6.27-5.22,11.95-9.93,17.61-14.68
			c13.34-11.2,26.68-22.42,39.99-33.66c1.21-1.02,2.43-1.48,4.02-1.47c26.5,0.04,53.01-0.13,79.51,0.09
			c11.43,0.09,22.38,2.67,31.45,10.17c16.06,13.28,14.78,41.61-2.27,53.91c-4.85,3.49-4.86,3.51-0.28,7.46
			c5.91,5.09,11.77,10.24,17.79,15.18c2.12,1.74,2.8,3.2,1.78,5.99c-2.87,7.84-5.33,15.83-7.95,23.76
			c-0.51,1.53-0.74,2.81-2.81,1.03c-23.71-20.41-47.5-40.73-72-61.7c5.82,0,10.86-0.12,15.9,0.03c4.5,0.14,8.96,0.13,13.24-1.4
			c5.69-2.02,9.11-7.35,8.56-13.07c-0.56-5.84-4-9.48-10.55-10.33c-10.5-1.37-21.08-0.29-31.62-0.6c-0.99-0.03-1.5,0.35-1.46,1.39
			c0.04,0.8,0,1.61,0,2.41"/>
		<path class="st0" d="M367.65,59.7c0-18.82,0.05-37.64-0.05-56.46c-0.01-2.43,0.35-3.2,3.08-3.14c26.71,0.67,53.44,0.76,80.12,1.87
			c14.42,0.6,27.47,5.95,36.73,17.62c14.22,17.93,10.21,44.23-8.38,58.36c-10.33,7.86-22.03,11.45-34.91,11.48
			c-8.49,0.02-16.98-0.07-25.47,0.06c-2.26,0.04-2.92-0.58-2.88-2.86c0.14-7.92,0.11-15.84,0.01-23.75
			c-0.02-1.94,0.54-2.56,2.51-2.52c4.93,0.11,9.87-0.04,14.8-0.04c2.66,0,5.26-0.33,7.79-1.11c6.38-1.97,10.01-6.81,9.73-12.91
			c-0.33-7.14-4.36-12.14-10.92-13.6c-5.34-1.19-10.74-0.59-16.12-0.69c-4.7-0.09-9.42,0.2-14.11-0.1c-3.03-0.19-3.46,0.9-3.45,3.62
			c0.1,26.74,0.02,53.47,0.13,80.21c0.01,2.88-0.47,3.86-3.64,3.78c-10.67-0.25-21.34-0.17-32.01-0.03
			c-2.4,0.03-3.03-0.56-3.02-2.99C367.69,97.57,367.64,78.64,367.65,59.7z"/>
	</g>
</g>
</svg>
