<?xml version="1.0" encoding="utf-8"?>
<!-- Generator: Adobe Illustrator 23.0.1, SVG Export Plug-In . SVG Version: 6.00 Build 0)  -->
<svg version="1.1" id="Layer_1" xmlns="http://www.w3.org/2000/svg" xmlns:xlink="http://www.w3.org/1999/xlink" x="0px" y="0px"
	 viewBox="0 0 496.06 496.06" style="enable-background:new 0 0 496.06 496.06;" xml:space="preserve">
<style type="text/css">
	.st0{fill:#54C1DE;}
	.st1{fill:#FFFFFF;}
</style>
<g>
	<path class="st0" d="M407.68,170.44c-5.29-1.76-10.59-3.38-15.88-5c0.88-3.68,1.76-7.21,2.5-10.88
		c12.06-58.68,4.12-105.89-22.8-121.48c-25.88-14.85-68.24,0.59-110.89,37.8c-4.27,3.68-8.38,7.5-12.35,11.32
		c-2.65-2.65-5.44-5.15-8.24-7.65c-44.71-39.71-89.71-56.47-116.63-40.89c-25.88,15-33.53,59.42-22.65,115.01
		c1.03,5.59,2.35,11.03,3.68,16.47c-6.32,1.76-12.5,3.68-18.38,5.74C33.54,189.27,0,217.94,0,247.65c0,30.74,36.03,61.62,90.74,80.3
		c4.41,1.47,8.97,2.94,13.38,4.27c-1.47,5.88-2.79,11.77-3.82,17.65c-10.44,54.56-2.21,97.95,23.53,112.8
		c26.62,15.3,71.33-0.44,114.86-38.53c3.38-2.94,6.91-6.18,10.29-9.56c4.41,4.27,8.82,8.24,13.38,12.21
		c42.21,36.33,83.83,50.89,109.57,36.03c26.62-15.44,35.3-62.06,23.97-118.68c-0.88-4.27-1.91-8.82-2.94-13.24
		c3.09-0.88,6.18-1.91,9.27-2.94c56.92-18.82,93.83-49.27,93.83-80.45C495.92,217.8,461.36,188.97,407.68,170.44L407.68,170.44z"/>
	<path class="st1" d="M395.47,307.95c-2.65,0.88-5.44,1.76-8.38,2.65c-6.32-19.85-14.71-41.03-25.15-62.8
		c9.85-21.32,18.09-42.21,24.12-61.92c5,1.47,10,3.09,14.71,4.71c45.89,15.74,73.83,39.12,73.83,57.21
		C474.74,266.92,444.45,291.77,395.47,307.95L395.47,307.95z M375.03,348.39c5,25,5.74,47.8,2.35,65.45
		c-2.94,15.88-8.82,26.47-16.18,30.74c-15.59,9.12-49.12-2.65-85.15-33.68c-4.12-3.53-8.24-7.35-12.5-11.32
		c13.97-15.3,27.94-33.09,41.62-52.8c23.97-2.06,46.62-5.59,67.21-10.29C373.41,340.45,374.3,344.42,375.03,348.39L375.03,348.39z
		 M169.13,442.96c-15.3,5.44-27.5,5.59-34.71,1.32c-15.59-8.97-22.21-43.83-13.24-90.59c1.03-5.59,2.21-11.03,3.68-16.47
		c20.3,4.56,42.8,7.79,66.77,9.71c13.68,19.27,28.09,37.06,42.5,52.65c-3.09,2.94-6.18,5.88-9.41,8.68
		C205.31,425.16,186.05,437.08,169.13,442.96L169.13,442.96z M97.51,307.95c-24.12-8.24-44.12-18.97-57.8-30.74
		c-12.35-10.59-18.53-21.03-18.53-29.41c0-18.09,26.91-41.03,71.77-56.77c5.59-1.91,11.32-3.68,17.06-5.44
		c6.18,20.15,14.41,41.33,24.12,62.65c-10,21.62-18.24,43.09-24.41,63.53C105.6,310.6,101.63,309.27,97.51,307.95z M121.48,144.7
		c-9.27-47.65-3.09-83.54,12.5-92.65c16.62-9.56,53.24,4.12,91.92,38.38c2.5,2.21,5,4.56,7.5,6.91
		c-14.41,15.44-28.68,33.09-42.36,52.36c-23.38,2.21-45.59,5.59-66.18,10.29C123.69,154.85,122.51,149.85,121.48,144.7L121.48,144.7
		z M335.47,197.5c-4.85-8.38-9.85-16.62-15.15-24.85c15.88,2.06,31.03,4.71,45.15,7.94c-4.26,13.68-9.56,28.09-15.88,42.65
		C345.18,214.56,340.32,206.03,335.47,197.5L335.47,197.5z M248.26,112.5c9.71,10.59,19.56,22.35,29.12,35.3
		c-19.56-0.88-39.12-0.88-58.68,0C228.4,135,238.26,123.23,248.26,112.5L248.26,112.5z M160.46,197.65
		c-4.85,8.38-9.56,17.06-13.97,25.59c-6.18-14.56-11.47-28.97-15.74-42.94c14.12-3.24,29.27-5.74,45-7.65
		C170.31,180.88,165.31,189.12,160.46,197.65z M176.05,324.28c-16.18-1.76-31.62-4.27-45.74-7.35c4.41-14.12,9.71-28.83,16.03-43.83
		c4.41,8.68,9.12,17.21,14.12,25.59C165.46,307.36,170.6,315.89,176.05,324.28z M248.85,384.28c-10-10.88-20-22.8-29.85-35.74
		c9.56,0.44,19.12,0.59,28.97,0.59c10.15,0,20.15-0.29,30-0.74C268.26,361.63,258.55,373.69,248.85,384.28z M349.88,272.36
		c6.62,15.15,12.21,29.71,16.62,43.68c-14.41,3.24-29.85,5.88-46.33,7.94c5.29-8.38,10.29-16.77,15.3-25.3
		C340.47,290.01,345.32,281.18,349.88,272.36L349.88,272.36z M317.09,288.1c-7.5,13.09-15.44,25.88-23.83,38.38
		c-14.71,1.03-29.85,1.62-45.44,1.62c-15.44,0-30.44-0.44-44.86-1.47c-8.53-12.5-16.62-25.3-24.27-38.38
		c-7.5-13.09-14.56-26.33-21.18-40c6.47-13.53,13.53-26.91,21.03-40l0,0c7.5-13.09,15.59-25.88,23.97-38.24
		c14.71-1.18,29.85-1.76,45.15-1.76s30.44,0.59,45.3,1.76c8.38,12.5,16.32,25.15,23.83,38.09c7.5,13.09,14.71,26.33,21.32,39.86
		C331.79,261.48,324.73,274.86,317.09,288.1L317.09,288.1z M360.91,51.46c16.62,9.56,23.09,48.24,12.65,98.83
		c-0.74,3.24-1.47,6.62-2.21,9.85c-20.59-4.71-42.94-8.24-66.33-10.44c-13.68-19.41-27.8-37.06-41.91-52.36
		c3.68-3.53,7.5-7.06,11.47-10.44C311.06,54.99,345.32,42.49,360.91,51.46L360.91,51.46z"/>
	<path class="st0" d="M247.96,203.38c24.41,0,44.27,19.85,44.27,44.27s-19.85,44.27-44.27,44.27c-24.41,0-44.27-19.85-44.27-44.27
		S223.55,203.38,247.96,203.38"/>
</g>
</svg>
