<?xml version="1.0" encoding="utf-8"?>
<!-- Generator: Adobe Illustrator 23.0.1, SVG Export Plug-In . SVG Version: 6.00 Build 0)  -->
<svg version="1.1" id="Layer_1" xmlns="http://www.w3.org/2000/svg" xmlns:xlink="http://www.w3.org/1999/xlink" x="0px" y="0px"
	 viewBox="0 0 496.06 496.06" style="enable-background:new 0 0 496.06 496.06;" xml:space="preserve">
<style type="text/css">
	.st0{fill:#7253A2;}
</style>
<g>
	<path class="st0" d="M343.73,341.4c18.38-1.88,32.2-17.75,31.57-36.59c-0.63-19-16.49-34.08-35.34-34.08h-1.26
		c-19.63,0.63-34.71,17.12-34.08,36.59c0.63,9.42,4.4,17.75,10.05,23.4c-21.52,42.25-54.34,73.19-103.5,99.1
		c-33.45,17.75-68.16,24.03-102.87,19.63c-28.43-3.77-50.57-16.49-64.39-37.22c-20.26-30.94-22.14-64.39-5.03-97.84
		c11.94-24.03,30.94-41.62,42.88-50.57c-2.51-8.17-6.28-22.14-8.17-32.2C-17.96,297.9-8.54,387.58,19.26,429.98
		c20.89,31.57,63.14,51.2,109.94,51.2c12.56,0,25.29-1.26,37.85-4.4C247.61,460.77,308.87,412.86,343.73,341.4z M454.77,263.19
		c-48.06-56.23-118.73-87.16-199.62-87.16H245.1c-5.65-11.31-17.75-19-30.94-19h-1.26c-19.63,0.63-34.71,17.12-34.08,36.59
		c0.63,19,16.49,34.08,35.34,34.08h1.26c13.82-0.63,25.91-9.42,30.94-21.52h11.31c48.06,0,93.45,13.82,134.6,40.99
		c31.57,20.89,54.34,48.06,66.9,80.88c10.68,26.54,10.05,52.46-1.26,74.6c-17.75,33.45-47.43,51.83-86.54,51.83
		c-25.29,0-49.31-7.54-61.88-13.19c-6.91,6.28-19.63,16.49-28.43,22.77c27.17,12.56,54.97,19.63,81.51,19.63
		c60.62,0,105.54-33.45,122.5-66.9C503.45,379.88,502.2,316.75,454.77,263.19z M134.06,352.24c0.63,19,16.49,34.08,35.34,34.08h1.26
		c19.63-0.63,34.71-17.12,34.08-36.59c-0.63-19-16.49-34.24-35.34-34.24h-1.26c-1.26,0-3.14,0-4.4,0.63
		c-25.91-42.88-36.59-89.68-32.82-140.25c2.36-37.85,15.08-70.67,37.22-97.84c18.38-23.4,53.71-34.71,77.74-35.34
		c66.9-1.26,95.33,82.14,97.22,115.59c8.17,1.88,22.14,6.28,31.57,9.42c-7.7-102.24-70.83-155.33-131.45-155.33
		c-56.85,0-109.31,40.99-130.04,101.61c-29.05,80.88-10.05,158.47,25.29,219.72C135.32,338.26,133.28,345.17,134.06,352.24z"/>
</g>
</svg>
