<?xml version="1.0" encoding="utf-8"?>
<!-- Generator: Adobe Illustrator 23.0.1, SVG Export Plug-In . SVG Version: 6.00 Build 0)  -->
<svg version="1.1" id="Layer_1" xmlns="http://www.w3.org/2000/svg" xmlns:xlink="http://www.w3.org/1999/xlink" x="0px" y="0px"
	 viewBox="0 0 496.06 496.06" style="enable-background:new 0 0 496.06 496.06;" xml:space="preserve">
<style type="text/css">
	.st0{fill:#0D71BA;}
	.st1{fill:#29AAE2;}
	.st2{fill:#B3B4B4;}
	.st3{fill:#E6E6E6;}
	.st4{fill:#FFFFFF;}
</style>
<g>
	<polygon class="st0" points="69.2,446.46 29.35,0 466.71,0 426.86,446.46 247.78,496.06 	"/>
	<polygon class="st1" points="248.44,458.03 392.96,418.35 426.86,37.2 248.44,37.2 	"/>
	<polygon class="st2" points="120.46,201.24 125.26,255.97 248.44,201.24 248.44,146.5 	"/>
	<polygon class="st3" points="384.86,87.97 248.44,146.5 248.44,201.24 380.07,142.7 	"/>
	<polygon class="st3" points="248.44,344.27 247.95,344.27 186.93,327.9 182.96,284.24 127.9,284.24 135.67,370.23 247.95,401.31 
		248.44,401.31 	"/>
	<polygon class="st4" points="248.44,201.24 248.44,255.97 315.25,255.97 309.3,327.4 248.44,344.27 248.44,401.31 360.39,370.23 
		375.11,201.24 	"/>
	<polygon class="st3" points="248.44,201.24 120.46,201.24 125.26,255.97 248.44,255.97 	"/>
	<polygon class="st3" points="248.44,142.7 248.44,87.97 247.95,87.97 110.7,87.97 115.67,142.7 	"/>
	<polygon class="st4" points="248.44,87.97 248.44,142.04 248.44,142.7 380.07,142.7 384.86,87.97 	"/>
</g>
</svg>
