<?xml version="1.0" encoding="utf-8"?>
<!-- Generator: Adobe Illustrator 23.0.1, SVG Export Plug-In . SVG Version: 6.00 Build 0)  -->
<svg version="1.1" id="Layer_1" xmlns="http://www.w3.org/2000/svg" xmlns:xlink="http://www.w3.org/1999/xlink" x="0px" y="0px"
	 viewBox="0 0 566.93 124.86" style="enable-background:new 0 0 566.93 124.86;" xml:space="preserve">
<style type="text/css">
	.st0{fill:#231F20;}
	.st1{fill:#004CDC;}
	.st2{fill:url(#SVGID_1_);}
	.st3{fill:url(#SVGID_2_);}
	.st4{fill:url(#SVGID_3_);}
	.st5{fill:url(#SVGID_4_);}
	.st6{fill:url(#SVGID_5_);}
	.st7{fill:url(#SVGID_6_);}
	.st8{fill:url(#SVGID_7_);}
	.st9{fill:url(#SVGID_8_);}
	.st10{fill:url(#SVGID_9_);}
	.st11{fill:url(#SVGID_10_);}
	.st12{fill:url(#SVGID_11_);}
	.st13{fill:url(#SVGID_12_);}
</style>
<g>
	<g>
		<g>
			<path class="st0" d="M0,42.19V0.43h24.18c2.95,0,5.67,0.5,8.16,1.49c2.49,1,4.63,2.39,6.43,4.19c1.8,1.8,3.21,3.95,4.22,6.46
				c1.01,2.51,1.52,5.28,1.52,8.3c0,3.03-0.51,5.84-1.52,8.44c-1.01,2.6-2.42,4.85-4.22,6.75c-1.8,1.9-3.94,3.39-6.43,4.48
				c-2.49,1.09-5.21,1.64-8.16,1.64H0z M24.18,34.9c1.88,0,3.61-0.34,5.2-1.03c1.59-0.69,2.97-1.64,4.14-2.84
				c1.17-1.21,2.08-2.65,2.73-4.34c0.65-1.69,0.98-3.5,0.98-5.46c0-1.95-0.33-3.76-0.98-5.43c-0.65-1.67-1.56-3.09-2.73-4.28
				c-1.17-1.19-2.55-2.12-4.14-2.79c-1.59-0.67-3.32-1.01-5.2-1.01H7.24V34.9H24.18z"/>
			<path class="st0" d="M50.89,42.19V0.43h7.29v41.76H50.89z"/>
			<path class="st0" d="M65.83,42.19V34.9h31.31c1.95,0,3.46-0.5,4.51-1.49c1.05-1,1.58-2.32,1.58-3.96c0-1.8-0.53-3.15-1.58-4.05
				c-1.05-0.9-2.56-1.35-4.51-1.35H77.95c-1.95,0-3.72-0.3-5.31-0.89c-1.59-0.59-2.93-1.42-4.02-2.47
				c-1.09-1.05-1.93-2.31-2.53-3.76c-0.59-1.46-0.89-3.04-0.89-4.77c0-1.68,0.28-3.25,0.83-4.68c0.55-1.44,1.38-2.67,2.47-3.71
				c1.09-1.03,2.44-1.85,4.05-2.44c1.61-0.59,3.45-0.89,5.51-0.89h29.98v7.3H78.06c-1.69,0-2.99,0.45-3.91,1.35
				c-0.92,0.9-1.38,2.15-1.38,3.76c0,1.61,0.47,2.85,1.41,3.73c0.94,0.88,2.21,1.32,3.82,1.32h19.13c4.25,0,7.48,1,9.68,2.99
				c2.2,1.99,3.3,5.02,3.3,9.08c0,1.76-0.27,3.39-0.8,4.88c-0.54,1.49-1.34,2.79-2.41,3.88c-1.07,1.09-2.42,1.94-4.05,2.56
				c-1.63,0.61-3.53,0.92-5.72,0.92H65.83z"/>
			<path class="st0" d="M155.15,42.19l-10.57-11.6h-15.62v-6.43h17.4c2.64,0,4.63-0.72,5.97-2.15c1.34-1.44,2.01-3.51,2.01-6.23
				c0-2.72-0.7-4.74-2.1-6.06c-1.4-1.32-3.36-1.98-5.89-1.98h-22.75v34.47h-7.24V0.43h29.98c2.37,0,4.5,0.35,6.38,1.06
				c1.88,0.71,3.47,1.72,4.77,3.04c1.3,1.32,2.3,2.92,2.99,4.8c0.69,1.88,1.03,3.98,1.03,6.32c0,3.49-0.76,6.4-2.27,8.76
				c-1.51,2.36-3.63,4.05-6.35,5.08l12.58,12.69H155.15z"/>
			<path class="st0" d="M205.24,0.43h7.12v23.32c0,3.22-0.42,6.02-1.26,8.42c-0.84,2.39-2.16,4.38-3.96,5.95
				c-1.8,1.57-4.13,2.74-6.98,3.5c-2.85,0.77-6.31,1.15-10.37,1.15c-4.02,0-7.46-0.38-10.31-1.15c-2.85-0.77-5.18-1.93-6.98-3.5
				c-1.8-1.57-3.12-3.55-3.96-5.95c-0.84-2.39-1.26-5.2-1.26-8.42V0.43h7.52v23.32c0,2.11,0.26,3.91,0.78,5.4
				c0.52,1.49,1.36,2.72,2.53,3.68c1.17,0.96,2.73,1.66,4.68,2.1c1.95,0.44,4.37,0.66,7.24,0.66s5.28-0.22,7.24-0.66
				c1.95-0.44,3.51-1.14,4.68-2.1c1.17-0.96,2.01-2.18,2.53-3.68c0.52-1.49,0.78-3.29,0.78-5.4V0.43z"/>
			<path class="st0" d="M231.55,30.59v-7.07h16.77c2.57,0,4.57-0.73,6-2.18c1.44-1.45,2.15-3.37,2.15-5.74
				c0-2.41-0.72-4.33-2.15-5.74c-1.44-1.42-3.44-2.13-6-2.13h-22.11v34.47h-7.24V0.43h29.35c2.41,0,4.57,0.35,6.46,1.06
				c1.9,0.71,3.49,1.7,4.8,2.99c1.3,1.28,2.3,2.84,2.99,4.68c0.69,1.84,1.03,3.91,1.03,6.2c0,2.26-0.34,4.32-1.03,6.18
				c-0.69,1.86-1.68,3.46-2.99,4.8c-1.3,1.34-2.9,2.38-4.8,3.13c-1.9,0.75-4.05,1.12-6.46,1.12H231.55z"/>
			<path class="st0" d="M282.15,42.19V7.73H266.3v-7.3h39v7.3h-15.85v34.47H282.15z"/>
			<path class="st0" d="M310.53,42.19V0.43h7.29v41.76H310.53z"/>
			<path class="st0" d="M322.65,0.43h8.9l18.96,32.17l18.9-32.17h8.39l-24.07,39.98c-0.42,0.73-0.92,1.3-1.49,1.72
				c-0.57,0.42-1.25,0.63-2.01,0.63c-0.8,0-1.49-0.21-2.07-0.63c-0.57-0.42-1.07-1-1.49-1.72L322.65,0.43z"/>
			<path class="st0" d="M382.27,42.19V0.43h37.28v7.3h-30.04V34.9h30.1v7.29H382.27z M394.85,24.04V17.9H418v6.15H394.85z"/>
		</g>
		<g>
			<path class="st0" d="M0,124.13V64.94h34.28c4.18,0,8.03,0.71,11.56,2.12c3.53,1.41,6.57,3.39,9.12,5.94
				c2.55,2.55,4.55,5.61,5.98,9.16c1.44,3.56,2.16,7.48,2.16,11.76c0,4.29-0.72,8.28-2.16,11.97c-1.44,3.69-3.43,6.88-5.98,9.57
				c-2.55,2.69-5.59,4.8-9.12,6.35c-3.53,1.55-7.38,2.32-11.56,2.32H0z M34.28,113.79c2.66,0,5.12-0.49,7.37-1.47
				c2.25-0.98,4.21-2.32,5.86-4.03c1.65-1.71,2.94-3.76,3.87-6.15c0.92-2.39,1.38-4.97,1.38-7.73c0-2.77-0.46-5.33-1.38-7.69
				c-0.92-2.36-2.21-4.38-3.87-6.07c-1.66-1.68-3.61-3-5.86-3.95c-2.25-0.95-4.71-1.42-7.37-1.42H10.26v38.51H34.28z"/>
			<path class="st0" d="M126.52,124.13l-14.98-16.45H89.39v-9.12h24.67c3.74,0,6.57-1.02,8.47-3.05c1.9-2.04,2.85-4.98,2.85-8.83
				c0-3.85-0.99-6.72-2.97-8.59c-1.98-1.87-4.76-2.81-8.34-2.81H81.82v48.85H71.56V64.94h42.5c3.36,0,6.38,0.5,9.04,1.51
				c2.66,1.01,4.91,2.44,6.76,4.32c1.85,1.87,3.26,4.14,4.23,6.8c0.98,2.66,1.47,5.65,1.47,8.96c0,4.94-1.07,9.08-3.22,12.42
				c-2.14,3.34-5.14,5.74-9,7.21l17.83,17.99H126.52z"/>
			<path class="st0" d="M172.19,124.13c-4.13,0-7.94-0.77-11.44-2.32c-3.5-1.55-6.54-3.66-9.12-6.35c-2.58-2.69-4.59-5.87-6.02-9.57
				c-1.44-3.69-2.16-7.68-2.16-11.97c0-4.34,0.72-8.3,2.16-11.89c1.44-3.58,3.45-6.63,6.02-9.16c2.58-2.52,5.62-4.48,9.12-5.86
				c3.5-1.38,7.31-2.08,11.44-2.08h14.41c4.29,0,8.21,0.71,11.76,2.12c3.55,1.41,6.61,3.39,9.16,5.94c2.55,2.55,4.53,5.61,5.94,9.16
				c1.41,3.56,2.12,7.48,2.12,11.76c0,4.29-0.72,8.28-2.16,11.97c-1.44,3.69-3.45,6.88-6.02,9.57c-2.58,2.69-5.63,4.8-9.16,6.35
				c-3.53,1.55-7.41,2.32-11.64,2.32H172.19z M186.6,113.79c2.71,0,5.21-0.49,7.49-1.47c2.28-0.98,4.25-2.32,5.9-4.03
				c1.65-1.71,2.94-3.76,3.87-6.15c0.92-2.39,1.38-4.97,1.38-7.73c0-2.77-0.46-5.33-1.38-7.69c-0.92-2.36-2.21-4.38-3.87-6.07
				c-1.66-1.68-3.62-3-5.9-3.95c-2.28-0.95-4.78-1.42-7.49-1.42h-14.41c-2.66,0-5.12,0.48-7.37,1.42c-2.25,0.95-4.19,2.27-5.82,3.95
				c-1.63,1.68-2.9,3.69-3.83,6.03c-0.92,2.33-1.38,4.91-1.38,7.73c0,2.77,0.46,5.35,1.38,7.73c0.92,2.39,2.2,4.44,3.83,6.15
				c1.63,1.71,3.57,3.05,5.82,4.03c2.25,0.98,4.71,1.47,7.37,1.47H186.6z"/>
			<path class="st0" d="M233.58,80.81v43.31h-9.85V70.39c0-1.9,0.48-3.41,1.43-4.52c0.95-1.11,2.24-1.67,3.87-1.67
				c0.76,0,1.49,0.16,2.2,0.49c0.7,0.33,1.44,0.87,2.2,1.63l41.77,41.44V64.45h9.85v54.22c0,1.95-0.48,3.47-1.42,4.56
				c-0.95,1.08-2.19,1.63-3.7,1.63c-1.68,0-3.26-0.73-4.72-2.2L233.58,80.81z"/>
			<path class="st0" d="M295.05,124.13V64.94h52.84v10.34h-42.58v38.51h42.66v10.34H295.05z M312.88,98.4v-8.71h32.81v8.71H312.88z"
				/>
			<path class="st0" d="M356.84,124.13v-10.34h44.37c2.77,0,4.9-0.71,6.39-2.12c1.49-1.41,2.24-3.28,2.24-5.62
				c0-2.55-0.75-4.46-2.24-5.74c-1.49-1.27-3.62-1.91-6.39-1.91h-27.19c-2.77,0-5.28-0.42-7.53-1.26c-2.25-0.84-4.15-2.01-5.7-3.5
				c-1.55-1.49-2.74-3.27-3.58-5.33c-0.84-2.06-1.26-4.32-1.26-6.76c0-2.39,0.39-4.6,1.18-6.64c0.79-2.04,1.95-3.79,3.5-5.25
				c1.55-1.47,3.46-2.62,5.74-3.46c2.28-0.84,4.89-1.26,7.82-1.26h45.43v10.34h-45.43c-2.39,0-4.23,0.64-5.54,1.91
				c-1.3,1.28-1.95,3.05-1.95,5.33c0,2.28,0.66,4.04,1.99,5.29c1.33,1.25,3.13,1.87,5.41,1.87h27.11c6.03,0,10.6,1.41,13.72,4.23
				c3.12,2.82,4.68,7.11,4.68,12.86c0,2.5-0.38,4.8-1.14,6.92c-0.76,2.12-1.9,3.95-3.42,5.5s-3.43,2.76-5.74,3.62
				c-2.31,0.87-5.01,1.3-8.1,1.3H356.84z"/>
		</g>
	</g>
</g>
<g>
	<path class="st1" d="M511.29,39.16c-3.61,1.05-7.3,1.36-11.09,0.71c-4.86-0.84-9.21-2.94-13.25-5.66
		c-0.93-0.62-2.22-1.52-3.66-2.54l-11.07,6.29c0.98,1.48,2,3.12,3.56,5.5c2.36,3.6,4.43,7.35,5.72,11.49
		c1.22,3.88,1.55,7.83,0.81,11.85c-0.04,0.2-0.08,0.39-0.12,0.59L511.29,39.16z"/>
	<path class="st1" d="M445.86,91.7c-2.5,4.13-3.45,8.95-2.81,13.63l4.02-3.9c0.14-2.42,0.82-4.76,2.07-7.02
		c2.14-3.86,5.34-6.5,9.53-7.89c1.53-0.5,3.07-0.78,4.63-0.83l4-3.88C459.45,80.5,450.69,83.73,445.86,91.7z"/>
	<path class="st1" d="M533.69,3.88c-7.83,5.7-9.89,14.85-8.28,21.59l3.7-3.58c-0.14-2.45,0.25-4.86,1.22-7.21
		c1.81-4.41,4.94-7.57,9.36-9.29c2.59-1.01,5.16-1.41,7.67-1.2l3.66-3.54C545.15-0.8,538.7,0.24,533.69,3.88z"/>
	<path class="st1" d="M538.98,82.83c0.08,0.12,0.16,0.24,0.24,0.36l1.38-0.83C540.06,82.49,539.51,82.65,538.98,82.83z"/>
	<path class="st1" d="M562.67,19.77c0.27,3.1-0.35,6.1-1.82,8.9c-1.89,3.6-4.66,6.19-8.29,7.75l-3.19,5.29
		c5.18-0.85,10.24-3.67,13.69-8.63c4-5.74,4.84-12.6,2.78-18.71l-3.18,5.29C562.66,19.69,562.66,19.73,562.67,19.77z"/>
	<path class="st1" d="M469.72,40.96c-0.25-0.39-0.5-0.77-0.75-1.15l-3.73,2.12C466.84,41.79,468.36,41.46,469.72,40.96z"/>
	<path class="st1" d="M460.07,18.98c-0.7,1.1-0.79,2.43-0.32,3.71l4.09-5.76C462.38,16.89,460.94,17.61,460.07,18.98z"/>
	<path class="st1" d="M446.86,18.62c0.46-3.69,2.09-6.86,4.71-9.46c3.03-3.01,6.7-4.65,11-4.92c3.12-0.2,6.2,0.54,8.88,1.99
		l2.45-3.45c-8.53-4.91-19.52-3.26-26.28,4.48c-6.66,7.63-6.85,19.18-0.41,27.03c0.78,0.95,1.61,1.8,2.48,2.56l2.46-3.46
		C447.88,29.52,446.12,24.53,446.86,18.62z"/>
	<path class="st1" d="M525.11,91.71l11.32-6.83c-0.31-0.45-0.65-0.94-1.03-1.48c-2.09-2.95-4.03-5.98-5.58-9.22l-9.06,15.05
		C522.57,90.29,523.92,91.03,525.11,91.71z"/>
	<path class="st1" d="M561.49,98.63c1.69,6.49-0.14,12.18-5.11,16.74c-2.96,2.71-6.51,4.1-10.52,4.22
		c-7.25,0.22-13.71-4.07-16.25-10.61l-3.21,3.09c1.53,3.13,3.9,5.98,7.14,8.16c8.51,5.71,19.67,4.52,26.77-2.77
		c7.07-7.25,8-18.41,2.08-26.79c-1.97-2.79-4.43-4.89-7.12-6.34l-3.24,3.11C556.82,89.44,560.06,93.17,561.49,98.63z"/>
	<path class="st1" d="M547.27,106.82c1.65-0.71,2.51-2.03,2.57-3.84c0.05-1.39-0.57-2.49-1.48-3.48c-1.39-1.51-2.79-3.01-4.16-4.54
		l-6.73,6.47c1.65,1.48,3.3,2.97,4.95,4.45C543.84,107.15,545.47,107.59,547.27,106.82z"/>
	<path class="st1" d="M479.49,15.85c0.93,2.95,1.05,5.93,0.4,8.95c-0.04,0.2,0.05,0.55,0.2,0.66c1.06,0.74,2.15,1.43,3.29,2.18
		c2.95-8.58,0.01-19.24-9.25-24.73c-0.08-0.05-0.15-0.09-0.23-0.13l-2.45,3.45C475.18,8.25,478.17,11.66,479.49,15.85z"/>
	
		<linearGradient id="SVGID_1_" gradientUnits="userSpaceOnUse" x1="56.514" y1="185.6605" x2="56.9288" y2="185.6605" gradientTransform="matrix(-234 0 0 234 13763.833 -43429.3516)">
		<stop  offset="0" style="stop-color:#00B1FF"/>
		<stop  offset="0.9997" style="stop-color:#0065FF"/>
		<stop  offset="1" style="stop-color:#0065FF"/>
	</linearGradient>
	<path class="st2" d="M479.49,15.85c0.93,2.95,1.05,5.93,0.4,8.95c-0.04,0.2,0.05,0.55,0.2,0.66c1.06,0.74,2.15,1.43,3.29,2.18
		c2.95-8.58,0.01-19.24-9.25-24.73c-0.08-0.05-0.15-0.09-0.23-0.13l-2.45,3.45C475.18,8.25,478.17,11.66,479.49,15.85z"/>
	<path class="st1" d="M466.53,37.52c-4.96,0.92-9.49-0.16-13.4-3.28c-0.34-0.27-0.67-0.56-0.99-0.84l-2.46,3.46
		c4.7,4.09,10.56,5.52,15.55,5.08l3.73-2.12c-0.39-0.59-0.77-1.17-1.1-1.78C467.52,37.42,467.12,37.41,466.53,37.52z"/>
	
		<linearGradient id="SVGID_2_" gradientUnits="userSpaceOnUse" x1="56.514" y1="185.7566" x2="56.9288" y2="185.7566" gradientTransform="matrix(-234 0 0 234 13763.833 -43429.3516)">
		<stop  offset="0" style="stop-color:#00B1FF"/>
		<stop  offset="0.9997" style="stop-color:#0065FF"/>
		<stop  offset="1" style="stop-color:#0065FF"/>
	</linearGradient>
	<path class="st3" d="M466.53,37.52c-4.96,0.92-9.49-0.16-13.4-3.28c-0.34-0.27-0.67-0.56-0.99-0.84l-2.46,3.46
		c4.7,4.09,10.56,5.52,15.55,5.08l3.73-2.12c-0.39-0.59-0.77-1.17-1.1-1.78C467.52,37.42,467.12,37.41,466.53,37.52z"/>
	<path class="st1" d="M473.71,24.44c-2.35-2.08-4.63-4.24-6.96-6.33c-0.86-0.77-1.89-1.16-2.91-1.18l-4.09,5.76
		c0.25,0.67,0.64,1.32,1.19,1.91c1.99,2.18,3.99,4.36,5.95,6.56c2.65,2.98,3.96,4.72,5.34,6.8l11.07-6.29
		C479.82,29.2,475.53,26.05,473.71,24.44z"/>
	
		<linearGradient id="SVGID_3_" gradientUnits="userSpaceOnUse" x1="56.514" y1="185.7128" x2="56.9288" y2="185.7128" gradientTransform="matrix(-234 0 0 234 13763.833 -43429.3516)">
		<stop  offset="0" style="stop-color:#00B1FF"/>
		<stop  offset="0.9997" style="stop-color:#0065FF"/>
		<stop  offset="1" style="stop-color:#0065FF"/>
	</linearGradient>
	<path class="st4" d="M473.71,24.44c-2.35-2.08-4.63-4.24-6.96-6.33c-0.86-0.77-1.89-1.16-2.91-1.18l-4.09,5.76
		c0.25,0.67,0.64,1.32,1.19,1.91c1.99,2.18,3.99,4.36,5.95,6.56c2.65,2.98,3.96,4.72,5.34,6.8l11.07-6.29
		C479.82,29.2,475.53,26.05,473.71,24.44z"/>
	<path class="st1" d="M467.69,86.13c0.19,0.04,0.53-0.03,0.62-0.16c0.75-1.08,1.45-2.19,2.2-3.33c-1.04-0.36-2.12-0.63-3.21-0.82
		l-4,3.88C464.75,85.65,466.22,85.79,467.69,86.13z"/>
	
		<linearGradient id="SVGID_4_" gradientUnits="userSpaceOnUse" x1="56.8759" y1="185.5519" x2="57.2907" y2="185.5519" gradientTransform="matrix(-300 0 0 300 17629.7012 -55581.5859)">
		<stop  offset="0" style="stop-color:#00B1FF"/>
		<stop  offset="0.9997" style="stop-color:#0065FF"/>
		<stop  offset="1" style="stop-color:#0065FF"/>
	</linearGradient>
	<path class="st5" d="M467.69,86.13c0.19,0.04,0.53-0.03,0.62-0.16c0.75-1.08,1.45-2.19,2.2-3.33c-1.04-0.36-2.12-0.63-3.21-0.82
		l-4,3.88C464.75,85.65,466.22,85.79,467.69,86.13z"/>
	<path class="st1" d="M449.6,117.94c7.08,6.64,18.32,7.44,26.29,1.8c8.45-5.98,10.56-16.2,7.84-23.84c-1.08,0.71-2.13,1.41-3.2,2.09
		c-0.32,0.2-0.39,0.39-0.3,0.77c0.53,2.29,0.65,4.6,0.13,6.9c-1.56,6.96-5.8,11.47-12.72,13.21c-4.73,1.19-9.22,0.29-13.26-2.47
		c-3.6-2.46-5.94-5.85-6.9-10.11c-0.37-1.65-0.51-3.27-0.42-4.86l-4.02,3.9C443.68,109.95,445.85,114.42,449.6,117.94z"/>
	
		<linearGradient id="SVGID_5_" gradientUnits="userSpaceOnUse" x1="56.8759" y1="185.6376" x2="57.2907" y2="185.6376" gradientTransform="matrix(-300 0 0 300 17629.7012 -55581.5859)">
		<stop  offset="0" style="stop-color:#00B1FF"/>
		<stop  offset="0.9997" style="stop-color:#0065FF"/>
		<stop  offset="1" style="stop-color:#0065FF"/>
	</linearGradient>
	<path class="st6" d="M449.6,117.94c7.08,6.64,18.32,7.44,26.29,1.8c8.45-5.98,10.56-16.2,7.84-23.84c-1.08,0.71-2.13,1.41-3.2,2.09
		c-0.32,0.2-0.39,0.39-0.3,0.77c0.53,2.29,0.65,4.6,0.13,6.9c-1.56,6.96-5.8,11.47-12.72,13.21c-4.73,1.19-9.22,0.29-13.26-2.47
		c-3.6-2.46-5.94-5.85-6.9-10.11c-0.37-1.65-0.51-3.27-0.42-4.86l-4.02,3.9C443.68,109.95,445.85,114.42,449.6,117.94z"/>
	<path class="st1" d="M551.28,36.91c-2.99,1.03-6.05,1.19-9.14,0.48c-0.21-0.05-0.56-0.02-0.65,0.1c-0.76,1.1-1.48,2.22-2.22,3.36
		c3.13,1.12,6.64,1.42,10.09,0.86l3.19-5.29C552.14,36.6,551.72,36.76,551.28,36.91z"/>
	
		<linearGradient id="SVGID_6_" gradientUnits="userSpaceOnUse" x1="56.8759" y1="185.4026" x2="57.2907" y2="185.4026" gradientTransform="matrix(-300 0 0 300 17629.7012 -55581.5859)">
		<stop  offset="0" style="stop-color:#00B1FF"/>
		<stop  offset="0.9997" style="stop-color:#0065FF"/>
		<stop  offset="1" style="stop-color:#0065FF"/>
	</linearGradient>
	<path class="st7" d="M551.28,36.91c-2.99,1.03-6.05,1.19-9.14,0.48c-0.21-0.05-0.56-0.02-0.65,0.1c-0.76,1.1-1.48,2.22-2.22,3.36
		c3.13,1.12,6.64,1.42,10.09,0.86l3.19-5.29C552.14,36.6,551.72,36.76,551.28,36.91z"/>
	<path class="st1" d="M554.89,6.82c4.7,2.98,7.25,7.35,7.77,12.83l3.18-5.29c-1.07-3.15-2.9-6.1-5.48-8.59
		c-2.64-2.56-5.89-4.27-9.35-5.12l-3.66,3.54C549.94,4.41,552.46,5.28,554.89,6.82z"/>
	
		<linearGradient id="SVGID_7_" gradientUnits="userSpaceOnUse" x1="56.8759" y1="185.3058" x2="57.2907" y2="185.3058" gradientTransform="matrix(-300 0 0 300 17629.7012 -55581.5859)">
		<stop  offset="0" style="stop-color:#00B1FF"/>
		<stop  offset="0.9997" style="stop-color:#0065FF"/>
		<stop  offset="1" style="stop-color:#0065FF"/>
	</linearGradient>
	<path class="st8" d="M554.89,6.82c4.7,2.98,7.25,7.35,7.77,12.83l3.18-5.29c-1.07-3.15-2.9-6.1-5.48-8.59
		c-2.64-2.56-5.89-4.27-9.35-5.12l-3.66,3.54C549.94,4.41,552.46,5.28,554.89,6.82z"/>
	<path class="st1" d="M529.09,25.19c0.35-0.21,0.43-0.42,0.35-0.82c-0.17-0.83-0.28-1.66-0.33-2.49l-3.7,3.58
		c0.15,0.61,0.32,1.2,0.52,1.77C526.99,26.54,528.03,25.85,529.09,25.19z"/>
	
		<linearGradient id="SVGID_8_" gradientUnits="userSpaceOnUse" x1="56.8759" y1="185.3538" x2="57.2907" y2="185.3538" gradientTransform="matrix(-300 0 0 300 17629.7012 -55581.5859)">
		<stop  offset="0" style="stop-color:#00B1FF"/>
		<stop  offset="0.9997" style="stop-color:#0065FF"/>
		<stop  offset="1" style="stop-color:#0065FF"/>
	</linearGradient>
	<path class="st9" d="M529.09,25.19c0.35-0.21,0.43-0.42,0.35-0.82c-0.17-0.83-0.28-1.66-0.33-2.49l-3.7,3.58
		c0.15,0.61,0.32,1.2,0.52,1.77C526.99,26.54,528.03,25.85,529.09,25.19z"/>
	<path class="st1" d="M527.53,55.05c1.17-4.16,3.21-7.89,5.58-11.47c2.99-4.52,2.67-4.95,6.25-9.01c3.03-3.44,6.15-6.81,9.23-10.22
		c1.1-1.22,1.5-2.64,1.12-4.23c-0.77-3.19-4.69-4.21-7.26-1.93c-4.02,3.58-15.92,13.05-20.03,15.66c-2.91,1.84-5.91,3.48-9.15,4.66
		c-0.65,0.24-1.31,0.45-1.97,0.65l-29.1,28.22c-0.82,3.89-2.48,7.44-4.52,10.83c-1.94,3.21-9.7,13.45-13.2,17.45
		c-1.28,1.47-2.68,2.85-3.94,4.34c-1.72,2.05-1.37,4.91,0.7,6.37c1.73,1.22,3.97,1.04,5.64-0.47c2.54-2.31,5.07-4.63,7.62-6.93
		c4.65-4.18,5.65-4.48,10.82-8.02c2.87-1.97,5.87-3.72,9.1-5.04c4.59-1.88,9.32-2.52,14.22-1.61c4.26,0.8,8.13,2.56,11.83,4.74
		c0.1,0.06,0.2,0.12,0.3,0.17l9.06-15.05c-0.57-1.2-1.1-2.42-1.55-3.68C526.42,65.42,526.06,60.28,527.53,55.05z"/>
	
		<linearGradient id="SVGID_9_" gradientUnits="userSpaceOnUse" x1="56.8759" y1="185.4789" x2="57.2907" y2="185.4789" gradientTransform="matrix(-300 0 0 300 17629.7012 -55581.5859)">
		<stop  offset="0" style="stop-color:#00B1FF"/>
		<stop  offset="0.9997" style="stop-color:#0065FF"/>
		<stop  offset="1" style="stop-color:#0065FF"/>
	</linearGradient>
	<path class="st10" d="M527.53,55.05c1.17-4.16,3.21-7.89,5.58-11.47c2.99-4.52,2.67-4.95,6.25-9.01c3.03-3.44,6.15-6.81,9.23-10.22
		c1.1-1.22,1.5-2.64,1.12-4.23c-0.77-3.19-4.69-4.21-7.26-1.93c-4.02,3.58-15.92,13.05-20.03,15.66c-2.91,1.84-5.91,3.48-9.15,4.66
		c-0.65,0.24-1.31,0.45-1.97,0.65l-29.1,28.22c-0.82,3.89-2.48,7.44-4.52,10.83c-1.94,3.21-9.7,13.45-13.2,17.45
		c-1.28,1.47-2.68,2.85-3.94,4.34c-1.72,2.05-1.37,4.91,0.7,6.37c1.73,1.22,3.97,1.04,5.64-0.47c2.54-2.31,5.07-4.63,7.62-6.93
		c4.65-4.18,5.65-4.48,10.82-8.02c2.87-1.97,5.87-3.72,9.1-5.04c4.59-1.88,9.32-2.52,14.22-1.61c4.26,0.8,8.13,2.56,11.83,4.74
		c0.1,0.06,0.2,0.12,0.3,0.17l9.06-15.05c-0.57-1.2-1.1-2.42-1.55-3.68C526.42,65.42,526.06,60.28,527.53,55.05z"/>
	<path class="st1" d="M541.9,86.35c2.09-0.47,4.19-0.52,6.29-0.09c1.37,0.29,2.64,0.68,3.82,1.17l3.24-3.11
		c-4.67-2.52-10.01-3.09-14.65-1.97l-1.38,0.83c0.63,0.95,1.26,1.88,1.84,2.84C541.29,86.42,541.54,86.44,541.9,86.35z"/>
	
		<linearGradient id="SVGID_10_" gradientUnits="userSpaceOnUse" x1="56.2814" y1="185.1969" x2="56.6962" y2="185.1969" gradientTransform="matrix(-162 0 0 162 9684.5225 -29917.2773)">
		<stop  offset="0" style="stop-color:#00B1FF"/>
		<stop  offset="0.9997" style="stop-color:#0065FF"/>
		<stop  offset="1" style="stop-color:#0065FF"/>
	</linearGradient>
	<path class="st11" d="M541.9,86.35c2.09-0.47,4.19-0.52,6.29-0.09c1.37,0.29,2.64,0.68,3.82,1.17l3.24-3.11
		c-4.67-2.52-10.01-3.09-14.65-1.97l-1.38,0.83c0.63,0.95,1.26,1.88,1.84,2.84C541.29,86.42,541.54,86.44,541.9,86.35z"/>
	<path class="st1" d="M532.29,96.85c1.74,1.51,3.45,3.04,5.17,4.58l6.73-6.47c-0.45-0.5-0.9-1-1.34-1.51
		c-3.49-3.95-3.95-5-6.41-8.58l-11.32,6.83C527.43,93.02,529.11,94.1,532.29,96.85z"/>
	
		<linearGradient id="SVGID_11_" gradientUnits="userSpaceOnUse" x1="56.2814" y1="185.2496" x2="56.6962" y2="185.2496" gradientTransform="matrix(-162 0 0 162 9684.5225 -29917.2773)">
		<stop  offset="0" style="stop-color:#00B1FF"/>
		<stop  offset="0.9997" style="stop-color:#0065FF"/>
		<stop  offset="1" style="stop-color:#0065FF"/>
	</linearGradient>
	<path class="st12" d="M532.29,96.85c1.74,1.51,3.45,3.04,5.17,4.58l6.73-6.47c-0.45-0.5-0.9-1-1.34-1.51
		c-3.49-3.95-3.95-5-6.41-8.58l-11.32,6.83C527.43,93.02,529.11,94.1,532.29,96.85z"/>
	<path class="st1" d="M529.24,107.93c-0.88-2.81-1.04-5.66-0.45-8.55c0.04-0.2-0.02-0.53-0.15-0.63c-1.1-0.76-2.23-1.47-3.36-2.2
		c-1.63,4.85-1.3,10.54,1.13,15.51l3.21-3.09C529.47,108.64,529.35,108.29,529.24,107.93z"/>
	
		<linearGradient id="SVGID_12_" gradientUnits="userSpaceOnUse" x1="56.2814" y1="185.3184" x2="56.6962" y2="185.3184" gradientTransform="matrix(-162 0 0 162 9684.5225 -29917.2773)">
		<stop  offset="0" style="stop-color:#00B1FF"/>
		<stop  offset="0.9997" style="stop-color:#0065FF"/>
		<stop  offset="1" style="stop-color:#0065FF"/>
	</linearGradient>
	<path class="st13" d="M529.24,107.93c-0.88-2.81-1.04-5.66-0.45-8.55c0.04-0.2-0.02-0.53-0.15-0.63c-1.1-0.76-2.23-1.47-3.36-2.2
		c-1.63,4.85-1.3,10.54,1.13,15.51l3.21-3.09C529.47,108.64,529.35,108.29,529.24,107.93z"/>
</g>
</svg>
