<?xml version="1.0" encoding="utf-8"?>
<!-- Generator: Adobe Illustrator 23.0.1, SVG Export Plug-In . SVG Version: 6.00 Build 0)  -->
<svg version="1.1" id="Layer_1" xmlns="http://www.w3.org/2000/svg" xmlns:xlink="http://www.w3.org/1999/xlink" x="0px" y="0px"
	 viewBox="0 0 30 30" style="enable-background:new 0 0 30 30;" xml:space="preserve">
<style type="text/css">
	.st0{fill:#EE3248;}
</style>
<g>
	<path class="st0" d="M14.4,11.3c0,1.7-1.4,3.1-3.1,3.1c-1.7,0-3.1-1.4-3.1-3.1c0-1.7,1.4-3.1,3.1-3.1C13,8.2,14.4,9.6,14.4,11.3
		L14.4,11.3z M14.4,18.7c0,1.7-1.4,3.1-3.1,3.1c-1.7,0-3.1-1.4-3.1-3.1c0-1.7,1.4-3.1,3.1-3.1C13,15.6,14.4,17,14.4,18.7L14.4,18.7z
		 M21.8,18.7c0,1.7-1.4,3.1-3.1,3.1c-1.7,0-3.1-1.4-3.1-3.1c0-1.7,1.4-3.1,3.1-3.1C20.4,15.6,21.8,17,21.8,18.7L21.8,18.7z
		 M21.8,11.3c0,1.7-1.4,3.1-3.1,3.1c-1.7,0-3.1-1.4-3.1-3.1c0-1.7,1.4-3.1,3.1-3.1C20.4,8.2,21.8,9.6,21.8,11.3L21.8,11.3z M15,26
		C8.9,26,4,21.1,4,15C4,8.9,8.9,4,15,4c6.1,0,11,4.9,11,11C26,21.1,21.1,26,15,26L15,26z M15,0C6.7,0,0,6.7,0,15c0,8.3,6.7,15,15,15
		c8.3,0,15-6.7,15-15C30,6.7,23.3,0,15,0L15,0z"/>
</g>
</svg>
