<?xml version="1.0" encoding="utf-8"?>
<!-- Generator: Adobe Illustrator 23.0.1, SVG Export Plug-In . SVG Version: 6.00 Build 0)  -->
<svg version="1.1" id="Layer_1" xmlns="http://www.w3.org/2000/svg" xmlns:xlink="http://www.w3.org/1999/xlink" x="0px" y="0px"
	 viewBox="0 0 496.06 496.06" style="enable-background:new 0 0 496.06 496.06;" xml:space="preserve">
<style type="text/css">
	.st0{fill:url(#SVGID_1_);}
	.st1{fill:#D8A1FF;}
</style>
<g>
	
		<radialGradient id="SVGID_1_" cx="-281.4164" cy="348.0311" r="0.1508" gradientTransform="matrix(2291.6716 0 0 2218.7549 645084.4375 -772069.75)" gradientUnits="userSpaceOnUse">
		<stop  offset="0" style="stop-color:#442F55;stop-opacity:0.98"/>
		<stop  offset="1" style="stop-color:#12002C"/>
	</radialGradient>
	<path class="st0" d="M20.67,26.87h454.72v442.32H20.67V26.87z"/>
	<path class="st1" d="M20.67,26.87h454.72v442.32H20.67V26.87z M0,489.86h496.06V6.2H0V489.86z M350.96,239.35
		c10.54,0,14.26,0,15.29-0.41c0-1.45,0.41-2.48,0.41-3.51c0-11.16-5.37-31.83-26.87-31.83c-19.84,0-28.32,17.36-30.38,35.76
		L350.96,239.35L350.96,239.35z M309.01,267.67c0.41,27.9,13.64,46.71,45.06,46.71c12.19,0,22.74-1.65,33.69-6.41
		c1.45-0.62,2.48-0.41,2.48,1.45v25.84c0,2.07-0.62,3.1-2.07,4.13c-10.95,5.37-24.6,7.85-41.55,7.85
		c-54.57,0-75.03-40.3-75.03-85.16c0-48.78,25.22-88.67,69.66-88.67c45.06,0,60.77,37.82,60.77,68.62c0,9.92-0.62,17.98-1.65,21.91
		c-0.41,1.65-1.03,2.27-2.69,2.69c-4.13,0.62-16.33,1.45-34.52,1.45h-54.15L309.01,267.67L309.01,267.67z M198.22,246.58
		c-5.79-22.94-19.84-72.96-25.01-97.15h-0.41c-4.34,24.18-15.71,65.11-24.18,97.15H198.22z M140.14,280.07l-16.33,61.8
		c-0.41,1.65-1.03,2.27-3.1,2.27H90.32c-2.07,0-2.48-0.62-2.07-3.1l58.7-205.25c1.03-3.72,1.65-6.61,2.07-16.95
		c0-1.45,0.62-2.07,1.65-2.07h43.41c1.45,0,2.07,0.41,2.48,2.07l65.73,222.61c0.41,1.65,0,2.69-1.65,2.69h-34.1
		c-1.65,0-2.69-0.62-3.1-2.07l-16.95-62.01L140.14,280.07L140.14,280.07z"/>
</g>
</svg>
