<?xml version="1.0" encoding="utf-8"?>
<!-- Generator: Adobe Illustrator 23.0.1, SVG Export Plug-In . SVG Version: 6.00 Build 0)  -->
<svg version="1.1" id="Layer_1" xmlns="http://www.w3.org/2000/svg" xmlns:xlink="http://www.w3.org/1999/xlink" x="0px" y="0px"
	 viewBox="0 0 100 100" style="enable-background:new 0 0 100 100;" xml:space="preserve">
<g>
	<path d="M73.6,42.7c4.1,0.8,7,2.5,8.7,5.2c1.7,2.7,2.5,7,2.5,12.8c0,11.5-3.5,21-10.4,28.3c-6.9,7.3-15.8,11-26.6,11
		c-4.3,0-8.4-0.8-12.4-2.3c-4-1.5-7.5-3.7-10.3-6.4c-3.3-3-5.8-6.2-7.4-9.6c-1.6-3.4-2.5-6.8-2.5-10.3c0-3.9,0.8-7,2.5-9.1
		c1.7-2.2,4.4-3.6,8-4.4c-0.7-1.6-1.2-3-1.5-4.1c-0.3-1.1-0.5-1.9-0.5-2.5c0-2.1,1.1-4.2,3.3-6.3c2.2-2.2,4.2-3.2,6.1-3.2
		c0.8,0,1.7,0.1,2.6,0.4c0.9,0.3,2,0.8,3.2,1.5c-3.5-10-6.1-17.7-7.7-23.1c-1.6-5.4-2.4-9.2-2.4-11.2c0-2.8,0.7-5.1,2.2-6.8
		C32.5,0.8,34.5,0,37,0c4.3,0,9.8,9.6,16.3,28.8c1.1,3.3,2,5.8,2.6,7.6c0.5-1.4,1.2-3.4,2.1-6c6.6-19,12.3-28.6,17-28.6
		c2.3,0,4.2,0.8,5.6,2.4c1.4,1.6,2.1,3.7,2.1,6.4c0,2-0.8,5.7-2.3,11.1C79,27,76.7,34,73.6,42.7z M24.4,70.7
		c0.6,0.8,1.5,1.9,2.7,3.4c3,4.2,5.8,6.3,8.4,6.3c0.9,0,1.6-0.3,2.3-0.8c0.7-0.5,1-1.1,1-1.7c0-0.7-0.5-1.8-1.4-3.4
		c-0.9-1.6-2.2-3.4-3.8-5.4c-1.8-2.3-3.4-4-4.6-5.1c-1.2-1.1-2.2-1.6-2.9-1.6c-1.6,0-3.1,0.9-4.4,2.6c-1.4,1.7-2,3.7-2,6.1
		c0,1.9,0.5,4,1.4,6.3c0.9,2.3,2.3,4.6,4.1,7c2.7,3.6,6.1,6.4,10.1,8.3c4,1.9,8.4,2.9,13.3,2.9c8.9,0,16.4-3.3,22.4-10
		c6-6.7,9-15,9-25c0-3.1-0.2-5.5-0.7-7.3c-0.5-1.8-1.2-3.1-2.3-3.9c-1.9-1.6-5.5-3-11-4.2c-5.4-1.2-11.1-1.9-17-1.9
		c-1.6,0-2.8,0.3-3.5,0.8c-0.7,0.5-1,1.5-1,2.8c0,3.1,1.7,5.4,5.2,6.8c3.5,1.4,9.1,2.1,16.9,2.1h2.8c0.6,0,1.2,0.2,1.5,0.7
		c0.4,0.5,0.7,1.2,0.8,2.2C71.1,59.2,69.5,60,67,61c-2.4,0.9-4.3,1.9-5.6,2.8c-2.7,2-5,4.4-6.6,7.2c-1.7,2.8-2.5,5.4-2.5,7.9
		c0,1.5,0.4,3.3,1.1,5.5c0.7,2.1,1.1,3.4,1.1,3.9v0.5l-0.1,0.6c-2-0.1-3.6-1.3-4.8-3.5c-1.2-2.2-1.8-5.2-1.8-8.9v-0.6
		c-0.4,0.3-0.7,0.5-1.1,0.7c-0.3,0.1-0.7,0.2-1.1,0.2c-0.4,0-0.8,0-1.2-0.1c-0.4-0.1-0.8-0.2-1.2-0.3c0.1,0.5,0.2,1,0.3,1.5
		c0.1,0.5,0.1,0.9,0.1,1.1c0,1.7-0.7,3.1-2,4.4c-1.3,1.2-2.9,1.8-4.7,1.8c-2.9,0-5.8-1.4-8.8-4.2c-3-2.8-4.5-5.6-4.5-8.3
		c0-0.5,0.1-1,0.2-1.3C23.9,71.3,24.1,70.9,24.4,70.7z M45,72.3c0.8,0,1.5-0.4,2.1-1.1c0.6-0.7,1-1.5,1-2.3c0-0.9-0.6-2.9-1.9-6.1
		c-1.3-3.2-2.8-6.3-4.7-9.4c-1.4-2.3-2.7-4-4.1-5.2c-1.3-1.2-2.6-1.8-3.8-1.8c-1,0-2,0.6-3.2,1.8c-1.2,1.2-1.8,2.3-1.8,3.4
		c0,1.1,0.6,2.7,1.7,4.9c1.1,2.2,2.7,4.5,4.6,7c2,2.7,3.9,4.8,5.7,6.3C42.5,71.6,43.9,72.3,45,72.3z M51.7,39.1l-7.4-21.4
		c-1.9-5.4-3.4-9-4.5-10.7c-1.1-1.7-2.2-2.5-3.4-2.5c-1,0-1.7,0.4-2.3,1.1c-0.6,0.7-0.9,1.7-0.9,3c0,2.1,0.8,5.8,2.4,11
		c1.6,5.2,4,12.1,7.2,20.5c0.3-0.5,0.7-0.9,1.2-1.1c0.5-0.2,1.2-0.3,2.1-0.3c0.3,0,0.8,0,1.6,0.1C48.5,38.9,49.8,39,51.7,39.1z
		 M59.5,60c-2-0.1-3.8-0.3-5.6-0.6c-1.8-0.3-3.4-0.8-5-1.4c0.7,1.5,1.4,2.9,2,4.4c0.6,1.5,1,2.9,1.4,4.3c1.1-1.4,2.3-2.6,3.5-3.7
		C56.9,61.8,58.1,60.8,59.5,60z M68.6,41.5c3.1-8.3,5.5-15.2,7.2-20.6c1.7-5.4,2.6-8.8,2.6-10c0-1.3-0.3-2.4-0.9-3.1
		c-0.6-0.7-1.4-1.1-2.4-1.1c-1.3,0-2.6,1.1-3.9,3.2c-1.3,2.1-2.8,5.6-4.4,10.3L60,40L68.6,41.5z"/>
</g>
</svg>
