<?xml version="1.0" encoding="utf-8"?>
<!-- Generator: Adobe Illustrator 23.0.1, SVG Export Plug-In . SVG Version: 6.00 Build 0)  -->
<svg version="1.1" id="Layer_1" xmlns="http://www.w3.org/2000/svg" xmlns:xlink="http://www.w3.org/1999/xlink" x="0px" y="0px"
	 viewBox="0 0 510.24 55.98" style="enable-background:new 0 0 510.24 55.98;" xml:space="preserve">
<g>
	<g>
		<path d="M391.04,23.46c-0.75,3.08-1.58,6.09-2.27,9.25c1.16,0,2.18,0,3.2,0c1.03,0,2.05,0,3.08,0s2.05,0,3.08,0s2.05,0,3.08,0
			s2.05,0,3.08,0s2.05,0,3.08,0s2.05-0.01,3.08,0c1.01,0.01,2.02-0.05,3.13,0.05c-0.9,3.34-2.52,6.1-4.82,8.44
			c-2.83,2.88-6.28,4.63-10.26,5.22c-9.57,1.44-17.09-3.93-20.17-11.05c-3.3-7.62-1.25-16.45,5.66-22.04
			c6.31-5.1,17.14-6,24.68,1.34c2.18-2.1,4.37-4.21,6.55-6.31c-8.08-8.82-23.06-11.41-34.76-3.97
			c-12.09,7.69-16.41,23.45-9.91,36.25c6.54,12.88,21.68,18.66,35.1,13.41c14.4-5.63,19.55-20.25,17.32-30.59
			C412.31,23.46,401.69,23.46,391.04,23.46z"/>
		<path d="M459.49,4.61c0,1.09,0,2.18,0,3.27s0,2.18,0,3.27s0,2.18,0,3.27s0,2.18,0,3.27c0,1.12,0,2.24,0,3.36c0,1.09,0,2.18,0,3.27
			s0,2.18,0,3.27s0,2.18,0,3.27s0.01,2.18,0,3.27c-0.01,1.06,0.06,2.13-0.14,3.19c-0.36-0.41-0.62-0.84-0.88-1.28
			c-6.65-11.32-13.3-22.64-19.93-33.98c-0.37-0.64-0.76-0.88-1.51-0.87c-2.69,0.05-5.38,0.02-8.07,0.02c-0.31,0-0.61,0.03-0.9,0.05
			c-0.21,1.45-0.14,52.9,0.06,53.57c1.97,0.18,8.4,0.1,9.16-0.14c0-11.97,0-23.97,0-35.96c0.06-0.02,0.13-0.04,0.19-0.06
			c3.54,6.03,7.08,12.06,10.62,18.09c3.55,6.04,7.1,12.08,10.61,18.07c3.4,0,6.69,0,10.02,0c0-17.88,0-35.71,0-53.55
			c-3.09,0-6.12,0-9.23,0C459.49,2.44,459.49,3.52,459.49,4.61z"/>
		<path d="M244.89,0.01c-14.85-0.1-28.13,11.91-28.16,27.93c-0.03,16.03,13.19,28.19,27.96,27.99c14.7,0.22,27.94-11.86,27.97-27.88
			C272.69,12.01,259.5,0.11,244.89,0.01z M244.91,46.67c-10.21,0.12-18.87-8.14-18.91-18.61c-0.04-10.67,8.95-18.67,18.52-18.75
			c9.53-0.08,18.8,7.52,18.88,18.66C263.33,38.85,254.68,46.55,244.91,46.67z"/>
		<path d="M336.08,0.01c-14.79-0.19-28.26,11.71-28.31,27.97c0.05,16.13,13.25,27.82,27.63,27.98
			c15.33,0.17,28.26-12.34,28.31-27.88C363.76,12.56,351.04,0.21,336.08,0.01z M335.59,46.66c-10.21-0.08-18.53-8.4-18.52-18.68
			c-0.12-10.13,8.63-18.74,18.77-18.67c9.81,0.06,18.63,8.11,18.59,18.73C354.4,38.44,345.99,46.74,335.59,46.66z"/>
		<path d="M150.38,16.61c-1.91-9.36-10.43-15.48-18.64-15.41c-6.41,0.05-12.82,0.01-19.23,0.01c-0.35,0-0.69,0-1.1,0
			c0,18,0,35.83,0,53.65c1.27,0.19,8.45,0.13,9.2-0.08c0-7.35,0-14.71,0-22.08c0-7.39,0-14.78,0-22.18
			c0.33-0.03,0.52-0.05,0.71-0.05c3.36,0,6.73,0,10.09,0c0.51,0,1.03,0.02,1.53,0.1c5.65,0.92,9.32,6.03,8.41,11.67
			c-0.63,3.89-3.71,7.25-7.58,8.05c-1.36,0.28-2.8,0.24-4.2,0.32c-0.7,0.04-1.4,0.01-2.11,0.01c-1.26,3.1-2.48,6.1-3.77,9.26
			c0.49,0,0.8,0,1.11,0c1.41,0,2.82,0.05,4.23-0.02c0.75-0.04,1.14,0.25,1.53,0.86c2.88,4.51,5.79,8.99,8.68,13.5
			c0.32,0.5,0.65,0.76,1.29,0.75c3.11-0.04,6.22-0.02,9.32-0.02c0.24,0,0.49-0.04,0.88-0.07c-3.66-5.69-7.25-11.28-10.87-16.91
			c0.27-0.16,0.45-0.28,0.64-0.39C148.2,33.41,152.12,25.17,150.38,16.61z"/>
		<path d="M73.46,1.26C65.4,19.13,57.35,36.97,49.26,54.9c3.49,0,6.84,0,10.19,0c0.16-0.33,0.3-0.62,0.43-0.91
			c1.1-2.45,2.24-4.89,3.29-7.36c0.3-0.72,0.68-0.91,1.43-0.91c6.63,0.03,13.27,0.02,19.9,0.02c0.38,0,0.76,0,1.34,0
			c-1.44-3.2-2.79-6.22-4.18-9.3c-4.62,0-9.18,0-13.9,0c3.62-7.99,7.18-15.86,10.83-23.93c6.45,14.29,12.8,28.37,19.13,42.4
			c3.43,0,6.75,0,10.19,0c-8.09-17.94-16.14-35.78-24.2-53.64C80.28,1.26,76.9,1.26,73.46,1.26z"/>
		<path d="M510.01,45.67c-8.86,0-17.75,0-26.67,0c0-4.33,0-8.58,0-12.89c7.43,0,14.79,0,22.28,0c-0.78-3.13-1.53-6.16-2.3-9.25
			c-1.03,0-1.98,0-2.94,0c-0.93,0-1.86,0-2.79,0c-0.96,0-1.92,0-2.88,0s-1.92,0-2.88,0s-1.92,0-2.88,0c-0.93,0-1.86,0.01-2.79,0
			c-0.94-0.01-1.9,0.06-2.83-0.05c0-4.38,0-8.63,0-13.01c8.97,0,17.89,0,26.84,0c0-3.12,0-6.12,0-9.18
			c-2.21-0.22-35.41-0.12-36.09,0.1c0,17.84,0,35.67,0,53.49c1.34,0.18,35.37,0.12,36.06-0.05
			C510.32,53.32,510.25,46.42,510.01,45.67z"/>
		<path d="M14.43,40.87c-6.56-6.94-6.9-17.71-0.56-25.02c3.24-3.74,7.34-5.97,12.29-6.43c5.82-0.54,10.85,1.32,14.98,5.32
			c2.19-2.19,4.34-4.34,6.52-6.53C40.21,0.43,28.21-2.16,17.8,1.94C6.41,6.43-0.63,17.43,0.05,29.63
			C0.69,41.06,8.4,51.69,20.71,55.01c10.54,2.84,21.03-0.8,27.03-7.4c-2.15-2.12-4.31-4.25-6.46-6.37
			C33.69,48.78,21.37,48.21,14.43,40.87z"/>
		<path d="M184.96,41.49c-6.73-6.64-7.73-16.8-2.29-24.27c2.76-3.79,6.39-6.39,10.99-7.41c6.68-1.47,12.53,0.31,17.35,4.86
			c2.24-2.21,4.4-4.33,6.56-6.46C207.56-2.22,189.66-3.2,178.18,8.09c-11.5,11.32-10.99,30.11,1.17,40.85
			c11.86,10.48,29.09,8.53,38.3-1.32c-2.15-2.13-4.31-4.26-6.47-6.39C203.65,48.77,191.62,48.06,184.96,41.49z"/>
		<path d="M286.48,1.33c-3.16,0-6.16,0-9.22,0c0,17.88,0,35.71,0,53.59c10.11,0,20.16,0,30.27,0c0-3.07,0-6.1,0-9.23
			c-7.03,0-13.99,0-21.04,0C286.48,30.85,286.48,16.13,286.48,1.33z"/>
	</g>
</g>
</svg>
