<?xml version="1.0" encoding="utf-8"?>
<!-- Generator: Adobe Illustrator 23.0.1, SVG Export Plug-In . SVG Version: 6.00 Build 0)  -->
<svg version="1.1" id="Layer_1" xmlns="http://www.w3.org/2000/svg" xmlns:xlink="http://www.w3.org/1999/xlink" x="0px" y="0px"
	 viewBox="0 0 298.8 100.8" style="enable-background:new 0 0 298.8 100.8;" xml:space="preserve">
<path d="M42.5,68.5c-0.8,0.8-1.7,1.6-2.8,2.4c-1,0.8-2.2,1.5-3.4,2.1s-2.5,1.1-3.9,1.5c-1.4,0.4-2.9,0.6-4.4,0.6
	c-4.1,0-7.8-0.8-11.3-2.3c-3.4-1.5-6.4-3.6-8.9-6.3c-2.5-2.7-4.4-5.8-5.8-9.4S0,49.8,0,45.6c0-4.2,0.7-8.1,2.1-11.6
	c1.4-3.6,3.3-6.7,5.8-9.4c2.5-2.7,5.4-4.7,8.9-6.2c3.4-1.5,7.2-2.3,11.3-2.3c1.6,0,3.2,0.1,4.5,0.4s2.6,0.7,3.7,1.2
	c1.1,0.5,2.2,1.2,3.1,1.9c0.9,0.8,1.8,1.6,2.7,2.5V3.4c0-1,0.3-1.8,0.9-2.4c0.6-0.7,1.5-1,2.6-1h10.1c0.4,0,0.8,0.1,1.2,0.2
	c0.4,0.2,0.8,0.4,1.2,0.7C58.5,1.2,58.8,1.6,59,2c0.2,0.4,0.3,0.9,0.3,1.4v67.3c0,2.3-1.2,3.5-3.6,3.5h-8.8c-0.6,0-1.1-0.1-1.4-0.2
	s-0.6-0.4-0.8-0.7c-0.2-0.3-0.4-0.6-0.6-1.1c-0.2-0.4-0.4-0.9-0.7-1.5L42.5,68.5z M16.2,45.6c0,2,0.3,3.8,0.9,5.6
	c0.6,1.7,1.5,3.2,2.6,4.5s2.5,2.3,4.1,3c1.6,0.7,3.4,1.1,5.3,1.1c1.9,0,3.7-0.3,5.4-1s3.2-1.6,4.4-2.9c1.3-1.2,2.3-2.7,3-4.3
	c0.8-1.7,1.2-3.4,1.3-5.3v-0.6c0-1.9-0.4-3.8-1.1-5.5c-0.7-1.7-1.7-3.3-3-4.6c-1.3-1.3-2.8-2.4-4.5-3.1c-1.7-0.8-3.6-1.2-5.6-1.2
	c-2,0-3.7,0.4-5.3,1.2c-1.6,0.8-3,1.8-4.1,3.1c-1.1,1.3-2,2.8-2.6,4.6C16.5,41.9,16.2,43.7,16.2,45.6z"/>
<path d="M72.5,17.8c0.4-0.3,0.8-0.5,1.2-0.6c0.4-0.1,0.9-0.1,1.2-0.1h6.8c0.5,0,1,0.1,1.4,0.3c0.4,0.2,0.7,0.5,1,0.8
	s0.5,0.7,0.6,1.1s0.3,0.8,0.5,1.3l0.9,4c0.5-0.9,1.2-1.9,2.2-2.9c1-1,2.2-1.9,3.7-2.7c1.5-0.8,3.2-1.5,5.1-2c2-0.5,4.1-0.8,6.5-0.8
	c3.4,0,6.5,0.7,9.2,2c2.7,1.3,5,3.1,6.8,5.4c1.9,2.3,3.3,4.9,4.3,8s1.5,6.3,1.5,9.7v29.5c0,1.1-0.2,2-0.7,2.6
	c-0.5,0.6-1.3,0.9-2.4,0.9H112c-1.3,0-2.2-0.2-2.6-0.7c-0.5-0.4-0.7-1.3-0.7-2.5V41.7c0-1.3-0.3-2.5-0.9-3.7
	c-0.6-1.2-1.4-2.2-2.3-3.1c-1-0.9-2-1.6-3.3-2.1c-1.2-0.5-2.5-0.8-3.7-0.8c-1.1,0-2.2,0.2-3.3,0.7c-1.1,0.5-2.2,1.2-3.1,2
	s-1.7,1.9-2.4,3c-0.6,1.2-1,2.4-1.1,3.8v29.3c0,0.5-0.1,1-0.3,1.5c-0.2,0.5-0.5,0.9-0.9,1.2c-0.4,0.2-0.8,0.4-1.1,0.5
	c-0.4,0.1-0.7,0.1-1.2,0.1H75c-1.3,0-2.2-0.3-2.8-0.9s-0.9-1.5-0.9-2.5V20.4c0-0.6,0.1-1.1,0.4-1.6s0.6-0.8,1.1-1.1L72.5,17.8z"/>
<g>
	<path d="M140.9,74.2h10.4c1,0,1.8-0.3,2.5-0.9c0.6-0.6,1-1.5,1-2.6V3.5c0-0.5-0.1-1-0.3-1.4c-0.2-0.4-0.4-0.8-0.7-1.1
		c-0.3-0.3-0.6-0.5-0.9-0.7C152.6,0.1,152.3,0,152,0h-11c-1.2,0-2,0.3-2.5,1c-0.5,0.7-0.7,1.5-0.7,2.4l0,67.2c0,1.1,0.2,2,0.7,2.6
		C138.9,73.9,139.8,74.2,140.9,74.2z"/>
	<path d="M181.5,12.6c0-0.1,0-0.2,0-0.3V3.5c0-0.3,0-0.5-0.1-0.7c0,0.2,0,0.5,0,0.7V12.6z"/>
	<path d="M178,0h-10.4c-1.1,0-2,0.3-2.5,0.8c-0.5,0.5-0.8,1.4-0.8,2.7h0v8.8c0,2.5,1.1,3.7,3.3,3.7H178c0.5,0,1-0.1,1.5-0.4
		c0.4-0.3,0.8-0.6,1.1-1c0.3-0.4,0.5-0.8,0.7-1.2c0.1-0.3,0.2-0.6,0.2-0.9V3.5c0-0.2,0-0.5,0-0.7c-0.1-0.9-0.4-1.5-0.9-1.9
		C179.9,0.3,179.1,0,178,0z"/>
	<path d="M181.5,26.4c0,0-0.3-1.8-0.9-2.5c-0.6-0.7-1.4-1-2.5-1h-10.2c-0.9,0-1.7,0.3-2.5,0.9c-0.7,0.6-1.1,2.6-1.1,2.6v44.3
		c0,4.2-1.6,7.9-4.5,10.6c-2.7,2.4-6.1,3.7-9.8,3.7h-9.4h-0.9c-1,0-1.8,0.3-2.5,1c-0.7,0.7-1,1.5-1,2.6v9c0,0.9,0.3,1.6,0.9,2.2
		c0.6,0.6,1.4,1,2.5,1h1.1h10.8c7.5,0,14.7-2.7,20.2-7.6l0.2-0.2c0.4-0.4,0.8-0.7,1.1-1.1c5.5-5.6,8.6-13.1,8.6-21.2V48.1
		L181.5,26.4z"/>
</g>
<path d="M201.1,56.4c0.8,0.8,1.7,1.5,2.6,2.1c0.9,0.6,1.8,1,2.7,1.3c0.9,0.3,1.6,0.6,2.3,0.7s1.1,0.2,1.3,0.2c0.6,0,1.3,0,2.2-0.1
	c0.9,0,1.7-0.2,2.5-0.4c0.8-0.2,1.5-0.6,2.1-1.1s0.9-1.2,0.9-2.2c0-0.8-0.2-1.5-0.5-2c-0.3-0.5-0.8-0.9-1.4-1.3
	c-0.6-0.3-1.4-0.7-2.3-0.9s-1.9-0.6-3.1-0.9c-3.6-1-6.6-2.1-8.9-3.5c-2.3-1.3-4.2-2.9-5.6-4.5c-1.4-1.7-2.3-3.5-2.9-5.4
	s-0.8-3.9-0.8-6.1c0-2.5,0.5-4.8,1.5-6.8s2.4-3.8,4.2-5.2c1.8-1.5,4-2.6,6.6-3.4c2.5-0.8,5.4-1.2,8.5-1.2c1.9,0,3.7,0.2,5.3,0.5
	s3.2,0.8,4.7,1.5c1.5,0.7,3,1.5,4.4,2.6c1.4,1.1,2.8,2.3,4.2,3.8c0.5,0.6,0.8,1.2,0.8,1.7c0,0.5-0.3,1.1-1,1.7
	c-1.2,1-2.3,1.9-3.3,2.8c-1.1,0.9-2.2,2-3.3,3.1c-0.4,0.3-0.7,0.5-1.1,0.6c-0.4,0.1-0.7,0.1-1,0c-0.3-0.1-0.7-0.2-1-0.5
	s-0.6-0.5-0.8-0.8c-1-1.2-2.2-2-3.6-2.4c-1.3-0.4-2.6-0.6-3.8-0.6c-1.5,0-2.6,0.2-3.5,0.8s-1.3,1.3-1.2,2.3c0.1,0.8,0.3,1.4,0.9,1.8
	c0.5,0.4,1.2,0.8,1.9,1.1c0.8,0.3,1.6,0.5,2.4,0.7c0.8,0.2,1.6,0.3,2.4,0.6c2.7,0.9,5.2,1.8,7.4,2.8c2.2,1,4.2,2.3,5.8,3.8
	c1.7,1.5,2.9,3.3,3.8,5.3s1.4,4.6,1.4,7.6c0,3-0.6,5.6-1.8,8c-1.2,2.3-2.8,4.3-4.9,5.9s-4.5,2.8-7.4,3.7s-5.9,1.3-9.2,1.3
	c-1.9,0-3.8-0.2-5.7-0.5s-3.8-0.9-5.6-1.6c-1.8-0.7-3.5-1.7-5.1-2.8s-3.1-2.6-4.3-4.2c-0.3-0.4-0.6-0.9-0.7-1.3
	c-0.2-0.5-0.2-0.9-0.2-1.4c0-0.4,0.1-0.9,0.3-1.2c0.2-0.4,0.4-0.7,0.8-1l5.8-5.8c0.7-0.6,1.4-0.8,1.9-0.6
	C199.5,55,200.2,55.5,201.1,56.4z"/>
<path d="M245.8,17.8c0.4-0.3,0.8-0.5,1.2-0.6c0.4-0.1,0.8-0.1,1.2-0.1h6.8c0.5,0,1,0.1,1.4,0.3c0.4,0.2,0.7,0.5,1,0.8
	s0.5,0.7,0.7,1.1c0.2,0.4,0.3,0.8,0.5,1.3l0.9,4c0.5-0.9,1.2-1.9,2.2-2.9c1-1,2.2-1.9,3.7-2.7c1.5-0.8,3.2-1.5,5.2-2
	c2-0.5,4.1-0.8,6.5-0.8c3.4,0,6.5,0.7,9.2,2c2.7,1.3,5,3.1,6.8,5.4c1.9,2.3,3.3,4.9,4.3,8c1,3,1.5,6.3,1.5,9.7v29.5
	c0,1.1-0.2,2-0.7,2.6s-1.3,0.9-2.4,0.9h-10.4c-1.3,0-2.2-0.2-2.7-0.7S282,72.2,282,71V41.7c0-1.3-0.3-2.5-0.9-3.7
	c-0.6-1.2-1.4-2.2-2.3-3.1c-1-0.9-2-1.6-3.3-2.1c-1.2-0.5-2.5-0.8-3.7-0.8c-1.1,0-2.2,0.2-3.3,0.7c-1.1,0.5-2.2,1.2-3.1,2
	s-1.7,1.9-2.4,3c-0.7,1.2-1,2.4-1.1,3.8v29.3c0,0.5-0.1,1-0.3,1.5c-0.2,0.5-0.5,0.9-0.9,1.2c-0.4,0.2-0.8,0.4-1.1,0.5
	c-0.3,0.1-0.7,0.1-1.2,0.1h-10.2c-1.3,0-2.2-0.3-2.8-0.9s-0.8-1.5-0.8-2.5V20.4c0-0.6,0.1-1.1,0.4-1.6s0.6-0.8,1.1-1.1L245.8,17.8z"
	/>
</svg>
