<?xml version="1.0" encoding="utf-8"?>
<!-- Generator: Adobe Illustrator 23.0.1, SVG Export Plug-In . SVG Version: 6.00 Build 0)  -->
<svg version="1.1" id="Layer_1" xmlns="http://www.w3.org/2000/svg" xmlns:xlink="http://www.w3.org/1999/xlink" x="0px" y="0px"
	 viewBox="0 0 496.06 496.06" style="enable-background:new 0 0 496.06 496.06;" xml:space="preserve">
<style type="text/css">
	.st0{fill:#010101;}
</style>
<g id="original" transform="matrix(0.25524448,0,0,0.25524448,-0.33181805,-0.33170359)">
	<path id="path4" class="st0" d="M1944.79,1507.33c-70.63,17.89-114.42,0.75-153.56-58.14
		c-87.96-131.94-185.24-257.73-278.97-385.94c-12.11-16.59-24.6-32.8-40.25-53.48c-111.07,149.83-221.76,292.39-325.75,440.73
		c-37.27,52.92-76.22,76.03-145.73,57.4l417.25-559.99l-388.73-505.95c66.9-13.04,112.93-6.34,153.93,53.48
		c90.38,132.12,190.08,257.73,289.41,390.78c100.07-132.5,198.47-258.47,291.46-389.29c37.27-52.92,77.52-73.24,144.61-53.67
		c-50.87,67.46-100.63,133.8-150.76,199.59c-67.65,88.89-133.99,178.71-204.06,265.74c-24.97,30.93-20.87,51.06,1.3,80.5
		C1684.83,1159.59,1812.85,1331.6,1944.79,1507.33z"/>
	<path id="path6" class="st0" d="M1.87,938.39c11.18-55.91,18.64-112.93,34.1-167.9c92.99-332.27,474.27-470.36,736.28-264.44
		c153.37,120.76,191.57,290.9,183.93,482.84H91.32c-13.04,344.38,234.81,552.17,550.68,446.13
		c110.88-37.27,176.1-123.93,208.72-232.57c16.59-54.42,43.98-62.99,95.23-47.52c-26.28,135.85-85.54,249.34-209.65,320.16
		c-185.98,106.41-451.54,71.93-591.11-75.85c-82.55-86.84-117.4-194.93-133.06-311.58c-2.24-18.64-7.08-36.9-10.81-55.35
		C1.68,1001.38,1.87,969.89,1.87,938.39z M92.81,915.28h781.75c-5.03-248.97-160.08-425.82-371.96-427.31
		C270.03,486.11,102.87,658.86,92.81,915.28z"/>
</g>
</svg>
