<?xml version="1.0" encoding="utf-8"?>
<!-- Generator: Adobe Illustrator 23.0.1, SVG Export Plug-In . SVG Version: 6.00 Build 0)  -->
<svg version="1.1" xmlns="http://www.w3.org/2000/svg" xmlns:xlink="http://www.w3.org/1999/xlink" x="0px" y="0px"
	 viewBox="0 0 500 500" style="enable-background:new 0 0 500 500;" xml:space="preserve">
<g id="github_x5F_black">
</g>
<g id="github_x5F_white">
</g>
<g id="github_x5F_blue_1_">
	<g>
		<path d="M500,256.6c0-138.1-111.9-250-250-250S0,118.6,0,256.6c0,109.6,70.5,202.7,168.7,236.5c6-4.3,12.9-9.6,12.9-18.6
			c0-13.7-0.3-49.1-0.3-49.1s-10.9,1.8-26.3,1.8c-39,0-51.4-24.8-57.2-38.6c-7.6-18-17.6-26.5-28.1-33.3c-6.5-4.2-8-9.1-0.5-10.5
			c34.5-6.5,43.4,39,66.4,46.2c16.5,5.2,37.6,2.9,48.2-3.8c1.4-13.9,11.4-25.9,19.8-32.2c-58.7-5.6-93.5-25.9-111.5-58.4l-1.9-3.6
			l-4.5-10.3l-1.3-3.7c-5.6-16.5-8.2-35.5-8.2-56.6c0-37.6,11.8-51.7,27.6-71.7c-12.1-42.8,4.3-72.1,4.3-72.1s25.4-5.2,73.4,29
			c26-11.1,95.4-12,128.2-2.5c20.1-13.2,57-32,71.9-26.8c4,6.4,12.7,25.2,5.3,66.5c5,9.1,31.3,28.3,31.4,82.9
			c-0.4,20.1-2.5,37.1-6.4,51.4l-2.2,7.3c0,0-1.2,3.5-2.6,6.8l-1.6,3.6c-17.4,38-53.1,52.2-110.8,58.1
			c18.7,11.7,24.1,26.4,24.1,66.1s-0.5,45.1-0.4,54.2c0.1,8.1,6.6,13.9,12.4,18.3C429.1,459.8,500,366.5,500,256.6z"/>
	</g>
</g>
</svg>
