<?xml version="1.0" encoding="utf-8"?>
<!-- Generator: Adobe Illustrator 23.0.1, SVG Export Plug-In . SVG Version: 6.00 Build 0)  -->
<svg version="1.1" id="Layer_1" xmlns="http://www.w3.org/2000/svg" xmlns:xlink="http://www.w3.org/1999/xlink" x="0px" y="0px"
	 viewBox="0 0 496.06 496.06" style="enable-background:new 0 0 496.06 496.06;" xml:space="preserve">
<style type="text/css">
	.st0{fill:none;}
	.st1{fill:#9CDAF1;}
	.st2{fill:#7DBBE6;}
	.st3{fill:#F4CBB2;}
	.st4{fill:#FFFFFF;}
	.st5{fill:#AD5C51;}
	.st6{fill:#C3E4D8;}
</style>
<g>
	<path class="st0" d="M283.91,327.91c0,0,1.49-16.88-7.42-23.82v65.34c2.5,0.17,4.97,0.36,7.42,0.57V327.91z"/>
	<path class="st0" d="M219.56,303.45c-8.92,6.31-7.42,24.47-7.42,24.47v42.47c2.45-0.24,4.92-0.46,7.42-0.66V303.45z"/>
	<path class="st0" d="M251.67,368.56l-0.53-67.25h-6.24l-0.52,67.28c1.86-0.03,3.71-0.05,5.59-0.05
		C250.54,368.54,251.1,368.55,251.67,368.56z"/>
	<path class="st1" d="M209.98,418.07c1.35,3.16,2.16,6.9,2.16,11.38v34.72c2.45,0.24,4.92,0.46,7.42,0.66v-22.28
		C219.56,442.55,218.94,425.06,209.98,418.07z"/>
	<path class="st1" d="M322.27,392.87c0,0,8.04,5.57-0.62,8.66c0,0-0.25,0.02-0.68,0.04c0.42,0.02,0.68,0.04,0.68,0.04
		c8.66,3.09,0.62,8.66,0.62,8.66c-13.61,4.95-14.85,19.8-14.85,19.8v31.59c48.22-7.66,81.78-24.64,81.78-44.38
		c0-19.74-33.56-36.73-81.78-44.39v0.19C307.42,373.07,308.65,387.92,322.27,392.87z"/>
	<path class="st1" d="M173.78,410.27c0,0-8.04-5.57,0.62-8.66c0,0,0.25-0.02,0.68-0.04c-0.42-0.02-0.68-0.04-0.68-0.04
		c-8.67-3.09-0.62-8.66-0.62-8.66c12.25-4.45,14.47-16.89,14.8-19.34c-46.11,7.94-77.84,24.54-77.84,43.74
		c0,19.21,31.76,35.81,77.9,43.75v-30.95C188.63,430.07,187.39,415.22,173.78,410.27z"/>
	<path class="st1" d="M286.38,403.39c0,0,2.63,4.78,0.62,7.2c1.09,1.31,0.84,3.31,0.35,4.87c6.69-11.44,21.49-13.59,29.28-13.9
		c-10.27-0.4-32.72-4.01-32.72-27.88v-3.69c-2.45-0.21-4.93-0.4-7.42-0.57v9.21C276.48,378.64,277.1,396.58,286.38,403.39z"/>
	<path class="st1" d="M220.47,410.6c7.06,2.18,22.88,9.66,23.84,33.19l0.22,22.17c1.81,0.02,3.61,0.05,5.43,0.05
		c0.52,0,1.03-0.01,1.54-0.01l0.23-22.21c0.96-23.53,16.78-31.01,23.84-33.19c-7.06-2.18-22.88-9.66-23.84-33.19l-0.07-8.85
		c-0.57,0-1.13-0.02-1.7-0.02c-1.87,0-3.73,0.02-5.59,0.05l-0.07,8.82C243.35,400.94,227.52,408.41,220.47,410.6z"/>
	<path class="st1" d="M276.48,442.55v22.56c2.5-0.17,4.97-0.36,7.42-0.57v-35.09c0-4.47,0.81-8.22,2.16-11.38
		C277.1,425.05,276.48,442.55,276.48,442.55z"/>
	<path class="st1" d="M179.42,401.57c7.79,0.3,22.58,2.45,29.27,13.89c-0.49-1.57-0.74-3.55,0.35-4.87c-2.02-2.42,0.62-7.2,0.62-7.2
		c9.28-6.81,9.9-24.75,9.9-24.75v-8.92c-2.5,0.2-4.97,0.41-7.42,0.66v3.32C212.14,397.56,189.69,401.17,179.42,401.57z"/>
	<path class="st2" d="M220.47,410.6c-2.04,0.63-3.38,0.84-3.38,0.84c-4.68,1.06-6.98,0.43-8.04-0.84c-1.09,1.31-0.84,3.3-0.35,4.87
		c0.48,0.82,0.9,1.7,1.29,2.61c8.96,6.99,9.58,24.48,9.58,24.48v22.28c8.08,0.63,16.43,1.02,24.97,1.13l-0.22-22.17
		C243.35,420.25,227.52,412.78,220.47,410.6z"/>
	<path class="st2" d="M209.66,417.8c0.11,0.08,0.21,0.19,0.32,0.27c-0.39-0.91-0.81-1.79-1.29-2.61
		C209.11,416.79,209.66,417.8,209.66,417.8z"/>
	<path class="st2" d="M286.38,417.8c0,0,0.55-1.01,0.97-2.33c-0.48,0.81-0.9,1.69-1.28,2.6
		C286.17,417.98,286.27,417.88,286.38,417.8z"/>
	<path class="st2" d="M322.27,410.27c0,0,8.04-5.57-0.62-8.66c0,0-0.25-0.02-0.68-0.04c-0.82,0.04-2.34,0.08-4.35,0
		c-7.79,0.3-22.58,2.45-29.28,13.9c-0.41,1.32-0.97,2.33-0.97,2.33c-0.11,0.08-0.21,0.18-0.32,0.27c-1.35,3.16-2.16,6.91-2.16,11.38
		v35.09c8.15-0.71,16-1.69,23.51-2.88v-31.59C307.42,430.07,308.65,415.22,322.27,410.27z"/>
	<path class="st2" d="M287,410.6c-1.06,1.27-3.36,1.9-8.04,0.84c0,0-1.34-0.21-3.38-0.84c-7.06,2.18-22.88,9.66-23.84,33.19
		l-0.23,22.2c8.53-0.03,16.88-0.33,24.97-0.88v-22.56c0,0,0.62-17.49,9.58-24.48c0.39-0.91,0.81-1.79,1.28-2.6
		C287.84,413.9,288.09,411.91,287,410.6z"/>
	<path class="st2" d="M212.14,429.45c0-4.47-0.81-8.22-2.16-11.38c-0.11-0.09-0.21-0.19-0.32-0.27c0,0-0.56-1.01-0.97-2.34
		c-6.7-11.44-21.49-13.59-29.27-13.89c-2,0.08-3.53,0.04-4.35,0c-0.42,0.02-0.68,0.04-0.68,0.04c-8.67,3.09-0.62,8.66-0.62,8.66
		c13.61,4.95,14.85,19.8,14.85,19.8v30.95c7.48,1.29,15.35,2.34,23.51,3.14v-34.71H212.14z"/>
	<path class="st1" d="M90.91,273.99l-4.02,14c0,0-1.05,5.06,3.72,5.96c4.98-0.1,4.57-4.75,4.22-6.27L90.91,273.99z"/>
	<path d="M495.69,215.28l0.37-1.82c-40.85-8.17-82.76-8.25-108.12-7.2c4.16-15.01,5.42-32.28,5.42-51.54
		c0-27.62-10.38-49.72-27.22-66.53c2.94-9.5,6.88-30.61-3.93-57.62c0,0-19.06-6.05-62.17,22.8c-16.89-4.22-34.86-6.3-52.86-6.3
		c-19.8,0-39.81,2.52-58.48,7.64c-44.49-30.36-64.13-24.14-64.13-24.14c-12.82,32.06-4.89,55.79-2.49,61.69
		c-15.07,16.26-24.27,37.02-24.27,62.47c0,19.21,2.19,36.45,7.53,51.43c-25.57-0.93-65.96-0.57-105.35,7.3l0.36,1.82
		c39.62-7.93,80.26-8.2,105.68-7.24c1.18,3.1,2.49,6.11,3.96,9.02c-25.14,0.81-68.05,4.01-109.19,15.62l0.51,1.78
		c41.46-11.69,84.75-14.81,109.64-15.57c15.02,27.99,44.63,46.08,97.3,51.75c-7.48,5.02-15.1,13.56-18.19,28.02
		c-10.19,4.87-42.44,16.77-61.79-16.51c0,0-10.83-19.8-31.56-21.35c0,0-20.11-0.31-1.39,12.53c0,0,13.46,6.34,22.74,30.17
		c0,0,12.11,40.65,70.56,27.6v41.99c0,0-0.02,0.18-0.05,0.46c7.5-1.29,15.38-2.35,23.57-3.15v-42.47c0,0-1.49-18.16,7.42-24.47
		v66.28c8.03-0.63,16.32-1.01,24.82-1.13l0.52-67.28h6.24l0.53,67.25c8.48,0.04,16.77,0.34,24.82,0.88v-65.37
		c8.91,6.94,7.42,23.82,7.42,23.82v42.1c8.15,0.71,16,1.69,23.51,2.88v-59.83c0-23.4-9.85-35.79-19.49-42.34
		c56.18-5.57,83.13-23.71,95.56-51.89c24.61,0.68,68.89,3.67,111.25,15.62l0.5-1.78c-42.12-11.88-86.1-14.95-110.96-15.68
		c1.18-2.85,2.2-5.81,3.12-8.85C412.57,207.07,454.68,207.08,495.69,215.28z M101.66,268.52c-2.22,0-4.02-1.24-4.02-2.78
		s1.8-2.79,4.02-2.79c2.22,0,4.02,1.25,4.02,2.79C105.69,267.27,103.88,268.52,101.66,268.52z M108.78,271.92
		c0-1.53,1.8-2.78,4.02-2.78c2.22,0,4.02,1.25,4.02,2.78c0,1.54-1.8,2.79-4.02,2.79C110.58,274.71,108.78,273.46,108.78,271.92z
		 M115.59,279.97c0-1.54,1.8-2.79,4.02-2.79c2.22,0,4.02,1.25,4.02,2.79c0,1.53-1.8,2.78-4.02,2.78S115.59,281.5,115.59,279.97z
		 M125.8,292.04c-2.22,0-4.02-1.25-4.02-2.79s1.8-2.79,4.02-2.79s4.02,1.25,4.02,2.79S128.02,292.04,125.8,292.04z M132.61,300.7
		c-2.22,0-4.02-1.25-4.02-2.78c0-1.54,1.8-2.79,4.02-2.79s4.02,1.25,4.02,2.79C136.63,299.45,134.83,300.7,132.61,300.7z
		 M141.89,308.12c-2.22,0-4.02-1.25-4.02-2.79c0-1.53,1.8-2.78,4.02-2.78s4.02,1.25,4.02,2.78
		C145.91,306.88,144.11,308.12,141.89,308.12z M154.89,313.07c-2.22,0-4.02-1.25-4.02-2.78c0-1.54,1.8-2.79,4.02-2.79
		s4.02,1.25,4.02,2.79C158.91,311.82,157.11,313.07,154.89,313.07z M167.82,313.07c-2.22,0-4.02-1.25-4.02-2.78
		c0-1.54,1.8-2.79,4.02-2.79s4.02,1.25,4.02,2.79C171.84,311.82,170.04,313.07,167.82,313.07z M180.95,310.92
		c-2.22,0-4.02-1.25-4.02-2.79s1.8-2.79,4.02-2.79s4.02,1.25,4.02,2.79C184.97,309.67,183.17,310.92,180.95,310.92z M246.71,260.28
		c-61.24,0-110.87-9.22-110.87-68.39c0-14.17,6.98-27.32,18.93-38.24c19.93-18.19,53.67-8.56,91.94-8.56
		c38.12,0,71.73-9.73,91.69,8.34c12.1,10.96,19.18,24.2,19.18,38.46C357.58,258.47,307.94,260.28,246.71,260.28z"/>
	<path d="M209.66,403.39c0,0-2.63,4.78-0.62,7.2c1.06-1.27,3.36-1.9,8.04-0.84c0,0,1.34,0.21,3.38,0.84
		c7.06-2.18,22.88-9.66,23.84-33.19l0.07-8.82c-8.49,0.12-16.78,0.5-24.82,1.13v8.92C219.56,378.64,218.95,396.58,209.66,403.39z"/>
	<path d="M275.58,410.6c2.04-0.63,3.38-0.84,3.38-0.84c4.68-1.06,6.98-0.43,8.04,0.84c2.02-2.42-0.62-7.2-0.62-7.2
		c-9.28-6.81-9.9-24.75-9.9-24.75v-9.21c-8.05-0.54-16.34-0.84-24.82-0.88l0.07,8.85C252.7,400.94,268.52,408.41,275.58,410.6z"/>
	<path d="M173.78,392.87c0,0-8.04,5.57,0.62,8.66c0,0,0.25,0.02,0.68,0.04c0.82-0.04,2.34-0.08,4.35,0
		c10.27-0.4,32.72-4.01,32.72-27.88v-3.32c-8.18,0.81-16.07,1.86-23.57,3.15C188.25,375.99,186.03,388.42,173.78,392.87z"/>
	<path d="M283.91,373.7c0,23.87,22.45,27.47,32.72,27.88c2-0.08,3.53-0.04,4.35,0c0.42-0.02,0.68-0.04,0.68-0.04
		c8.66-3.09,0.62-8.66,0.62-8.66c-13.61-4.95-14.85-19.8-14.85-19.8v-0.19c-7.51-1.19-15.36-2.17-23.51-2.88L283.91,373.7
		L283.91,373.7z"/>
	<path d="M217.09,411.44c0,0,1.34-0.21,3.38-0.84c-2.04-0.63-3.38-0.84-3.38-0.84c-4.68-1.06-6.98-0.43-8.04,0.84
		C210.1,411.86,212.41,412.5,217.09,411.44z"/>
	<path d="M320.97,401.57c-0.82-0.04-2.34-0.08-4.35,0C318.63,401.65,320.15,401.61,320.97,401.57z"/>
	<path d="M287,410.6c-1.06-1.27-3.36-1.9-8.04-0.84c0,0-1.34,0.21-3.38,0.84c2.04,0.63,3.38,0.84,3.38,0.84
		C283.63,412.5,285.94,411.86,287,410.6z"/>
	<path d="M175.08,401.57c0.82,0.04,2.34,0.08,4.35,0C177.42,401.49,175.89,401.53,175.08,401.57z"/>
	<path class="st3" d="M338.4,153.42c-19.96-18.07-53.57-8.34-91.69-8.34c-38.27,0-72.01-9.63-91.94,8.56
		c-11.95,10.92-18.93,24.07-18.93,38.24c0,59.17,49.64,68.39,110.87,68.39s110.87-1.8,110.87-68.39
		C357.58,177.62,350.51,164.38,338.4,153.42z M247.04,219c3.19,0,5.77,2.58,5.77,5.77s-2.58,5.77-5.77,5.77s-5.77-2.58-5.77-5.77
		S243.85,219,247.04,219z M186.77,228.49c-12.74,0-23.07-14.87-23.07-33.21s10.33-33.2,23.07-33.2s23.07,14.86,23.07,33.2
		S199.51,228.49,186.77,228.49z M260.38,239.35c-2,5.67-7.39,9.48-13.39,9.48s-11.38-3.81-13.39-9.48
		c-0.34-0.97,0.17-2.03,1.13-2.37s2.03,0.17,2.37,1.13c1.48,4.19,5.46,7.01,9.89,7.01c4.44,0,8.41-2.81,9.9-7.01
		c0.34-0.97,1.4-1.47,2.37-1.13C260.22,237.33,260.72,238.39,260.38,239.35z M310.53,228.49c-12.74,0-23.07-14.87-23.07-33.21
		s10.33-33.2,23.07-33.2c12.74,0,23.07,14.86,23.07,33.2C333.61,213.62,323.28,228.49,310.53,228.49z"/>
	<path class="st4" d="M186.77,162.08c-12.74,0-23.07,14.86-23.07,33.2s10.33,33.21,23.07,33.21s23.07-14.87,23.07-33.21
		S199.51,162.08,186.77,162.08z M187.06,217.83c-8.5,0-15.38-9.91-15.38-22.13c0-12.23,6.88-22.14,15.38-22.14
		c8.49,0,15.38,9.91,15.38,22.14C202.44,207.92,195.55,217.83,187.06,217.83z"/>
	<path class="st5" d="M187.06,173.55c-8.5,0-15.38,9.91-15.38,22.14s6.88,22.13,15.38,22.13c8.49,0,15.38-9.91,15.38-22.13
		C202.44,183.46,195.55,173.55,187.06,173.55z"/>
	<path class="st4" d="M310.53,162.08c-12.74,0-23.07,14.86-23.07,33.2s10.33,33.21,23.07,33.21c12.74,0,23.07-14.87,23.07-33.21
		C333.61,176.94,323.28,162.08,310.53,162.08z M310.82,217.83c-8.49,0-15.38-9.91-15.38-22.13c0-12.23,6.89-22.14,15.38-22.14
		s15.38,9.91,15.38,22.14C326.2,207.92,319.31,217.83,310.82,217.83z"/>
	<path class="st5" d="M310.82,173.55c-8.49,0-15.38,9.91-15.38,22.14s6.89,22.13,15.38,22.13s15.38-9.91,15.38-22.13
		C326.2,183.46,319.31,173.55,310.82,173.55z"/>
	<path class="st5" d="M247.04,230.54c3.19,0,5.77-2.58,5.77-5.77s-2.58-5.77-5.77-5.77s-5.77,2.58-5.77,5.77
		S243.85,230.54,247.04,230.54z"/>
	<path class="st5" d="M259.25,236.99c-0.97-0.34-2.03,0.16-2.37,1.13c-1.49,4.19-5.46,7.01-9.9,7.01c-4.44,0-8.41-2.81-9.89-7.01
		c-0.34-0.96-1.4-1.47-2.37-1.13c-0.96,0.34-1.47,1.4-1.13,2.37c2.01,5.67,7.39,9.48,13.39,9.48s11.39-3.81,13.39-9.48
		C260.72,238.39,260.22,237.33,259.25,236.99z"/>
	<path class="st6" d="M101.66,262.95c-2.22,0-4.02,1.25-4.02,2.79s1.8,2.78,4.02,2.78c2.22,0,4.02-1.24,4.02-2.78
		C105.69,264.19,103.88,262.95,101.66,262.95z"/>
	<path class="st6" d="M116.83,271.92c0-1.53-1.8-2.78-4.02-2.78c-2.22,0-4.02,1.25-4.02,2.78c0,1.54,1.8,2.79,4.02,2.79
		C115.02,274.71,116.83,273.46,116.83,271.92z"/>
	<path class="st6" d="M123.63,279.97c0-1.54-1.8-2.79-4.02-2.79c-2.22,0-4.02,1.25-4.02,2.79c0,1.53,1.8,2.78,4.02,2.78
		S123.63,281.5,123.63,279.97z"/>
	<path class="st6" d="M129.82,289.25c0-1.54-1.8-2.79-4.02-2.79c-2.22,0-4.02,1.25-4.02,2.79s1.8,2.79,4.02,2.79
		C128.02,292.04,129.82,290.79,129.82,289.25z"/>
	<path class="st6" d="M132.61,295.13c-2.22,0-4.02,1.25-4.02,2.79c0,1.53,1.8,2.78,4.02,2.78s4.02-1.25,4.02-2.78
		C136.63,296.37,134.83,295.13,132.61,295.13z"/>
	<path class="st6" d="M141.89,302.55c-2.22,0-4.02,1.25-4.02,2.78c0,1.54,1.8,2.79,4.02,2.79s4.02-1.25,4.02-2.79
		C145.91,303.8,144.11,302.55,141.89,302.55z"/>
	<path class="st6" d="M154.89,307.5c-2.22,0-4.02,1.25-4.02,2.79c0,1.53,1.8,2.78,4.02,2.78s4.02-1.25,4.02-2.78
		C158.91,308.75,157.11,307.5,154.89,307.5z"/>
	<path class="st6" d="M167.82,307.5c-2.22,0-4.02,1.25-4.02,2.79c0,1.53,1.8,2.78,4.02,2.78s4.02-1.25,4.02-2.78
		C171.84,308.75,170.04,307.5,167.82,307.5z"/>
	<path class="st6" d="M180.95,305.35c-2.22,0-4.02,1.25-4.02,2.79s1.8,2.79,4.02,2.79s4.02-1.25,4.02-2.79
		C184.97,306.6,183.17,305.35,180.95,305.35z"/>
</g>
</svg>
