<?xml version="1.0" encoding="utf-8"?>
<!-- Generator: Adobe Illustrator 23.0.1, SVG Export Plug-In . SVG Version: 6.00 Build 0)  -->
<svg version="1.1" id="Layer_1" xmlns="http://www.w3.org/2000/svg" xmlns:xlink="http://www.w3.org/1999/xlink" x="0px" y="0px"
	 viewBox="0 0 283.5 283.5" style="enable-background:new 0 0 283.5 283.5;" xml:space="preserve">
<style type="text/css">
	.st0{fill:#E3E3E3;}
	.st1{opacity:0.1;fill:#231F20;enable-background:new    ;}
	.st2{fill:#D54B3D;}
	.st3{fill:#D72B27;}
	.st4{fill:url(#SVGID_1_);}
</style>
<g>
	<path class="st0" d="M265.4,249.3H17.7c-9.6,0-17.7-7.8-17.7-17.7V52.6C0,43,7.9,35,17.7,35h247.7c9.6,0,17.7,7.8,17.7,17.7v178.9
		C283.1,241.4,275.2,249.3,265.4,249.3L265.4,249.3z"/>
	<path class="st1" d="M35.4,249.3l105.9-85.2l0.8-4.5L32.9,81l-0.3,164.5L35.4,249.3z"/>
	<path class="st2" d="M17.7,249.3c-9.9,0-17.7-7.8-17.7-17.7V52.4c0-9.9,7.8-11.6,17.7-11.6s17.7,2,17.7,11.6v196.9H17.7L17.7,249.3
		z"/>
	<path class="st3" d="M17.7,43.3c12.6,0,15.2,3.8,15.2,9.1v194.3H17.7c-8.3,0-15.2-6.8-15.2-15.2V52.4C2.6,46.8,5.1,43.3,17.7,43.3
		L17.7,43.3z M17.7,40.8C7.9,40.8,0,42.8,0,52.4v179.2c0,9.9,7.8,17.7,17.7,17.7h17.7V52.4C35.4,42.5,27.6,40.8,17.7,40.8L17.7,40.8
		L17.7,40.8z"/>
	<path class="st2" d="M265.4,249.3h-17.7V51.9c0-9.9,7.8-11.1,17.7-11.1c9.9,0,17.7,1.3,17.7,11.1v179.9
		C283.1,241.4,275.2,249.3,265.4,249.3L265.4,249.3z"/>
	<path class="st3" d="M265.4,43.3c11.4,0,15.2,2.3,15.2,8.6v179.9c0,8.3-6.8,15.2-15.2,15.2h-15.2V51.9
		C250.2,45.3,254,43.3,265.4,43.3L265.4,43.3z M265.4,40.8c-9.9,0-17.7,1.3-17.7,11.1v197.6h17.7c9.9,0,17.7-7.8,17.7-17.7V51.9
		C283.1,42,275.2,40.8,265.4,40.8L265.4,40.8L265.4,40.8z"/>
	
		<linearGradient id="SVGID_1_" gradientUnits="userSpaceOnUse" x1="-154.6546" y1="560.2624" x2="-153.5424" y2="560.2624" gradientTransform="matrix(253.1598 0 0 -174.8345 39153.8594 98105.2578)">
		<stop  offset="0" style="stop-color:#000000;stop-opacity:0.1"/>
		<stop  offset="1" style="stop-color:#000000;stop-opacity:0.2"/>
	</linearGradient>
	<path class="st4" d="M189.6,249.3L1.5,59.7l9.9,4L142.3,158L283.1,54.8v177c0,9.6-7.8,17.4-17.7,17.4H189.6z"/>
	<path class="st2" d="M141.3,164.1L7.6,67.1c-7.8-5.8-10.1-16.9-4.3-24.8s17.2-9.6,25.3-3.8l113,82.1l113.7-83.1
		c7.8-5.8,19-4,24.8,4c5.8,7.8,4,19-4,24.8L141.3,164.1L141.3,164.1z"/>
	<path class="st3" d="M265.4,36.5L265.4,36.5c4.8,0,9.4,2.3,12.4,6.3c4.8,6.8,3.3,16.2-3.3,21.2l-133.2,97L9.1,65
		C2.3,60,0.5,50.4,5.3,43.8c2.8-3.8,7.6-6.3,12.6-6.3c3.3,0,6.6,1,9.1,3l112.7,81.9l1.5,1l1.5-1l113.5-83.1
		C259.1,37.5,262.1,36.5,265.4,36.5L265.4,36.5z M265.4,33.9c-3.5,0-7.3,1-10.4,3.3l-113.7,83.1l-113-82.1c-3-2.3-6.8-3.3-10.6-3.3
		c-5.6,0-11.1,2.5-14.7,7.3c-5.6,7.8-3.3,19,4.5,24.8l133.7,97.3l134.4-98.1c7.8-5.8,9.6-16.7,4-24.8
		C276.3,36.5,270.9,33.9,265.4,33.9L265.4,33.9L265.4,33.9z"/>
</g>
</svg>
