<?xml version="1.0" encoding="utf-8"?>
<!-- Generator: Adobe Illustrator 23.0.1, SVG Export Plug-In . SVG Version: 6.00 Build 0)  -->
<svg version="1.1" id="Layer_1" xmlns="http://www.w3.org/2000/svg" xmlns:xlink="http://www.w3.org/1999/xlink" x="0px" y="0px"
	 viewBox="0 0 496.06 496.06" style="enable-background:new 0 0 496.06 496.06;" xml:space="preserve">
<style type="text/css">
	.st0{fill:url(#SVGID_1_);}
	.st1{fill:#FF7F18;}
</style>
<g>
	
		<radialGradient id="SVGID_1_" cx="-1097.7427" cy="1100.5593" r="0.6332" gradientTransform="matrix(545.6736 0 0 -528.3113 599179.75 581564)" gradientUnits="userSpaceOnUse">
		<stop  offset="0" style="stop-color:#423325;stop-opacity:0.98"/>
		<stop  offset="1" style="stop-color:#1C0A00"/>
	</radialGradient>
	<path class="st0" d="M20.66,26.87H475.3v442.32H20.66V26.87z"/>
	<path class="st1" d="M20.66,26.87H475.3v442.32H20.66V26.87z M0,489.85h496.06V6.21H0V489.85z M324.91,178.65
		c0-1.69,0.6-2.48,2.48-2.48h32.48c1.69,0,2.48,0.6,2.48,2.48v163.1c0,1.69-0.4,2.48-2.48,2.48h-32.08c-2.09,0-2.68-0.99-2.68-2.68
		v-162.9L324.91,178.65L324.91,178.65z M322.63,131.66c0-13.21,9.34-21.06,21.06-21.06c12.62,0,21.06,8.44,21.06,21.06
		c0,13.61-8.84,21.06-21.46,21.06C331.37,152.82,322.63,145.37,322.63,131.66z M229.66,246.59c-5.76-22.95-19.47-72.91-24.63-97.15
		h-0.4c-4.37,24.14-15.3,65.06-23.94,97.15H229.66L229.66,246.59z M172.24,280.07l-16.29,61.98c-0.4,1.69-0.99,2.09-3.08,2.09h-30.4
		c-2.09,0-2.48-0.6-2.09-3.08l58.71-205.42c0.99-3.68,1.69-7.05,2.09-17.18c0-1.49,0.6-2.09,1.69-2.09h43.41
		c1.49,0,2.09,0.4,2.48,2.09l65.76,223c0.4,1.69,0,2.68-1.69,2.68h-34.27c-1.69,0-2.68-0.4-3.08-1.89l-16.99-62.18H172.24
		L172.24,280.07z"/>
</g>
</svg>
