<?xml version="1.0" encoding="utf-8"?>
<!-- Generator: Adobe Illustrator 23.0.1, SVG Export Plug-In . SVG Version: 6.00 Build 0)  -->
<svg version="1.1" id="Layer_1" xmlns="http://www.w3.org/2000/svg" xmlns:xlink="http://www.w3.org/1999/xlink" x="0px" y="0px"
	 viewBox="0 0 496.06 496.06" style="enable-background:new 0 0 496.06 496.06;" xml:space="preserve">
<style type="text/css">
	.st0{fill:#F6DF19;}
	.st1{fill:#010101;}
</style>
<g>
	<path class="st0" d="M0,0h496.06v496.06H0V0z"/>
	<path class="st1" d="M130.46,414.54l38.03-22.98c7.28,13.06,14.06,23.98,29.93,23.98c15.38,0,24.97-5.95,24.97-29.27V227.69h46.63
		v159.24c0,48.28-28.28,70.28-69.61,70.28C163.04,457.2,141.38,437.86,130.46,414.54"/>
	<path class="st1" d="M295.32,409.58l38.03-21.99c9.92,16.37,22.98,28.28,45.97,28.28c19.35,0,31.58-9.59,31.58-22.98
		c0-16.04-12.73-21.66-33.9-30.92L365.43,357c-33.57-14.39-55.89-32.24-55.89-70.28c0-34.89,26.62-61.68,68.29-61.68
		c29.6,0,50.93,10.25,66.31,37.37l-36.38,23.31c-7.94-14.39-16.7-20.01-29.93-20.01c-13.72,0-22.32,8.6-22.32,20.01
		c0,14.06,8.6,19.68,28.61,28.28l11.57,4.96c39.69,17.03,62.01,34.23,62.01,73.25c0,42-32.91,64.98-77.22,64.98
		C336.83,457.2,308.88,436.54,295.32,409.58"/>
</g>
</svg>
