<?xml version="1.0" encoding="utf-8"?>
<!-- Generator: Adobe Illustrator 23.0.1, SVG Export Plug-In . SVG Version: 6.00 Build 0)  -->
<svg version="1.1" id="Layer_1" xmlns="http://www.w3.org/2000/svg" xmlns:xlink="http://www.w3.org/1999/xlink" x="0px" y="0px"
	 viewBox="0 0 496.06 496.06" style="enable-background:new 0 0 496.06 496.06;" xml:space="preserve">
<style type="text/css">
	.st0{fill:#2684FF;}
	.st1{fill:url(#SVGID_1_);}
	.st2{fill:url(#SVGID_2_);}
</style>
<g>
	<g id="Blue">
		<path class="st0" d="M482.18,234.15L268.72,20.69L248.03,0l0,0L87.35,160.68l0,0l-73.47,73.47c-7.66,7.67-7.66,20.09,0,27.76
			l146.8,146.8l87.35,87.35l160.68-160.68l2.49-2.49l70.98-70.98C489.84,254.24,489.84,241.82,482.18,234.15z M248.03,321.37
			l-73.34-73.34l73.34-73.34l73.34,73.34L248.03,321.37z"/>
		
			<linearGradient id="SVGID_1_" gradientUnits="userSpaceOnUse" x1="234.9034" y1="459.8135" x2="132.4955" y2="562.2216" gradientTransform="matrix(1 0 0 1 0 -359.337)">
			<stop  offset="0.18" style="stop-color:#0052CC"/>
			<stop  offset="1" style="stop-color:#2684FF"/>
		</linearGradient>
		<path class="st1" d="M248.03,174.7c-48.01-48.02-48.25-125.8-0.52-174.11L87.02,161.01l87.35,87.35L248.03,174.7z"/>
		
			<linearGradient id="SVGID_2_" gradientUnits="userSpaceOnUse" x1="262.0431" y1="754.0389" x2="364.2546" y2="651.8274" gradientTransform="matrix(1 0 0 1 0 -359.337)">
			<stop  offset="0.18" style="stop-color:#0052CC"/>
			<stop  offset="1" style="stop-color:#2684FF"/>
		</linearGradient>
		<path class="st2" d="M321.56,247.84l-73.53,73.53c48.24,48.21,48.26,126.4,0.05,174.64c-0.02,0.02-0.03,0.03-0.05,0.05l0,0
			l160.88-160.88L321.56,247.84z"/>
	</g>
</g>
</svg>
