<?xml version="1.0" encoding="utf-8"?>
<!-- Generator: Adobe Illustrator 23.0.1, SVG Export Plug-In . SVG Version: 6.00 Build 0)  -->
<svg version="1.1" id="Layer_1" xmlns="http://www.w3.org/2000/svg" xmlns:xlink="http://www.w3.org/1999/xlink" x="0px" y="0px"
	 viewBox="0 0 566.93 170.31" style="enable-background:new 0 0 566.93 170.31;" xml:space="preserve">
<g>
	<g>
		<path d="M122.08,6.15c0,0.12-0.58,0.12-0.58-0.09c0-1.03-0.21-2.15-0.74-2.74c-0.78-0.79-2.73-1.36-7.16-1.36
			c-0.91,0-1.45,0.04-1.86,0.09c-0.12,0.41-0.17,2.07-0.17,4.67v10.09c0,8.16,0.37,8.85,0.86,9.14c0.54,0.29,1.57,0.54,3.19,0.71
			c0.17,0.04,0.17,0.54,0.04,0.54c-3.85,0-7.24,0-11.17,0c-0.12,0-0.12-0.5,0.04-0.54c1.62-0.17,2.65-0.41,3.19-0.71
			c0.5-0.29,0.86-1,0.86-9.14V6.73c0-2.6-0.04-4.26-0.17-4.67c-0.41-0.04-1.16-0.09-2.07-0.09c-4.26,0-6.17,0.45-7.21,1.36
			c-0.66,0.58-1.07,1.83-1.24,2.81c-0.04,0.21-0.58,0.09-0.58-0.09c0.26-2.11,0.5-4.38,0.58-5.79c0-0.09,0.12-0.17,0.29-0.17
			c1.45,0.24,4.67,0.45,11.88,0.45c9.88,0,11.38-0.29,12.09-0.54c0.21-0.04,0.24,0.09,0.24,0.17
			C122.42,1.77,122.33,4.01,122.08,6.15L122.08,6.15z"/>
		<path d="M146.73,27.22c-0.17,0-0.17-0.5,0.04-0.54c1.62-0.17,2.31-0.41,2.81-0.71c0.5-0.29,0.86-1,0.86-9.14v-2.57H134.8v2.57
			c0,8.16,0.38,8.85,0.86,9.14c0.5,0.29,1.21,0.54,2.81,0.71c0.21,0.04,0.21,0.54,0.09,0.54c-3.97,0-6.62,0-10.52,0
			c-0.12,0-0.17-0.5,0.04-0.54c1.62-0.17,2.31-0.41,2.81-0.71c0.54-0.29,0.86-1,0.86-9.14V10.8c0-8.16-0.33-8.9-0.86-9.14
			c-0.5-0.29-1.21-0.54-2.81-0.71c-0.21-0.04-0.17-0.54-0.04-0.54c3.81,0,6.45,0,10.52,0c0.12,0,0.12,0.5-0.09,0.54
			c-1.62,0.17-2.31,0.41-2.81,0.71c-0.5,0.24-0.86,1-0.86,9.14v1.95h15.64V10.8c0-8.16-0.37-8.9-0.86-9.14
			c-0.5-0.29-1.21-0.54-2.81-0.71c-0.21-0.04-0.21-0.54-0.04-0.54c3.81,0,6.5,0,10.47,0c0.17,0,0.17,0.5-0.04,0.54
			c-1.62,0.17-2.31,0.41-2.81,0.71c-0.5,0.24-0.86,1-0.86,9.14v6.04c0,8.16,0.37,8.85,0.86,9.14c0.5,0.29,1.21,0.54,2.81,0.71
			c0.21,0.04,0.21,0.54,0.04,0.54C153.3,27.22,150.61,27.22,146.73,27.22L146.73,27.22z"/>
		<path d="M181.71,26.52c-0.29,0.46-0.79,0.74-1.83,0.74c-2.52,0-5.09-0.12-8.57-0.12c-2.65,0-3.97,0.04-6.91,0.09
			c-0.12,0-0.12-0.5,0.04-0.54c1.66-0.17,2.36-0.41,2.86-0.71c0.5-0.29,0.86-1,0.86-9.14V10.8c0-8.16-0.37-8.9-0.86-9.14
			c-0.5-0.29-1.21-0.54-2.86-0.71c-0.17-0.04-0.17-0.54-0.04-0.54c3.23,0.04,7.99,0.09,10.68,0.09c3.48,0,4.93-0.04,6.21-0.21
			c0.17,0,0.24,0.09,0.24,0.17c-0.12,1.45-0.21,3.07-0.5,5.3c0,0.17-0.54,0.12-0.54-0.12c0-1.07-0.12-1.98-0.71-2.6
			c-0.71-0.74-1.98-1.12-4.92-1.12c-1.62,0-3.14,0.04-3.55,0.09c-0.09,0.41-0.12,2.07-0.12,4.67v6h3.4c3.93,0,4.47-0.45,4.72-1.95
			c0.04-0.17,0.58-0.12,0.58,0c-0.09,2.28-0.21,3.64-0.21,6c0,0.12-0.58,0.12-0.58-0.04c0-0.79-0.21-1.62-0.62-1.98
			c-0.37-0.38-1.03-0.66-3.93-0.66h-3.35v2.81c0,5.3,0.38,7.57,0.91,8.11c0.5,0.54,1.36,0.79,3.81,0.79c2.57,0,4.02-0.5,4.76-1.28
			c0.58-0.66,1-1.57,1.33-2.85c0.05-0.24,0.58-0.09,0.54,0.12C182.37,23.91,182.04,25.93,181.71,26.52L181.71,26.52z"/>
		<path d="M225.1,25.52c-0.58,0.79-3.1,1.95-8.02,1.95c-9.15,0-14.52-5.83-14.52-13.33c0-7.07,5.21-13.99,14.44-13.99
			c4.67,0,6.87,1.57,8.36,1.28c0.17-0.04,0.24,0.04,0.24,0.12c0.05,1.45,0.17,3.72,0.12,5.96c-0.04,0.21-0.58,0.17-0.58-0.04
			c-0.12-1.12-0.74-2.53-1.62-3.35c-1.45-1.45-4.18-2.65-6.99-2.65c-7.49,0-10.55,5.59-10.55,11.47c0,6.74,4.55,13.04,11.17,13.04
			c3.02,0,5.26-0.79,6.66-2.48c0.86-1.12,1.41-2.36,1.74-3.6c0.04-0.21,0.58-0.04,0.58,0.12C225.97,22.21,225.47,24.95,225.1,25.52
			L225.1,25.52z"/>
		<path d="M251.77,27.22c-0.17,0-0.17-0.5,0.04-0.54c1.62-0.17,2.31-0.41,2.81-0.71c0.5-0.29,0.86-1,0.86-9.14v-2.57h-15.64v2.57
			c0,8.16,0.38,8.85,0.86,9.14c0.5,0.29,1.21,0.54,2.81,0.71c0.21,0.04,0.21,0.54,0.09,0.54c-3.97,0-6.62,0-10.52,0
			c-0.12,0-0.17-0.5,0.04-0.54c1.62-0.17,2.31-0.41,2.81-0.71c0.54-0.29,0.86-1,0.86-9.14V10.8c0-8.16-0.33-8.9-0.86-9.14
			c-0.5-0.29-1.21-0.54-2.81-0.71c-0.21-0.04-0.17-0.54-0.04-0.54c3.81,0,6.45,0,10.52,0c0.12,0,0.12,0.5-0.09,0.54
			c-1.62,0.17-2.31,0.41-2.81,0.71c-0.5,0.24-0.86,1-0.86,9.14v1.95h15.64V10.8c0-8.16-0.37-8.9-0.86-9.14
			c-0.5-0.29-1.21-0.54-2.81-0.71c-0.21-0.04-0.21-0.54-0.04-0.54c3.81,0,6.5,0,10.47,0c0.17,0,0.17,0.5-0.04,0.54
			c-1.62,0.17-2.31,0.41-2.81,0.71c-0.5,0.24-0.86,1-0.86,9.14v6.04c0,8.16,0.37,8.85,0.86,9.14c0.5,0.29,1.21,0.54,2.81,0.71
			c0.21,0.04,0.21,0.54,0.04,0.54C258.35,27.22,255.66,27.22,251.77,27.22L251.77,27.22z"/>
		<path d="M294.08,1.74c-0.38,0.33-0.74,0.95-0.74,9.06v6.95c0,4.97-3.93,9.73-10.43,9.73c-6.45,0-10.64-4.26-10.64-9.64v-7.04
			c0-8.16-0.33-8.9-0.86-9.14c-0.5-0.29-1.21-0.54-2.81-0.71c-0.17-0.04-0.17-0.54-0.04-0.54c3.85,0,6.79,0,10.72,0
			c0.12,0,0.12,0.5-0.05,0.54c-1.62,0.17-2.52,0.41-3.02,0.71c-0.5,0.24-0.86,1-0.86,9.14v5.96c0,5.12,3.35,8.78,8.52,8.78
			c5.09,0,7.61-3.72,7.61-8.31V10.8c0-8.11-0.38-8.73-0.74-9.06c-0.45-0.38-1.4-0.62-3.06-0.79c-0.17-0.04-0.12-0.54,0-0.54
			c3.97,0,5.38,0,9.26,0c0.12,0,0.21,0.5,0,0.54C295.32,1.11,294.49,1.36,294.08,1.74L294.08,1.74z"/>
		<path d="M313.09,1.69c-1.41,0-2.65,0.29-2.86,0.54c-0.24,0.33-0.62,2.57-0.62,8.57c0,2.48,0.12,2.78,0.33,3.02
			c0.45,0.41,1.62,0.66,3.55,0.66c3.4,0,5.22-2.69,5.22-5.92C318.73,4.58,317.02,1.69,313.09,1.69L313.09,1.69z M327.75,27.14
			c-2.52,0-3.93-0.33-5.55-1.41c-2.11-1.45-4.35-4.31-7.69-10.02c-2.03,0.09-3.31,0.04-4.88-0.04v1.16c0,8.16,0.38,8.85,0.86,9.14
			c0.54,0.33,1.78,0.54,3.6,0.71c0.17,0.04,0.17,0.54,0.05,0.54c-3.9,0-7.36,0-11.26,0c-0.12,0-0.17-0.5,0.04-0.54
			c1.62-0.17,2.31-0.41,2.81-0.71c0.54-0.29,0.86-1,0.86-9.14v-6.04c0-8.16-0.33-8.9-0.86-9.14c-0.5-0.29-1.21-0.54-2.81-0.71
			c-0.21-0.04-0.17-0.54-0.04-0.54c1.83,0,3.72,0.09,5.26,0.09c1.53,0,3.19-0.09,5-0.09c6.21,0,9.06,3.43,9.06,6.57
			c0,3.31-2.07,5.96-4.97,7.74c5.5,8.28,8.98,11.62,11.88,11.62c0.38,0,0.91,0,1.21-0.04c0.17,0,0.17,0.58,0.09,0.62
			C329.53,27.1,328.73,27.14,327.75,27.14L327.75,27.14z"/>
		<path d="M354.32,25.52c-0.58,0.79-3.1,1.95-8.02,1.95c-9.14,0-14.52-5.83-14.52-13.33c0-7.07,5.21-13.99,14.45-13.99
			c4.67,0,6.87,1.57,8.36,1.28c0.16-0.04,0.24,0.04,0.24,0.12c0.05,1.45,0.17,3.72,0.12,5.96c-0.04,0.21-0.58,0.17-0.58-0.04
			c-0.12-1.12-0.74-2.53-1.62-3.35c-1.45-1.45-4.18-2.65-6.99-2.65c-7.49,0-10.55,5.59-10.55,11.47c0,6.74,4.55,13.04,11.17,13.04
			c3.02,0,5.26-0.79,6.66-2.48c0.86-1.12,1.41-2.36,1.74-3.6c0.04-0.21,0.58-0.04,0.58,0.12C355.19,22.21,354.7,24.95,354.32,25.52
			L354.32,25.52z"/>
		<path d="M380.99,27.22c-0.17,0-0.17-0.5,0.04-0.54c1.62-0.17,2.31-0.41,2.81-0.71c0.5-0.29,0.86-1,0.86-9.14v-2.57h-15.64v2.57
			c0,8.16,0.38,8.85,0.86,9.14c0.5,0.29,1.19,0.54,2.81,0.71c0.21,0.04,0.21,0.54,0.09,0.54c-3.97,0-6.62,0-10.51,0
			c-0.12,0-0.17-0.5,0.04-0.54c1.62-0.17,2.31-0.41,2.82-0.71c0.54-0.29,0.86-1,0.86-9.14V10.8c0-8.16-0.33-8.9-0.86-9.14
			c-0.5-0.29-1.21-0.54-2.82-0.71c-0.21-0.04-0.17-0.54-0.04-0.54c3.81,0,6.45,0,10.51,0c0.12,0,0.12,0.5-0.09,0.54
			c-1.62,0.17-2.31,0.41-2.81,0.71c-0.5,0.24-0.86,1-0.86,9.14v1.95h15.64V10.8c0-8.16-0.38-8.9-0.86-9.14
			c-0.5-0.29-1.21-0.54-2.81-0.71c-0.21-0.04-0.21-0.54-0.04-0.54c3.81,0,6.5,0,10.47,0c0.17,0,0.17,0.5-0.04,0.54
			c-1.62,0.17-2.31,0.41-2.81,0.71c-0.5,0.24-0.86,1-0.86,9.14v6.04c0,8.16,0.37,8.85,0.86,9.14c0.5,0.29,1.19,0.54,2.81,0.71
			c0.21,0.04,0.21,0.54,0.04,0.54C387.56,27.22,384.87,27.22,380.99,27.22L380.99,27.22z"/>
		<path d="M425.04,1.69c-7.4,0-9.85,5.92-9.85,11.26c0,6.74,4.26,13,10.88,13c7.36,0,9.81-5.92,9.81-11.26
			C435.89,7.94,431.67,1.69,425.04,1.69L425.04,1.69z M425.25,27.47c-7.86,0-13.49-5.83-13.49-13.33c0-7.12,5.62-13.99,14.07-13.99
			c7.9,0,13.49,5.83,13.49,13.33C439.32,20.6,433.74,27.47,425.25,27.47L425.25,27.47z"/>
		<path d="M463.47,5.74c0,0.17-0.54,0.12-0.54-0.12c0-1.07-0.24-1.95-0.86-2.6c-0.66-0.74-2.15-1.12-5.09-1.12
			c-1.62,0-3.48,0.04-3.9,0.09c-0.12,0.41-0.17,2.07-0.17,4.67v6.33h3.23c3.93,0,4.47-0.45,4.71-1.9c0.04-0.17,0.58-0.17,0.58-0.04
			c-0.09,2.28-0.12,3.64-0.21,6c0,0.12-0.58,0.12-0.58-0.04c0-0.74-0.17-1.62-0.58-1.98c-0.38-0.38-1.03-0.66-3.98-0.66h-3.19v2.48
			c0,8.16,0.38,8.85,0.86,9.14c0.55,0.33,1.78,0.54,3.6,0.71c0.17,0.04,0.17,0.54,0.05,0.54c-3.85,0-7.33,0-11.26,0
			c-0.12,0-0.12-0.5,0.04-0.54c1.62-0.17,2.31-0.41,2.82-0.71c0.54-0.29,0.86-1,0.86-9.14v-6.04c0-8.16-0.33-8.9-0.86-9.14
			c-0.5-0.29-1.21-0.54-2.82-0.71c-0.17-0.04-0.17-0.54-0.04-0.54c3.23,0.04,8.16,0.09,10.85,0.09c3.43,0,5.42-0.04,6.69-0.21
			c0.17,0,0.26,0.09,0.26,0.17C463.84,1.89,463.77,3.51,463.47,5.74L463.47,5.74z"/>
		<path d="M44.42,144.53c-7.41,0-9.85,5.92-9.85,11.26c0,6.74,4.26,13,10.88,13c7.36,0,9.81-5.92,9.81-11.26
			C55.26,150.79,51.04,144.53,44.42,144.53L44.42,144.53z M44.62,170.31c-7.86,0-13.49-5.83-13.49-13.33
			c0-7.12,5.64-13.99,14.07-13.99c7.9,0,13.49,5.83,13.49,13.33C58.69,163.45,53.11,170.31,44.62,170.31L44.62,170.31z"/>
		<path d="M82.42,148.59c0,0.17-0.54,0.12-0.54-0.12c0-1.07-0.26-1.95-0.86-2.6c-0.67-0.74-2.15-1.12-5.09-1.12
			c-1.62,0-3.48,0.04-3.88,0.09c-0.12,0.41-0.17,2.07-0.17,4.67v6.33h3.23c3.93,0,4.47-0.46,4.72-1.91
			c0.05-0.17,0.58-0.17,0.58-0.04c-0.09,2.28-0.12,3.64-0.21,6c0,0.12-0.58,0.12-0.58-0.04c0-0.74-0.17-1.62-0.58-1.98
			c-0.37-0.38-1.03-0.67-3.97-0.67h-3.19v2.48c0,8.16,0.38,8.85,0.86,9.14c0.54,0.33,1.78,0.54,3.6,0.71
			c0.17,0.04,0.17,0.54,0.04,0.54c-3.85,0-7.33,0-11.26,0c-0.12,0-0.12-0.5,0.04-0.54c1.62-0.17,2.31-0.41,2.81-0.71
			c0.54-0.29,0.86-1,0.86-9.14v-6.05c0-8.16-0.33-8.9-0.86-9.14c-0.5-0.29-1.21-0.54-2.81-0.71c-0.17-0.05-0.17-0.54-0.04-0.54
			c3.23,0.04,8.16,0.09,10.85,0.09c3.43,0,5.42-0.04,6.71-0.21c0.17,0,0.24,0.09,0.24,0.17C82.8,144.74,82.71,146.36,82.42,148.59
			L82.42,148.59z"/>
		<path d="M119.78,169.37c-0.24,0.46-0.74,0.74-1.78,0.74c-2.53,0-5.09-0.12-8.57-0.12c-2.69,0-4.3,0.04-7.24,0.09
			c-0.12,0-0.12-0.5,0.04-0.54c1.62-0.17,2.31-0.41,2.81-0.71c0.54-0.29,0.86-1,0.86-9.14v-6.05c0-8.16-0.33-8.9-0.86-9.14
			c-0.5-0.29-1.21-0.54-2.81-0.71c-0.17-0.05-0.17-0.54-0.04-0.54c3.85,0,6.59,0,10.52,0c0.12,0,0.12,0.5-0.05,0.54
			c-1.62,0.16-2.36,0.41-2.85,0.71c-0.5,0.24-0.86,1-0.86,9.14v6.05c0,5.3,0.37,7.57,0.91,8.11c0.5,0.54,1.36,0.79,3.81,0.79
			c2.6,0,4.22-0.58,4.97-1.36c0.62-0.67,1.33-2.19,1.66-3.52c0.04-0.24,0.58-0.04,0.54,0.12
			C120.64,166.02,120.14,168.79,119.78,169.37L119.78,169.37z"/>
		<path d="M136,148.34l-3.64,9.97h7.33L136,148.34L136,148.34z M141.14,170.07c-0.12,0-0.17-0.5,0-0.54c1.28-0.12,2.07-0.38,2.07-1
			c0-0.71-0.54-2.57-2.9-8.52h-8.57c-1.95,5.33-2.4,7.36-2.4,8.24c0,0.74,0.58,1.12,2.36,1.28c0.17,0.04,0.12,0.54,0,0.54
			c-2.69,0-4.88,0-8.48,0c-0.12,0-0.21-0.5,0-0.54c1.24-0.12,1.98-0.38,2.6-0.79c0.41-0.33,1.16-0.91,4.14-9.06l2.19-6.05
			c1.28-3.48,2.65-7.07,3.69-10.31c0.09-0.29,1.33-0.29,1.4,0c1.24,3.6,2.31,6.54,3.76,10.31l2.36,6.05
			c3.23,8.16,3.76,8.78,4.35,9.14c0.71,0.45,1.33,0.58,2.48,0.71c0.17,0.04,0.12,0.54,0,0.54
			C146.4,170.07,145.11,170.07,141.14,170.07L141.14,170.07z"/>
		<path d="M175.87,149.01c0,0.12-0.58,0.12-0.58-0.09c0-1.03-0.21-2.15-0.74-2.73c-0.79-0.79-2.74-1.36-7.16-1.36
			c-0.91,0-1.45,0.04-1.86,0.09c-0.12,0.41-0.17,2.07-0.17,4.67v10.1c0,8.16,0.38,8.85,0.86,9.14c0.54,0.29,1.57,0.54,3.19,0.71
			c0.17,0.04,0.17,0.54,0.04,0.54c-3.85,0-7.24,0-11.17,0c-0.12,0-0.12-0.5,0.04-0.54c1.62-0.17,2.65-0.41,3.19-0.71
			c0.5-0.29,0.86-1,0.86-9.14v-10.1c0-2.6-0.04-4.26-0.17-4.67c-0.41-0.05-1.16-0.09-2.07-0.09c-4.26,0-6.17,0.46-7.21,1.36
			c-0.67,0.58-1.08,1.81-1.24,2.81c-0.04,0.21-0.58,0.09-0.58-0.09c0.24-2.11,0.5-4.38,0.58-5.79c0-0.09,0.12-0.17,0.29-0.17
			c1.45,0.24,4.67,0.45,11.88,0.45c9.88,0,11.38-0.29,12.09-0.54c0.21-0.04,0.24,0.09,0.24,0.17
			C176.2,144.62,176.12,146.86,175.87,149.01L175.87,149.01z"/>
		<path d="M205.35,149.01c0,0.12-0.58,0.12-0.58-0.09c0-1.03-0.21-2.15-0.74-2.73c-0.79-0.79-2.74-1.36-7.16-1.36
			c-0.91,0-1.45,0.04-1.86,0.09c-0.12,0.41-0.17,2.07-0.17,4.67v10.1c0,8.16,0.38,8.85,0.86,9.14c0.54,0.29,1.57,0.54,3.19,0.71
			c0.17,0.04,0.17,0.54,0.04,0.54c-3.85,0-7.24,0-11.17,0c-0.12,0-0.12-0.5,0.04-0.54c1.62-0.17,2.65-0.41,3.19-0.71
			c0.5-0.29,0.86-1,0.86-9.14v-10.1c0-2.6-0.04-4.26-0.17-4.67c-0.41-0.05-1.16-0.09-2.07-0.09c-4.26,0-6.17,0.46-7.21,1.36
			c-0.67,0.58-1.08,1.81-1.24,2.81c-0.04,0.21-0.58,0.09-0.58-0.09c0.24-2.11,0.5-4.38,0.58-5.79c0-0.09,0.12-0.17,0.29-0.17
			c1.45,0.24,4.67,0.45,11.88,0.45c9.88,0,11.38-0.29,12.09-0.54c0.21-0.04,0.24,0.09,0.24,0.17
			C205.68,144.62,205.6,146.86,205.35,149.01L205.35,149.01z"/>
		<path d="M228.18,169.37c-0.29,0.46-0.78,0.74-1.81,0.74c-2.53,0-5.09-0.12-8.57-0.12c-2.65,0-3.97,0.04-6.91,0.09
			c-0.12,0-0.12-0.5,0.05-0.54c1.66-0.17,2.36-0.41,2.85-0.71c0.5-0.29,0.86-1,0.86-9.14v-6.05c0-8.16-0.38-8.9-0.86-9.14
			c-0.5-0.29-1.21-0.54-2.85-0.71c-0.17-0.05-0.17-0.54-0.05-0.54c3.23,0.04,7.99,0.09,10.68,0.09c3.48,0,4.92-0.04,6.21-0.21
			c0.17,0,0.24,0.09,0.24,0.17c-0.12,1.45-0.21,3.07-0.5,5.3c0,0.17-0.54,0.12-0.54-0.12c0-1.07-0.12-1.98-0.71-2.6
			c-0.71-0.74-1.98-1.12-4.93-1.12c-1.61,0-3.14,0.04-3.55,0.09c-0.09,0.41-0.12,2.07-0.12,4.67v6h3.4c3.93,0,4.47-0.45,4.72-1.95
			c0.04-0.17,0.58-0.12,0.58,0c-0.09,2.28-0.21,3.64-0.21,6c0,0.12-0.58,0.12-0.58-0.04c0-0.79-0.21-1.62-0.62-1.98
			c-0.38-0.38-1.03-0.67-3.93-0.67h-3.35v2.81c0,5.3,0.38,7.57,0.91,8.11c0.5,0.54,1.36,0.79,3.81,0.79c2.57,0,4.02-0.5,4.76-1.28
			c0.58-0.66,1-1.57,1.33-2.85c0.04-0.24,0.58-0.09,0.54,0.12C228.83,166.76,228.5,168.79,228.18,169.37L228.18,169.37z"/>
		<path d="M245.78,144.53c-1.41,0-2.65,0.29-2.86,0.54c-0.24,0.33-0.62,2.57-0.62,8.57c0,2.48,0.12,2.78,0.33,3.02
			c0.45,0.41,1.62,0.67,3.55,0.67c3.4,0,5.22-2.69,5.22-5.92C251.4,147.43,249.7,144.53,245.78,144.53L245.78,144.53z
			 M260.42,169.99c-2.52,0-3.93-0.33-5.55-1.41c-2.11-1.45-4.35-4.31-7.69-10.02c-2.03,0.09-3.31,0.04-4.88-0.04v1.16
			c0,8.16,0.37,8.85,0.86,9.14c0.54,0.33,1.78,0.54,3.6,0.71c0.17,0.04,0.17,0.54,0.05,0.54c-3.9,0-7.36,0-11.26,0
			c-0.12,0-0.17-0.5,0.04-0.54c1.62-0.17,2.31-0.41,2.81-0.71c0.54-0.29,0.86-1,0.86-9.14v-6.05c0-8.16-0.33-8.9-0.86-9.14
			c-0.5-0.29-1.21-0.54-2.81-0.71c-0.21-0.05-0.17-0.54-0.04-0.54c1.81,0,3.72,0.09,5.26,0.09c1.53,0,3.19-0.09,5-0.09
			c6.21,0,9.06,3.43,9.06,6.57c0,3.31-2.07,5.96-4.97,7.74c5.5,8.28,8.98,11.62,11.88,11.62c0.38,0,0.91,0,1.21-0.04
			c0.17,0,0.17,0.58,0.09,0.62C262.2,169.95,261.42,169.99,260.42,169.99L260.42,169.99z"/>
		<path d="M276.21,157.08c-0.17,0.21-0.41,0.29-0.95,0.29l-5.26,0.09c-5.67,0.04-6.42,0.5-6.91,1.53c-0.05,0.17-0.5-0.09-0.5-0.21
			c0.05-0.95,0.24-2.19,0.38-3.02l6.33-0.09c5.71-0.04,6.24-0.58,6.79-1.57c0.09-0.17,0.54,0.04,0.5,0.16
			C276.5,155.17,276.37,156.83,276.21,157.08L276.21,157.08z"/>
		<path d="M292.93,144.62c-2.48,0-3.52,0.33-3.81,0.71c-0.24,0.33-0.62,2.15-0.62,8.19v6.17c0,5.3,0.37,7.36,0.91,7.95
			c0.74,0.78,1.69,1.07,3.85,1.07c8.11,0,11.84-3.85,11.84-11.62C305.09,150.74,300.83,144.62,292.93,144.62L292.93,144.62z
			 M304.6,165.97c-2.85,2.86-6,4.1-11.3,4.1c-1.83,0-4.76-0.09-6.29-0.09c-1.53,0-3.43,0.09-5.26,0.09c-0.12,0-0.17-0.5,0.04-0.54
			c1.62-0.17,2.31-0.41,2.81-0.71c0.54-0.29,0.86-1,0.86-9.14v-6.05c0-8.16-0.33-8.9-0.86-9.14c-0.5-0.29-1.21-0.54-2.81-0.71
			c-0.21-0.05-0.17-0.54-0.04-0.54c1.81,0,3.72,0.09,5.26,0.09c1.53,0,5.34-0.09,7.21-0.09c8.31,0,14.32,5.59,14.32,13.07
			C308.53,159.93,307.08,163.45,304.6,165.97L304.6,165.97z"/>
		<path d="M324.44,148.34l-3.64,9.97h7.33L324.44,148.34L324.44,148.34z M329.57,170.07c-0.12,0-0.16-0.5,0-0.54
			c1.28-0.12,2.07-0.38,2.07-1c0-0.71-0.54-2.57-2.9-8.52h-8.57c-1.95,5.33-2.4,7.36-2.4,8.24c0,0.74,0.58,1.12,2.36,1.28
			c0.17,0.04,0.12,0.54,0,0.54c-2.69,0-4.88,0-8.48,0c-0.12,0-0.21-0.5,0-0.54c1.24-0.12,1.98-0.38,2.6-0.79
			c0.41-0.33,1.16-0.91,4.14-9.06l2.19-6.05c1.28-3.48,2.64-7.07,3.68-10.31c0.09-0.29,1.33-0.29,1.41,0
			c1.24,3.6,2.31,6.54,3.76,10.31l2.36,6.05c3.23,8.16,3.77,8.78,4.35,9.14c0.71,0.45,1.33,0.58,2.48,0.71
			c0.17,0.04,0.12,0.54,0,0.54C334.83,170.07,333.54,170.07,329.57,170.07L329.57,170.07z"/>
		<path d="M362.7,144.24c-0.41,0.21-1.16,0.54-4.18,5.55l-2.23,3.69c-1,1.62-2,3.23-2.9,4.8v1.36c0,8.19,0.38,8.9,0.86,9.19
			c0.54,0.29,1.57,0.54,3.19,0.71c0.21,0.04,0.16,0.54,0.04,0.54c-3.9,0-7.24,0-11.21,0c-0.12,0-0.12-0.5,0.04-0.54
			c1.66-0.17,2.69-0.41,3.19-0.71c0.5-0.29,0.86-1,0.86-9.19v-1.21c-0.91-1.62-1.83-3.14-2.93-4.97l-2.31-3.69
			c-3.15-5-3.68-5.38-4.26-5.62c-0.71-0.26-1.28-0.37-2.48-0.41c-0.17,0-0.12-0.54,0-0.54c3.93,0,5.38,0,9.31,0
			c0.12,0,0.21,0.54,0,0.54c-0.95,0.05-1.61,0.17-1.95,0.38c-0.33,0.17-0.33,0.62,2.69,5.3l4.14,7.04l4.26-6.95
			c2.93-4.67,2.52-5.09,2.19-5.33c-0.33-0.17-1.07-0.33-2.19-0.41c-0.21,0-0.12-0.54,0-0.54c2.57,0,4.8,0,8.48,0
			c0.12,0,0.21,0.54,0,0.54C364.11,143.84,363.32,144,362.7,144.24L362.7,144.24z"/>
		<path d="M389.16,170.28c-3.9,0-6.33-1.98-6.45-2.48c-0.29-1.36-0.29-3.55-0.09-5.67c0-0.21,0.58-0.21,0.58,0.05
			c0.12,1.57,0.67,3.02,1.28,3.88c1.12,1.57,2.81,2.81,5.22,2.81c3.26,0,5-2.24,5-5c0-6.17-11-7.21-11-14.04
			c0-4.26,3.6-6.91,7.4-6.91c3.15,0,3.77,1.12,5.26,0.74c0.17-0.04,0.24,0.05,0.24,0.13c0,1.45,0.09,3.38,0,5.59
			c-0.05,0.16-0.58,0.16-0.58-0.05c-0.12-1.33-0.71-2.74-1.53-3.55c-0.91-0.95-2.15-1.53-3.69-1.53c-2.6,0-4.35,1.62-4.35,4.19
			c0,5.17,11.42,7.33,11.42,14.07C397.9,167.67,393.35,170.28,389.16,170.28L389.16,170.28z"/>
		<path d="M414.54,148.34l-3.64,9.97h7.33L414.54,148.34L414.54,148.34z M419.68,170.07c-0.12,0-0.17-0.5,0-0.54
			c1.28-0.12,2.07-0.38,2.07-1c0-0.71-0.54-2.57-2.9-8.52h-8.57c-1.95,5.33-2.4,7.36-2.4,8.24c0,0.74,0.58,1.12,2.36,1.28
			c0.17,0.04,0.12,0.54,0,0.54c-2.69,0-4.88,0-8.48,0c-0.12,0-0.21-0.5,0-0.54c1.24-0.12,1.98-0.38,2.6-0.79
			c0.41-0.33,1.16-0.91,4.14-9.06l2.19-6.05c1.28-3.48,2.65-7.07,3.69-10.31c0.09-0.29,1.33-0.29,1.4,0
			c1.24,3.6,2.31,6.54,3.77,10.31l2.36,6.05c3.23,8.16,3.77,8.78,4.35,9.14c0.71,0.45,1.33,0.58,2.48,0.71
			c0.17,0.04,0.12,0.54,0,0.54C424.93,170.07,423.64,170.07,419.68,170.07L419.68,170.07z"/>
		<path d="M432.81,170.07c-0.12,0-0.12-0.5,0.05-0.54c1.62-0.17,2.69-0.41,3.19-0.71c0.5-0.29,0.86-1,0.86-9.14v-6.05
			c0-8.16-0.38-8.9-0.86-9.14c-0.5-0.29-1.57-0.54-3.19-0.71c-0.17-0.05-0.17-0.54-0.05-0.54c3.85,0,7.24,0,11.17,0
			c0.12,0,0.16,0.5-0.04,0.54c-1.62,0.16-2.65,0.41-3.14,0.71c-0.54,0.24-0.91,1-0.91,9.14v6.05c0,8.16,0.38,8.85,0.91,9.14
			c0.5,0.29,1.53,0.54,3.14,0.71c0.21,0.04,0.17,0.54,0.04,0.54C440.14,170.07,436.74,170.07,432.81,170.07L432.81,170.07z"/>
		<path d="M477.51,144.57c-0.38,0.33-0.83,0.91-0.74,9.07l0.04,6.05c0,3.47,0,7.16,0.21,10.38c0,0.21-0.74,0.29-0.95,0.09
			l-20.4-21.31l0.17,10.85c0.09,7.53,0.58,8.69,1.16,9.14c0.38,0.24,1.86,0.66,2.98,0.71c0.21,0,0.12,0.54,0,0.54
			c-4.18,0-5.88,0-9.81,0c-0.12,0-0.21-0.5,0-0.54c1.61-0.17,2.6-0.41,3.06-0.79c0.33-0.33,0.79-0.91,0.71-9.06l-0.09-6.05
			c-0.04-3.48-0.04-7.16-0.24-10.38c-0.04-0.21,0.83-0.29,0.95-0.09l20.45,21.44l-0.17-10.97c-0.05-8.16-0.66-8.78-1.12-9.14
			c-0.5-0.37-1.53-0.58-3.23-0.71c-0.21-0.05-0.12-0.54,0-0.54c3.85,0,5.96,0,9.9,0c0.12,0,0.21,0.5,0,0.54
			C478.75,143.96,477.93,144.2,477.51,144.57L477.51,144.57z"/>
		<path d="M509.61,149.01c0,0.12-0.58,0.12-0.58-0.09c0-1.03-0.21-2.15-0.74-2.73c-0.79-0.79-2.74-1.36-7.16-1.36
			c-0.91,0-1.45,0.04-1.86,0.09c-0.12,0.41-0.17,2.07-0.17,4.67v10.1c0,8.16,0.38,8.85,0.86,9.14c0.55,0.29,1.57,0.54,3.19,0.71
			c0.17,0.04,0.17,0.54,0.04,0.54c-3.85,0-7.24,0-11.17,0c-0.12,0-0.12-0.5,0.04-0.54c1.62-0.17,2.65-0.41,3.19-0.71
			c0.5-0.29,0.86-1,0.86-9.14v-10.1c0-2.6-0.04-4.26-0.17-4.67c-0.41-0.05-1.16-0.09-2.07-0.09c-4.26,0-6.17,0.46-7.21,1.36
			c-0.67,0.58-1.08,1.81-1.24,2.81c-0.04,0.21-0.58,0.09-0.58-0.09c0.26-2.11,0.5-4.38,0.58-5.79c0-0.09,0.12-0.17,0.29-0.17
			c1.45,0.24,4.67,0.45,11.88,0.45c9.88,0,11.38-0.29,12.09-0.54c0.21-0.04,0.24,0.09,0.24,0.17
			C509.94,144.62,509.85,146.86,509.61,149.01L509.61,149.01z"/>
		<path d="M521.34,170.28c-3.9,0-6.33-1.98-6.45-2.48c-0.29-1.36-0.29-3.55-0.09-5.67c0-0.21,0.58-0.21,0.58,0.05
			c0.12,1.57,0.66,3.02,1.28,3.88c1.12,1.57,2.81,2.81,5.22,2.81c3.26,0,5-2.24,5-5c0-6.17-11-7.21-11-14.04
			c0-4.26,3.6-6.91,7.4-6.91c3.15,0,3.77,1.12,5.26,0.74c0.16-0.04,0.24,0.05,0.24,0.13c0,1.45,0.09,3.38,0,5.59
			c-0.05,0.16-0.58,0.16-0.58-0.05c-0.12-1.33-0.71-2.74-1.53-3.55c-0.91-0.95-2.15-1.53-3.68-1.53c-2.6,0-4.35,1.62-4.35,4.19
			c0,5.17,11.42,7.33,11.42,14.07C530.07,167.67,525.52,170.28,521.34,170.28L521.34,170.28z"/>
		<path d="M26.75,55.4c-3.49,0.35-5.75,0.9-6.82,1.52c-1.17,0.54-2.15,2.15-1.89,19.83l0.27,25.31
			c0.18,16.96-2.07,21.62-17.59,28.89c-0.27,0.18-0.99-0.72-0.63-0.99c7.9-5.75,11.39-7.53,11.39-27.9V76.76
			c0-17.67-0.8-19.29-1.89-19.83c-1.07-0.63-3.41-1.17-6.9-1.52c-0.37-0.09-0.37-1.17-0.09-1.17c8.44,0,15.79,0,24.22,0
			C27.22,54.24,27.22,55.32,26.75,55.4L26.75,55.4z"/>
		<path d="M72.51,110.85c-0.62,0.99-1.7,1.62-3.94,1.62c-5.48,0-11.03-0.27-18.58-0.27c-5.75,0-8.62,0.09-14.98,0.18
			c-0.27,0-0.27-1.08,0.09-1.17c3.59-0.37,5.11-0.9,6.2-1.52c1.08-0.63,1.89-2.15,1.89-19.83v-13.1c0-17.67-0.8-19.29-1.89-19.83
			c-1.07-0.63-2.6-1.17-6.2-1.52c-0.35-0.09-0.35-1.17-0.09-1.17c7,0.09,17.31,0.18,23.14,0.18c7.53,0,10.68-0.09,13.46-0.45
			c0.35,0,0.54,0.18,0.54,0.35c-0.27,3.14-0.45,6.63-1.07,11.48c0,0.35-1.17,0.27-1.17-0.27c0-2.34-0.27-4.31-1.52-5.65
			c-1.52-1.62-4.31-2.42-10.68-2.42c-3.51,0-6.82,0.09-7.72,0.18c-0.18,0.9-0.27,4.49-0.27,10.14v13.01h7.35
			c8.52,0,9.69-0.99,10.23-4.21c0.09-0.35,1.25-0.27,1.25,0c-0.18,4.93-0.45,7.9-0.45,13.01c0,0.27-1.25,0.27-1.25-0.09
			c0-1.7-0.45-3.49-1.35-4.31c-0.8-0.8-2.24-1.44-8.52-1.44h-7.27v6.1c0,11.48,0.8,16.42,1.97,17.59c1.07,1.17,2.96,1.7,8.25,1.7
			c5.56,0,8.7-1.07,10.32-2.78c1.25-1.44,2.15-3.41,2.87-6.2c0.09-0.54,1.25-0.18,1.17,0.27C73.95,105.2,73.23,109.6,72.51,110.85
			L72.51,110.85z"/>
		<path d="M97.81,112.82c-8.44,0-13.73-4.31-14-5.38c-0.63-2.96-0.63-7.72-0.18-12.29c0-0.45,1.25-0.45,1.25,0.09
			c0.27,3.41,1.44,6.55,2.78,8.44c2.42,3.41,6.1,6.1,11.31,6.1c7.08,0,10.86-4.84,10.86-10.86c0-13.37-23.86-15.62-23.86-30.42
			c0-9.24,7.8-14.98,16.06-14.98c6.82,0,8.17,2.42,11.39,1.62c0.35-0.09,0.54,0.09,0.54,0.27c0,3.14,0.18,7.35,0,12.11
			c-0.09,0.35-1.25,0.35-1.25-0.09c-0.27-2.87-1.52-5.93-3.32-7.72c-1.97-2.07-4.66-3.32-7.99-3.32c-5.65,0-9.42,3.49-9.42,9.06
			c0,11.21,24.76,15.89,24.76,30.5C116.73,107.18,106.86,112.82,97.81,112.82L97.81,112.82z"/>
		<path d="M179.72,57.11c-0.8,0.72-1.62,2.07-1.62,19.65v15.07c0,10.77-8.52,21.08-22.6,21.08c-14,0-23.06-9.24-23.06-20.9V76.76
			c0-17.67-0.72-19.29-1.89-19.83c-1.08-0.63-2.6-1.17-6.1-1.52c-0.35-0.09-0.35-1.17-0.09-1.17c8.35,0,14.72,0,23.24,0
			c0.27,0,0.27,1.07-0.09,1.17c-3.51,0.35-5.48,0.9-6.55,1.52c-1.07,0.54-1.89,2.15-1.89,19.83v12.92
			c0,11.13,7.27,19.03,18.48,19.03c11.04,0,16.51-8.07,16.51-18.04v-13.9c0-17.59-0.8-18.93-1.62-19.65
			c-0.99-0.8-3.06-1.35-6.63-1.7c-0.35-0.09-0.27-1.17,0-1.17c8.62,0,11.66,0,20.1,0c0.27,0,0.45,1.07,0,1.17
			C182.42,55.76,180.62,56.31,179.72,57.11L179.72,57.11z"/>
		<path d="M206.73,112.82c-8.44,0-13.73-4.31-14-5.38c-0.63-2.96-0.63-7.72-0.18-12.29c0-0.45,1.25-0.45,1.25,0.09
			c0.27,3.41,1.44,6.55,2.78,8.44c2.42,3.41,6.1,6.1,11.31,6.1c7.08,0,10.86-4.84,10.86-10.86c0-13.37-23.86-15.62-23.86-30.42
			c0-9.24,7.8-14.98,16.06-14.98c6.82,0,8.17,2.42,11.39,1.62c0.35-0.09,0.54,0.09,0.54,0.27c0,3.14,0.18,7.35,0,12.11
			c-0.09,0.35-1.25,0.35-1.25-0.09c-0.27-2.87-1.52-5.93-3.32-7.72c-1.97-2.07-4.66-3.32-7.99-3.32c-5.65,0-9.42,3.49-9.42,9.06
			c0,11.21,24.76,15.89,24.76,30.5C225.66,107.18,215.78,112.82,206.73,112.82L206.73,112.82z"/>
		<path d="M307.12,108.7c-1.25,1.7-6.73,4.21-17.41,4.21c-19.83,0-31.49-12.65-31.49-28.89c0-15.34,11.3-30.32,31.31-30.32
			c10.13,0,14.89,3.41,18.13,2.78c0.35-0.09,0.54,0.09,0.54,0.27c0.09,3.14,0.35,8.07,0.27,12.92c-0.09,0.45-1.25,0.37-1.25-0.09
			c-0.27-2.42-1.62-5.48-3.51-7.27c-3.14-3.14-9.06-5.75-15.15-5.75c-16.24,0-22.88,12.11-22.88,24.86
			c0,14.62,9.87,28.26,24.22,28.26c6.55,0,11.39-1.7,14.45-5.38c1.89-2.42,3.06-5.11,3.77-7.8c0.09-0.45,1.25-0.09,1.25,0.27
			C308.99,101.51,307.92,107.44,307.12,108.7L307.12,108.7z"/>
		<path d="M359.06,112.37c-0.35,0-0.35-1.08,0.1-1.17c3.49-0.37,5.03-0.9,6.1-1.52c1.08-0.63,1.89-2.15,1.89-19.83v-5.56h-33.91
			v5.56c0,17.67,0.8,19.2,1.89,19.83c1.07,0.63,2.6,1.17,6.1,1.52c0.45,0.09,0.45,1.17,0.17,1.17c-8.62,0-14.35,0-22.79,0
			c-0.27,0-0.35-1.08,0.09-1.17c3.49-0.37,5.03-0.9,6.1-1.52c1.17-0.63,1.89-2.15,1.89-19.83v-13.1c0-17.67-0.72-19.29-1.89-19.83
			c-1.07-0.63-2.6-1.17-6.1-1.52c-0.45-0.09-0.35-1.17-0.09-1.17c8.25,0,14,0,22.79,0c0.27,0,0.27,1.07-0.17,1.17
			c-3.51,0.35-5.03,0.9-6.1,1.52c-1.07,0.54-1.89,2.15-1.89,19.83v4.21h33.91v-4.21c0-17.67-0.8-19.29-1.89-19.83
			c-1.07-0.63-2.6-1.17-6.1-1.52c-0.45-0.09-0.45-1.17-0.1-1.17c8.25,0,14.08,0,22.7,0c0.37,0,0.37,1.07-0.09,1.17
			c-3.51,0.35-5.03,0.9-6.1,1.52c-1.07,0.54-1.89,2.15-1.89,19.83v13.1c0,17.67,0.8,19.2,1.89,19.83c1.07,0.63,2.59,1.17,6.1,1.52
			c0.45,0.09,0.45,1.17,0.09,1.17C373.32,112.37,367.49,112.37,359.06,112.37L359.06,112.37z"/>
		<path d="M410.19,57.02c-3.06,0-5.75,0.63-6.2,1.17c-0.55,0.72-1.35,5.56-1.35,18.58c0,5.38,0.27,6.01,0.72,6.55
			c0.99,0.9,3.49,1.44,7.72,1.44c7.36,0,11.31-5.83,11.31-12.83C422.39,63.29,418.71,57.02,410.19,57.02L410.19,57.02z
			 M441.95,112.19c-5.48,0-8.52-0.72-12.03-3.06c-4.58-3.14-9.42-9.34-16.69-21.72c-4.39,0.18-7.18,0.09-10.58-0.09v2.51
			c0,17.67,0.8,19.2,1.89,19.83c1.17,0.72,3.86,1.17,7.8,1.52c0.35,0.09,0.35,1.17,0.09,1.17c-8.44,0-15.97,0-24.41,0
			c-0.27,0-0.37-1.08,0.09-1.17c3.51-0.37,5.03-0.9,6.1-1.52c1.17-0.63,1.89-2.15,1.89-19.83v-13.1c0-17.67-0.72-19.29-1.89-19.83
			c-1.08-0.63-2.6-1.17-6.1-1.52c-0.45-0.09-0.35-1.17-0.09-1.17c3.94,0,8.07,0.18,11.39,0.18c3.31,0,6.9-0.18,10.86-0.18
			c13.46,0,19.65,7.45,19.65,14.27c0,7.18-4.49,12.92-10.76,16.77c11.93,17.94,19.46,25.21,25.75,25.21c0.82,0,1.97,0,2.6-0.09
			c0.37,0,0.37,1.25,0.18,1.34C445.81,112.1,444.09,112.19,441.95,112.19L441.95,112.19z"/>
		<path d="M444.01,112.37c-0.27,0-0.27-1.08,0.1-1.17c3.49-0.37,5.83-0.9,6.91-1.52c1.07-0.63,1.89-2.15,1.89-19.83v-13.1
			c0-17.67-0.82-19.29-1.89-19.83c-1.08-0.63-3.41-1.17-6.91-1.52c-0.37-0.09-0.37-1.17-0.1-1.17c8.34,0,15.7,0,24.22,0
			c0.27,0,0.35,1.07-0.09,1.17c-3.49,0.35-5.75,0.9-6.82,1.52c-1.17,0.54-1.97,2.15-1.97,19.83v13.1c0,17.67,0.8,19.2,1.97,19.83
			c1.07,0.63,3.32,1.17,6.82,1.52c0.45,0.09,0.35,1.17,0.09,1.17C459.89,112.37,452.53,112.37,444.01,112.37L444.01,112.37z"/>
		<path d="M490.67,112.82c-8.44,0-13.73-4.31-14-5.38c-0.62-2.96-0.62-7.72-0.17-12.29c0-0.45,1.25-0.45,1.25,0.09
			c0.27,3.41,1.44,6.55,2.78,8.44c2.42,3.41,6.1,6.1,11.31,6.1c7.08,0,10.85-4.84,10.85-10.86c0-13.37-23.86-15.62-23.86-30.42
			c0-9.24,7.8-14.98,16.07-14.98c6.82,0,8.17,2.42,11.39,1.62c0.37-0.09,0.55,0.09,0.55,0.27c0,3.14,0.17,7.35,0,12.11
			c-0.1,0.35-1.25,0.35-1.25-0.09c-0.27-2.87-1.52-5.93-3.32-7.72c-1.97-2.07-4.66-3.32-7.99-3.32c-5.66,0-9.42,3.49-9.42,9.06
			c0,11.21,24.76,15.89,24.76,30.5C509.58,107.18,499.72,112.82,490.67,112.82L490.67,112.82z"/>
		<path d="M566.2,66.71c0,0.27-1.25,0.27-1.25-0.18c0-2.24-0.45-4.66-1.62-5.92c-1.7-1.7-5.92-2.96-15.52-2.96
			c-1.97,0-3.14,0.09-4.03,0.18c-0.27,0.9-0.35,4.49-0.35,10.14v21.89c0,17.67,0.8,19.2,1.89,19.83c1.17,0.63,3.41,1.17,6.91,1.52
			c0.35,0.09,0.35,1.17,0.09,1.17c-8.34,0-15.7,0-24.22,0c-0.27,0-0.27-1.08,0.09-1.17c3.49-0.37,5.75-0.9,6.9-1.52
			c1.07-0.63,1.89-2.15,1.89-19.83V67.98c0-5.65-0.09-9.24-0.37-10.14c-0.89-0.09-2.51-0.18-4.48-0.18
			c-9.24,0-13.37,0.99-15.62,2.96c-1.44,1.25-2.34,3.94-2.69,6.1c-0.09,0.45-1.25,0.18-1.25-0.18c0.54-4.58,1.07-9.51,1.25-12.56
			c0-0.18,0.27-0.35,0.63-0.35c3.14,0.54,10.14,0.99,25.75,0.99c21.44,0,24.67-0.63,26.2-1.17c0.45-0.09,0.55,0.18,0.55,0.35
			C566.92,57.19,566.73,62.04,566.2,66.71L566.2,66.71z"/>
	</g>
</g>
</svg>
