<?xml version="1.0" encoding="utf-8"?>
<!-- Generator: Adobe Illustrator 23.0.1, SVG Export Plug-In . SVG Version: 6.00 Build 0)  -->
<svg version="1.1" id="Layer_1" xmlns="http://www.w3.org/2000/svg" xmlns:xlink="http://www.w3.org/1999/xlink" x="0px" y="0px"
	 viewBox="0 0 496.06 496.06" style="enable-background:new 0 0 496.06 496.06;" xml:space="preserve">
<style type="text/css">
	.st0{fill:#679E63;}
</style>
<g>
	<path class="st0" d="M248.03,496.07c-6.62,0-13.23-1.65-19.02-5.13l-60.7-35.89c-9.1-5.13-4.63-6.95-1.65-7.94
		c12.07-4.13,14.55-5.13,27.46-12.4c1.32-0.83,3.14-0.5,4.47,0.33l46.64,27.62c1.65,0.99,4.13,0.99,5.62,0l181.77-105.03
		c1.65-0.99,2.81-2.98,2.81-4.96V142.95c0-1.98-1.16-3.97-2.81-4.96L250.84,33.12c-1.65-0.99-3.97-0.99-5.62,0L63.62,137.99
		c-1.82,0.99-2.81,2.98-2.81,4.96v209.89c0,1.98,1.16,3.97,2.81,4.8l49.78,28.78c26.96,13.56,43.5-2.48,43.5-18.36V160.81
		c0-2.98,2.32-5.29,5.29-5.29h22.99c2.81,0,5.29,2.32,5.29,5.29v207.24c0,36.06-19.68,56.73-53.92,56.73
		c-10.59,0-18.86,0-41.85-11.41l-47.63-27.46c-11.74-6.78-19.02-19.52-19.02-33.08V142.95c0-13.56,7.28-26.3,19.02-33.08
		L229.01,4.84c11.58-6.45,26.79-6.45,38.21,0l181.77,105.03c11.74,6.78,19.02,19.52,19.02,33.08v209.89
		c0,13.56-7.28,26.3-19.02,33.24L267.22,491.1C261.43,494.41,254.81,496.07,248.03,496.07z"/>
	<path class="st0" d="M304.27,351.51c-79.56,0-96.26-36.55-96.26-67.15c0-2.98,2.32-5.29,5.29-5.29h23.49c2.65,0,4.8,1.82,5.29,4.47
		c3.47,23.98,14.06,36.06,62.19,36.06c38.37,0,54.58-8.6,54.58-28.94c0-11.74-4.63-20.34-64.17-26.3
		c-49.78-4.96-80.55-15.88-80.55-55.74c0-36.72,30.93-58.55,82.7-58.55c58.22,0,87,20.18,90.8,63.68c0.17,1.49-0.33,2.98-1.32,3.97
		c-0.99,0.99-2.32,1.65-3.8,1.65h-23.65c-2.48,0-4.63-1.65-5.13-4.13c-5.62-25.14-19.35-33.24-56.73-33.24
		c-41.85,0-46.64,14.55-46.64,25.47c0,13.23,5.79,17.04,62.19,24.48c55.9,7.44,82.37,17.86,82.37,57.06
		C394.9,328.85,361.82,351.51,304.27,351.51z"/>
</g>
</svg>
