<?xml version="1.0" encoding="utf-8"?>
<!-- Generator: Adobe Illustrator 23.0.1, SVG Export Plug-In . SVG Version: 6.00 Build 0)  -->
<svg version="1.1" id="Layer_1" xmlns="http://www.w3.org/2000/svg" xmlns:xlink="http://www.w3.org/1999/xlink" x="0px" y="0px"
	 viewBox="0 0 496.06 496.06" style="enable-background:new 0 0 496.06 496.06;" xml:space="preserve">
<style type="text/css">
	.st0{fill:url(#SVGID_1_);}
	.st1{fill:#31C5F0;}
</style>
<g>
	
		<radialGradient id="SVGID_1_" cx="-1098.541" cy="1100.0071" r="0.6334" gradientTransform="matrix(545.6736 0 0 -528.3113 599615.5 581272.25)" gradientUnits="userSpaceOnUse">
		<stop  offset="0" style="stop-color:#34364E;stop-opacity:0.98"/>
		<stop  offset="1" style="stop-color:#0C0824"/>
	</radialGradient>
	<path class="st0" d="M20.68,26.84h454.81v442.38H20.68V26.84z"/>
	<path class="st1" d="M20.68,26.84h454.81v442.38H20.68V26.84z M0,489.9h496.06V6.16H0V489.9z M334.52,204.69
		c-16.3,0-21.87,8.25-21.87,15.11c0,7.46,3.68,12.63,25.65,23.96c32.41,15.71,42.55,30.82,42.55,52.89c0,33.1-25.25,50.9-59.35,50.9
		c-17.99,0-33.5-3.68-42.35-8.85c-1.49-0.6-1.69-1.69-1.69-3.28v-30.52c0-2.09,0.99-2.68,2.49-1.69
		c13.02,8.45,27.93,12.23,41.55,12.23c16.3,0,23.16-6.86,23.16-16.1c0-7.46-4.77-14.02-25.65-24.85
		c-29.33-14.02-41.55-28.23-41.55-52.09c0-26.64,20.88-48.81,57.06-48.81c17.79,0,30.22,2.68,36.98,5.77
		c1.69,0.99,2.09,2.68,2.09,4.18v28.33c0,1.69-0.99,2.68-3.08,2.09C361.36,208.17,347.94,204.69,334.52,204.69L334.52,204.69z
		 M156.77,229.24c4.77,0.4,8.45,0.4,16.7,0.4c24.16,0,46.92-8.45,46.92-41.36c0-26.24-16.3-39.47-43.84-39.47
		c-8.25,0-16.1,0.4-19.88,0.6L156.77,229.24L156.77,229.24z M119.89,119.49c0-1.49,2.88-2.49,4.57-2.49
		c13.22-0.6,32.91-0.99,53.28-0.99c57.26,0,79.63,31.41,79.63,71.48c0,52.49-38.07,75.06-84.8,75.06c-7.85,0-10.54-0.4-16.1-0.4
		v79.33c0,1.69-0.6,2.49-2.49,2.49h-31.61c-1.69,0-2.49-0.6-2.49-2.49L119.89,119.49L119.89,119.49z"/>
</g>
</svg>
