<?xml version="1.0" encoding="utf-8"?>
<!-- Generator: Adobe Illustrator 23.0.1, SVG Export Plug-In . SVG Version: 6.00 Build 0)  -->
<svg version="1.1" id="Layer_1" xmlns="http://www.w3.org/2000/svg" xmlns:xlink="http://www.w3.org/1999/xlink" x="0px" y="0px"
	 viewBox="0 0 496.06 496.06" style="enable-background:new 0 0 496.06 496.06;" xml:space="preserve">
<style type="text/css">
	.st0{fill:#2CA01C;}
</style>
<g id="c52E6X.tif">
	<g>
		<path class="st0" d="M236.41,0c7.75,0,15.5,0,23.25,0c2.21,0.37,4.4,0.81,6.61,1.08c9.1,1.13,18.31,1.66,27.29,3.4
			c55.32,10.68,102.06,36.88,139.56,79c32.8,36.83,52.86,79.77,59.91,128.68c1.17,8.11,2.03,16.26,3.03,24.4c0,7.76,0,15.51,0,23.27
			c-0.22,0.61-0.56,1.2-0.63,1.82c-0.92,8.65-1.33,17.4-2.77,25.97c-9.19,54.77-33.24,102.02-73.85,139.95
			c-61.15,57.12-133.77,78.4-215.97,64.25c-56.11-9.66-103.09-37.13-140.78-79.87c-32.3-36.63-52.08-79.25-59.05-127.7
			C1.87,276.13,1,267.97,0,259.82c0-7.76,0-15.51,0-23.27c0.36-2.05,0.82-4.09,1.06-6.16c1.11-9.1,1.61-18.32,3.33-27.32
			c10.4-54.5,35.87-100.77,76.89-138.17c37.22-33.93,80.84-54.66,130.76-61.88C220.15,1.86,228.29,1,236.41,0z M234.46,151.64
			c-0.72-0.25-1.15-0.54-1.59-0.54c-26.29,0.24-52.72-1.08-78.84,1.11c-45.2,3.8-81.34,41.52-85.36,86.37
			c-4.28,47.75,25.27,90.59,71.31,103.31c12.84,3.55,25.93,4.05,39.58,3.12c0-11.05-0.15-21.69,0.08-32.32
			c0.08-3.78-1.39-4.57-4.8-4.61c-6.91-0.08-13.92,0.02-20.71-1.07c-27.77-4.48-48.61-29.78-48.7-58.57
			c-0.09-28.86,20.41-54.77,48.15-58.92c12.81-1.91,26.06-0.89,39.09-1.42c4-0.17,5.34,1.13,5.28,5.18
			c-0.2,13.4-0.07,26.81-0.07,40.22c0,46.68-0.02,93.37,0.01,140.04c0.01,15.42,6.61,27.04,20.43,34.14
			c4.97,2.55,10.29,4.34,16.17,3.25C234.46,324.3,234.46,237.97,234.46,151.64z M316.54,151.61c0,10.89,0.12,21.54-0.07,32.18
			c-0.06,3.39,1.07,4.44,4.42,4.48c6.91,0.07,13.93-0.07,20.71,1.04c28.25,4.62,49.01,29.7,49.06,58.72
			c0.05,29.05-20.54,54.7-48.76,58.88c-12.5,1.85-25.41,0.77-38.12,1.37c-4.66,0.23-5.68-1.54-5.65-5.81
			c0.17-22.29,0.08-44.58,0.08-66.87c0-37.63,0.05-75.27-0.02-112.9c-0.03-17.59-10.03-31.55-25.9-36.19
			c-3.39-0.98-7.03-1.14-10.65-1.69c0,87.35,0,173.68,0,260.56c2.08,0,3.81,0,5.55,0c21.14,0,42.29,0.08,63.44-0.05
			c5.14-0.03,10.34-0.35,15.41-1.19c57.04-9.42,93.25-65,78.4-121.01C411.89,175.79,367.4,146.04,316.54,151.61z"/>
	</g>
</g>
</svg>
