<?xml version="1.0" encoding="utf-8"?>
<!-- Generator: Adobe Illustrator 23.0.1, SVG Export Plug-In . SVG Version: 6.00 Build 0)  -->
<svg version="1.1" id="Layer_1" xmlns="http://www.w3.org/2000/svg" xmlns:xlink="http://www.w3.org/1999/xlink" x="0px" y="0px"
	 viewBox="0 0 496.06 496.06" style="enable-background:new 0 0 496.06 496.06;" xml:space="preserve">
<style type="text/css">
	.st0{fill:#E01E5A;}
	.st1{fill:#36C5F0;}
	.st2{fill:#2EB67D;}
	.st3{fill:#ECB22E;}
</style>
<g>
	<g>
		<path class="st0" d="M104.22,313.47c0,28.68-23.43,52.11-52.11,52.11S0,342.15,0,313.47s23.43-52.11,52.11-52.11h52.11V313.47z"/>
		<path class="st0" d="M130.48,313.47c0-28.68,23.43-52.11,52.11-52.11s52.11,23.43,52.11,52.11v130.48
			c0,28.68-23.43,52.11-52.11,52.11s-52.11-23.43-52.11-52.11C130.48,443.95,130.48,313.47,130.48,313.47z"/>
	</g>
	<g>
		<path class="st1" d="M182.59,104.22c-28.68,0-52.11-23.43-52.11-52.11S153.91,0,182.59,0s52.11,23.43,52.11,52.11v52.11H182.59z"
			/>
		<path class="st1" d="M182.59,130.48c28.68,0,52.11,23.43,52.11,52.11s-23.43,52.11-52.11,52.11H52.11
			C23.43,234.7,0,211.27,0,182.59s23.43-52.11,52.11-52.11H182.59z"/>
	</g>
	<g>
		<path class="st2" d="M391.84,182.59c0-28.68,23.43-52.11,52.11-52.11c28.68,0,52.11,23.43,52.11,52.11s-23.43,52.11-52.11,52.11
			h-52.11L391.84,182.59L391.84,182.59z"/>
		<path class="st2" d="M365.58,182.59c0,28.68-23.43,52.11-52.11,52.11c-28.68,0-52.11-23.43-52.11-52.11V52.11
			C261.36,23.43,284.79,0,313.47,0s52.11,23.43,52.11,52.11L365.58,182.59L365.58,182.59z"/>
	</g>
	<g>
		<path class="st3" d="M313.47,391.84c28.68,0,52.11,23.43,52.11,52.11c0,28.68-23.43,52.11-52.11,52.11s-52.11-23.43-52.11-52.11
			v-52.11L313.47,391.84L313.47,391.84z"/>
		<path class="st3" d="M313.47,365.58c-28.68,0-52.11-23.43-52.11-52.11c0-28.68,23.43-52.11,52.11-52.11h130.48
			c28.68,0,52.11,23.43,52.11,52.11s-23.43,52.11-52.11,52.11L313.47,365.58L313.47,365.58z"/>
	</g>
</g>
</svg>
