<?xml version="1.0" encoding="utf-8"?>
<!-- Generator: Adobe Illustrator 23.0.1, SVG Export Plug-In . SVG Version: 6.00 Build 0)  -->
<svg version="1.1" id="Layer_1" xmlns="http://www.w3.org/2000/svg" xmlns:xlink="http://www.w3.org/1999/xlink" x="0px" y="0px"
	 viewBox="0 0 496.06 496.06" style="enable-background:new 0 0 496.06 496.06;" xml:space="preserve">
<style type="text/css">
	.st0{fill:#020202;}
	.st1{fill:#FFFFFF;}
</style>
<g>
	<path class="st0" d="M185.25,8.1C249.5-8.42,320.36,1.16,377.02,36.18c71.36,42.62,117.77,123.22,118.93,206.31
		c2.64,83.91-41.13,166.99-111.33,212.58c-78.13,52.53-186.32,54.51-266.1,4.62C37.09,411.13-10.32,313.18,1.9,219.19
		C11.81,119.76,88.62,32.21,185.25,8.1L185.25,8.1z"/>
	<path class="st1" d="M175.5,48.73C296.74,0.17,445.57,89.86,458.12,219.85c19.49,116.94-77.63,235.87-196.06,239.34
		c-112.65,11.23-221.67-84.24-224.8-197.55C28.66,169.97,88.95,79.12,175.5,48.73L175.5,48.73z"/>
	<path class="st0" d="M187.73,235.54c54.34-44.43,107.53-90.35,163.03-133.46c-29.07,44.76-59.13,88.86-88.2,133.63
		C237.44,235.87,212.5,235.87,187.73,235.54L187.73,235.54z M233.65,260.32c25.11,0,50.05,0,75.16,0.33
		c-54.67,44.1-107.69,90.52-163.36,133.46C174.51,349.35,204.41,305.08,233.65,260.32L233.65,260.32z"/>
</g>
</svg>
