<?xml version="1.0" encoding="utf-8"?>
<!-- Generator: Adobe Illustrator 23.0.1, SVG Export Plug-In . SVG Version: 6.00 Build 0)  -->
<svg version="1.1" id="Layer_1" xmlns="http://www.w3.org/2000/svg" xmlns:xlink="http://www.w3.org/1999/xlink" x="0px" y="0px"
	 viewBox="0 0 496.06 496.06" style="enable-background:new 0 0 496.06 496.06;" xml:space="preserve">
<style type="text/css">
	.st0{fill:#F02D28;}
</style>
<g id="UhhDeP.tif">
	<g>
		<path class="st0" d="M0,478.53c27.63-60.03,63.37-115.1,102.94-167.81c4.85-6.47,10.05-12.63,17.84-15.46
			c8.5-3.07,12.99,0.35,11.78,9.37c-1.08,8.02-5.13,15.03-9.23,21.94c-15.32,25.87-30.73,51.7-42.69,79.36
			c-2.53,5.86-7.1,12.91-2.23,18.57c5.53,6.42,13.39,2.41,19.65-0.25c44.07-18.71,81.45-46.31,110.43-84.71
			c3.09-4.09,5.68-8.67,7.84-13.33c11.86-25.53,4.74-41.26-22.22-49.12c-28.41-8.27-57.63-7.07-86.73-7.09
			c-12.18-0.01-24.44,1.28-36.47-1.81c-5-1.28-10.9-2.18-11.03-8.81c-0.12-5.57,4.91-7.68,9.26-9.41
			c18.94-7.54,38.92-11.15,58.97-13.08c31.37-3.01,62.85-3.56,93.87,3.95c4.56,1.1,9.14,2.26,13.57,3.77
			c43.93,15.04,54.44,39.88,33.9,81.42c-18.19,36.79-46.93,64.23-80.02,87.42c-44.62,31.28-93.61,53.68-145.63,69.46
			c-14.26,4.32-28.99,8.87-43.8,1.24C0,482.29,0,480.41,0,478.53z"/>
		<path class="st0" d="M496.06,193.85c-10.85,8.29-23.77,8.02-36.35,8.39c-23.92,0.7-47.88-0.32-71.65,3.56
			c-24.71,4.03-31.44,17.13-18.3,38.62c15.77,25.77,38.49,46.04,57.02,69.66c9.26,11.82,19.27,23.07,27.09,35.96
			c20.21,33.27,10.38,62.37-25.99,76.78c-15.89,6.3-32.56,9.02-49.52,9.73c-40.96,1.72-81.6-1.61-121.98-8.47
			c-2.31-0.39-4.65-0.8-6.85-1.57c-5.8-2.06-12.72-4.14-12.13-11.62c0.61-7.62,7.98-8.94,13.95-9.27
			c27.17-1.52,54.37-2.57,81.57-3.66c17.37-0.7,34.71-1.78,51.65-5.82c18.71-4.46,23.49-15.04,14.22-32.26
			c-10.55-19.59-26.6-35.09-40.5-52.19c-12.43-15.3-24.93-30.54-37.05-46.08c-6.65-8.54-11.98-17.93-15.36-28.35
			c-6.85-21.1-1.43-37.52,16.9-50.33c20.11-14.06,43.4-17.25,66.95-18.58c27.37-1.55,54.29,2.78,81.02,8.21
			c9.33,1.9,17.99,5.33,25.3,11.65C496.06,190.09,496.06,191.97,496.06,193.85z"/>
		<path class="st0" d="M284.67,7.83c14.34,4.39,29.51,4.89,43.78,10c37.23,13.33,47.82,40.37,28.85,75.62
			c-14.54,27.02-36.32,47.69-60.04,66.35c-26.65,20.96-55.11,39.1-86.61,52.09c-2.17,0.89-4.33,1.84-6.58,2.5
			c-6.23,1.82-13.92,5.64-18.21-0.84c-5.23-7.87,2.94-13.06,7.93-17.17c18.84-15.49,38.64-29.82,57.3-45.52
			c19.75-16.62,38.97-34.05,52.41-56.54c14.89-24.92,9.62-37.59-18.51-45.16c-26.55-7.15-53.72-8.12-81.02-7.43
			c-9.39,0.24-18.83,0.43-27.86-2.77c-4.01-1.42-8.29-3.12-8.13-8.38c0.14-4.46,4.04-6.09,7.45-7.57
			c17.87-7.81,37.07-9.86,56.1-12.69c3.67-0.55,7.26-1.65,10.88-2.5C256.49,7.83,270.58,7.83,284.67,7.83z"/>
	</g>
</g>
</svg>
