<?xml version="1.0" encoding="utf-8"?>
<!-- Generator: Adobe Illustrator 23.0.1, SVG Export Plug-In . SVG Version: 6.00 Build 0)  -->
<svg version="1.1" id="Logo_FIXED" xmlns="http://www.w3.org/2000/svg" xmlns:xlink="http://www.w3.org/1999/xlink" x="0px" y="0px"
	 viewBox="0 0 283.5 283.5" style="enable-background:new 0 0 283.5 283.5;" xml:space="preserve">
<style type="text/css">
	.st0{fill:#1DA1F2;}
</style>
<title>Twitter_Logo_Blue</title>
<path class="st0" d="M89.1,256.9c107,0,165.5-88.6,165.5-165.5c0-2.5,0-5-0.2-7.5c11.4-8.2,21.2-18.4,29-30.1
	c-10.6,4.7-21.9,7.8-33.4,9.2c12.1-7.3,21.2-18.7,25.6-32.2c-11.4,6.8-23.9,11.5-36.9,14.1c-22-23.4-58.9-24.6-82.3-2.5
	c-15.1,14.2-21.5,35.4-16.8,55.6C92.8,95.6,49.3,73.5,19.7,37.2c-15.4,26.6-7.6,60.6,18,77.6c-9.3-0.3-18.3-2.8-26.4-7.3
	c0,0.2,0,0.5,0,0.7c0,27.7,19.5,51.5,46.7,57c-8.6,2.3-17.5,2.7-26.3,1c7.6,23.7,29.5,39.9,54.3,40.4c-20.6,16.2-46,25-72.2,24.9
	c-4.6,0-9.2-0.3-13.8-0.8C26.6,247.8,57.5,256.9,89.1,256.9"/>
</svg>
