<?xml version="1.0" encoding="utf-8"?>
<!-- Generator: Adobe Illustrator 23.0.1, SVG Export Plug-In . SVG Version: 6.00 Build 0)  -->
<svg version="1.1" id="Layer_1" xmlns="http://www.w3.org/2000/svg" xmlns:xlink="http://www.w3.org/1999/xlink" x="0px" y="0px"
	 viewBox="0 0 566.93 390.19" style="enable-background:new 0 0 566.93 390.19;" xml:space="preserve">
<style type="text/css">
	.st0{fill:#231F20;}
	.st1{fill:none;stroke:#231F20;stroke-width:0.7273;stroke-miterlimit:3.8637;}
	.st2{clip-path:url(#SVGID_2_);fill:none;stroke:#231F20;stroke-width:0.6061;stroke-miterlimit:3.8637;}
	.st3{fill:none;stroke:#231F20;stroke-width:0.6061;stroke-miterlimit:3.8637;}
	.st4{clip-path:url(#SVGID_4_);fill:none;stroke:#231F20;stroke-width:0.6061;stroke-miterlimit:3.8637;}
	.st5{clip-path:url(#SVGID_6_);fill:none;stroke:#231F20;stroke-width:0.6061;stroke-miterlimit:3.8637;}
	.st6{fill:#CB2026;}
	.st7{clip-path:url(#SVGID_8_);fill:none;stroke:#C41230;stroke-width:2.4242;}
</style>
<g>
	<path class="st0" d="M121.3,190.61c0,4.63,0,8.43,0.25,10.46c0.14,1.4,0.43,2.46,1.87,2.65c0.68,0.1,1.74,0.2,2.17,0.2
		c0.28,0,0.38,0.14,0.38,0.28c0,0.24-0.24,0.38-0.76,0.38c-2.65,0-5.69-0.15-5.93-0.15c-0.24,0-3.28,0.15-4.73,0.15
		c-0.53,0-0.76-0.09-0.76-0.38c0-0.14,0.09-0.28,0.39-0.28c0.42,0,1.01-0.09,1.44-0.2c0.97-0.19,1.2-1.25,1.4-2.65
		c0.24-2.03,0.24-5.83,0.24-10.46v-20.38l-7.13,0.09c-2.98,0.04-4.14,0.39-4.91,1.54c-0.53,0.82-0.68,1.16-0.82,1.49
		c-0.15,0.39-0.29,0.49-0.48,0.49c-0.14,0-0.24-0.15-0.24-0.44c0-0.49,0.97-4.64,1.06-5.01c0.1-0.29,0.29-0.92,0.48-0.92
		c0.34,0,0.82,0.48,2.12,0.58c1.4,0.13,3.23,0.24,3.81,0.24h18.07c1.55,0,2.65-0.14,3.42-0.24c0.72-0.15,1.16-0.24,1.35-0.24
		c0.24,0,0.24,0.29,0.24,0.58c0,1.45-0.14,4.77-0.14,5.3c0,0.44-0.15,0.63-0.34,0.63c-0.24,0-0.33-0.15-0.38-0.82l-0.05-0.53
		c-0.19-1.45-1.3-2.56-5.93-2.65l-6.07-0.09V190.61L121.3,190.61L121.3,190.61z"/>
	<path class="st1" d="M121.3,190.61c0,4.63,0,8.43,0.25,10.46c0.14,1.4,0.43,2.46,1.87,2.65c0.68,0.1,1.74,0.2,2.17,0.2
		c0.28,0,0.38,0.14,0.38,0.28c0,0.24-0.24,0.38-0.76,0.38c-2.65,0-5.69-0.15-5.93-0.15c-0.24,0-3.28,0.15-4.73,0.15
		c-0.53,0-0.76-0.09-0.76-0.38c0-0.14,0.09-0.28,0.39-0.28c0.42,0,1.01-0.09,1.44-0.2c0.97-0.19,1.2-1.25,1.4-2.65
		c0.24-2.03,0.24-5.83,0.24-10.46v-20.38l-7.13,0.09c-2.98,0.04-4.14,0.39-4.91,1.54c-0.53,0.82-0.68,1.16-0.82,1.49
		c-0.15,0.39-0.29,0.49-0.48,0.49c-0.14,0-0.24-0.15-0.24-0.44c0-0.49,0.97-4.64,1.06-5.01c0.1-0.29,0.29-0.92,0.48-0.92
		c0.34,0,0.82,0.48,2.12,0.58c1.4,0.13,3.23,0.24,3.81,0.24h18.07c1.55,0,2.65-0.14,3.42-0.24c0.72-0.15,1.16-0.24,1.35-0.24
		c0.24,0,0.24,0.29,0.24,0.58c0,1.45-0.14,4.77-0.14,5.3c0,0.44-0.15,0.63-0.34,0.63c-0.24,0-0.33-0.15-0.38-0.82l-0.05-0.53
		c-0.19-1.45-1.3-2.56-5.93-2.65l-6.07-0.09V190.61L121.3,190.61L121.3,190.61z"/>
	<path class="st0" d="M177.49,190.61c0,4.63,0,8.43,0.24,10.46c0.15,1.4,0.44,2.46,1.88,2.65c0.68,0.1,1.74,0.2,2.17,0.2
		c0.28,0,0.38,0.14,0.38,0.28c0,0.24-0.24,0.38-0.77,0.38c-2.64,0-5.69-0.15-5.93-0.15c-0.24,0-3.28,0.15-4.72,0.15
		c-0.53,0-0.76-0.09-0.76-0.38c0-0.14,0.09-0.28,0.37-0.28c0.44,0,1.02-0.09,1.45-0.2c0.96-0.19,1.2-1.25,1.4-2.65
		c0.24-2.03,0.24-5.83,0.24-10.46v-5.06c0-0.19-0.14-0.29-0.29-0.29h-20.43c-0.14,0-0.29,0.05-0.29,0.29v5.06
		c0,4.63,0,8.43,0.25,10.46c0.15,1.4,0.43,2.46,1.87,2.65c0.67,0.1,1.74,0.2,2.17,0.2c0.28,0,0.39,0.14,0.39,0.28
		c0,0.24-0.25,0.38-0.77,0.38c-2.65,0-5.68-0.15-5.93-0.15c-0.24,0-3.28,0.15-4.72,0.15c-0.53,0-0.77-0.09-0.77-0.38
		c0-0.14,0.1-0.28,0.39-0.28c0.43,0,1.01-0.09,1.44-0.2c0.97-0.19,1.21-1.25,1.4-2.65c0.24-2.03,0.24-5.83,0.24-10.46v-8.48
		c0-7.52,0-8.87-0.1-10.41c-0.09-1.64-0.48-2.41-2.07-2.75c-0.38-0.09-1.2-0.14-1.64-0.14c-0.19,0-0.38-0.1-0.38-0.3
		c0-0.28,0.24-0.38,0.76-0.38c2.17,0,5.21,0.14,5.45,0.14c0.24,0,3.28-0.14,4.73-0.14c0.53,0,0.77,0.09,0.77,0.38
		c0,0.2-0.19,0.3-0.38,0.3c-0.34,0-0.62,0.05-1.21,0.14c-1.3,0.24-1.68,1.06-1.78,2.75c-0.09,1.54-0.09,2.89-0.09,10.41v1.01
		c0,0.24,0.15,0.29,0.29,0.29h20.43c0.15,0,0.29-0.05,0.29-0.29v-1.01c0-7.52,0-8.87-0.09-10.41c-0.09-1.64-0.48-2.41-2.07-2.75
		c-0.38-0.09-1.2-0.14-1.64-0.14c-0.19,0-0.38-0.1-0.38-0.3c0-0.28,0.24-0.38,0.77-0.38c2.17,0,5.2,0.14,5.44,0.14
		c0.24,0,3.28-0.14,4.72-0.14c0.53,0,0.78,0.09,0.78,0.38c0,0.2-0.2,0.3-0.39,0.3c-0.34,0-0.63,0.05-1.2,0.14
		c-1.3,0.24-1.7,1.06-1.79,2.75c-0.1,1.54-0.1,2.89-0.1,10.41V190.61L177.49,190.61L177.49,190.61z"/>
	<path class="st1" d="M177.49,190.61c0,4.63,0,8.43,0.24,10.46c0.15,1.4,0.44,2.46,1.88,2.65c0.68,0.1,1.74,0.2,2.17,0.2
		c0.28,0,0.38,0.14,0.38,0.28c0,0.24-0.24,0.38-0.77,0.38c-2.64,0-5.69-0.15-5.93-0.15c-0.24,0-3.28,0.15-4.72,0.15
		c-0.53,0-0.76-0.09-0.76-0.38c0-0.14,0.09-0.28,0.37-0.28c0.44,0,1.02-0.09,1.45-0.2c0.96-0.19,1.2-1.25,1.4-2.65
		c0.24-2.03,0.24-5.83,0.24-10.46v-5.06c0-0.19-0.14-0.29-0.29-0.29h-20.43c-0.14,0-0.29,0.05-0.29,0.29v5.06
		c0,4.63,0,8.43,0.25,10.46c0.15,1.4,0.43,2.46,1.87,2.65c0.67,0.1,1.74,0.2,2.17,0.2c0.28,0,0.39,0.14,0.39,0.28
		c0,0.24-0.25,0.38-0.77,0.38c-2.65,0-5.68-0.15-5.93-0.15c-0.24,0-3.28,0.15-4.72,0.15c-0.53,0-0.77-0.09-0.77-0.38
		c0-0.14,0.1-0.28,0.39-0.28c0.43,0,1.01-0.09,1.44-0.2c0.97-0.19,1.21-1.25,1.4-2.65c0.24-2.03,0.24-5.83,0.24-10.46v-8.48
		c0-7.52,0-8.87-0.1-10.41c-0.09-1.64-0.48-2.41-2.07-2.75c-0.38-0.09-1.2-0.14-1.64-0.14c-0.19,0-0.38-0.1-0.38-0.3
		c0-0.28,0.24-0.38,0.76-0.38c2.17,0,5.21,0.14,5.45,0.14c0.24,0,3.28-0.14,4.73-0.14c0.53,0,0.77,0.09,0.77,0.38
		c0,0.2-0.19,0.3-0.38,0.3c-0.34,0-0.62,0.05-1.21,0.14c-1.3,0.24-1.68,1.06-1.78,2.75c-0.09,1.54-0.09,2.89-0.09,10.41v1.01
		c0,0.24,0.15,0.29,0.29,0.29h20.43c0.15,0,0.29-0.05,0.29-0.29v-1.01c0-7.52,0-8.87-0.09-10.41c-0.09-1.64-0.48-2.41-2.07-2.75
		c-0.38-0.09-1.2-0.14-1.64-0.14c-0.19,0-0.38-0.1-0.38-0.3c0-0.28,0.24-0.38,0.77-0.38c2.17,0,5.2,0.14,5.44,0.14
		c0.24,0,3.28-0.14,4.72-0.14c0.53,0,0.78,0.09,0.78,0.38c0,0.2-0.2,0.3-0.39,0.3c-0.34,0-0.63,0.05-1.2,0.14
		c-1.3,0.24-1.7,1.06-1.79,2.75c-0.1,1.54-0.1,2.89-0.1,10.41V190.61L177.49,190.61L177.49,190.61z"/>
	<path class="st0" d="M198.69,182.13c0-7.52,0-8.87-0.09-10.41c-0.1-1.64-0.48-2.41-2.07-2.75c-0.39-0.09-1.21-0.14-1.64-0.14
		c-0.2,0-0.39-0.1-0.39-0.3c0-0.28,0.24-0.38,0.77-0.38c2.18,0,5.21,0.14,5.44,0.14c0.34,0,9.93,0,11.04-0.05
		c0.92-0.05,1.69-0.14,2.07-0.24c0.24-0.05,0.44-0.24,0.68-0.24c0.15,0,0.19,0.19,0.19,0.43c0,0.34-0.23,0.92-0.39,2.27
		c-0.04,0.48-0.14,2.6-0.24,3.18c-0.04,0.24-0.15,0.53-0.33,0.53c-0.29,0-0.39-0.24-0.39-0.63c0-0.33-0.04-1.15-0.29-1.73
		c-0.34-0.77-0.82-1.35-3.43-1.64c-0.81-0.09-6.07-0.14-6.6-0.14c-0.19,0-0.29,0.14-0.29,0.49v13.3c0,0.34,0.05,0.47,0.29,0.47
		c0.62,0,6.56,0,7.66-0.09c1.15-0.09,1.83-0.19,2.27-0.68c0.34-0.38,0.53-0.62,0.72-0.62c0.14,0,0.24,0.09,0.24,0.38
		c0,0.29-0.24,1.11-0.37,2.7c-0.1,0.97-0.2,2.75-0.2,3.09c0,0.39,0,0.91-0.34,0.91c-0.24,0-0.34-0.19-0.34-0.43
		c0-0.48,0-0.96-0.19-1.59c-0.19-0.68-0.63-1.49-2.51-1.69c-1.29-0.14-6.07-0.24-6.89-0.24c-0.24,0-0.34,0.15-0.34,0.34v4.24
		c0,1.64-0.06,7.23,0,8.23c0.14,3.34,0.86,3.96,5.59,3.96c1.26,0,3.38,0,4.63-0.54c1.25-0.52,1.83-1.49,2.16-3.47
		c0.1-0.51,0.19-0.72,0.44-0.72c0.29,0,0.29,0.39,0.29,0.72c0,0.39-0.39,3.67-0.63,4.68c-0.34,1.25-0.72,1.25-2.6,1.25
		c-7.27,0-10.51-0.29-11.91-0.29c-0.09,0-0.91,0.05-1.92,0.05c-0.97,0.05-2.08,0.09-2.8,0.09c-0.52,0-0.77-0.09-0.77-0.38
		c0-0.14,0.09-0.28,0.38-0.28c0.43,0,1.01-0.09,1.45-0.2c0.96-0.19,1.2-1.25,1.4-2.65c0.24-2.03,0.24-5.83,0.24-10.46V182.13
		L198.69,182.13L198.69,182.13z"/>
	<path class="st1" d="M198.69,182.13c0-7.52,0-8.87-0.09-10.41c-0.1-1.64-0.48-2.41-2.07-2.75c-0.39-0.09-1.21-0.14-1.64-0.14
		c-0.2,0-0.39-0.1-0.39-0.3c0-0.28,0.24-0.38,0.77-0.38c2.18,0,5.21,0.14,5.44,0.14c0.34,0,9.93,0,11.04-0.05
		c0.92-0.05,1.69-0.14,2.07-0.24c0.24-0.05,0.44-0.24,0.68-0.24c0.15,0,0.19,0.19,0.19,0.43c0,0.34-0.23,0.92-0.39,2.27
		c-0.04,0.48-0.14,2.6-0.24,3.18c-0.04,0.24-0.15,0.53-0.33,0.53c-0.29,0-0.39-0.24-0.39-0.63c0-0.33-0.04-1.15-0.29-1.73
		c-0.34-0.77-0.82-1.35-3.43-1.64c-0.81-0.09-6.07-0.14-6.6-0.14c-0.19,0-0.29,0.14-0.29,0.49v13.3c0,0.34,0.05,0.47,0.29,0.47
		c0.62,0,6.56,0,7.66-0.09c1.15-0.09,1.83-0.19,2.27-0.68c0.34-0.38,0.53-0.62,0.72-0.62c0.14,0,0.24,0.09,0.24,0.38
		c0,0.29-0.24,1.11-0.37,2.7c-0.1,0.97-0.2,2.75-0.2,3.09c0,0.39,0,0.91-0.34,0.91c-0.24,0-0.34-0.19-0.34-0.43
		c0-0.48,0-0.96-0.19-1.59c-0.19-0.68-0.63-1.49-2.51-1.69c-1.29-0.14-6.07-0.24-6.89-0.24c-0.24,0-0.34,0.15-0.34,0.34v4.24
		c0,1.64-0.06,7.23,0,8.23c0.14,3.34,0.86,3.96,5.59,3.96c1.26,0,3.38,0,4.63-0.54c1.25-0.52,1.83-1.49,2.16-3.47
		c0.1-0.51,0.19-0.72,0.44-0.72c0.29,0,0.29,0.39,0.29,0.72c0,0.39-0.39,3.67-0.63,4.68c-0.34,1.25-0.72,1.25-2.6,1.25
		c-7.27,0-10.51-0.29-11.91-0.29c-0.09,0-0.91,0.05-1.92,0.05c-0.97,0.05-2.08,0.09-2.8,0.09c-0.52,0-0.77-0.09-0.77-0.38
		c0-0.14,0.09-0.28,0.38-0.28c0.43,0,1.01-0.09,1.45-0.2c0.96-0.19,1.2-1.25,1.4-2.65c0.24-2.03,0.24-5.83,0.24-10.46V182.13
		L198.69,182.13L198.69,182.13z"/>
	<path class="st0" d="M6.91,261.32c0-11.86,0-13.99-0.15-16.42c-0.16-2.58-0.76-3.81-3.27-4.34c-0.6-0.15-1.9-0.22-2.58-0.22
		c-0.31,0-0.61-0.15-0.61-0.46c0-0.46,0.37-0.61,1.21-0.61c3.42,0,8.06,0.23,8.74,0.23c0.68,0,5.25-0.23,7.53-0.23
		c0.83,0,1.22,0.15,1.22,0.61c0,0.31-0.31,0.46-0.61,0.46c-0.53,0-0.98,0.07-1.9,0.22c-2.05,0.3-2.67,1.68-2.81,4.34
		c-0.16,2.43-0.16,4.56-0.16,16.42v10.64c0,10.94,2.43,15.66,5.71,18.78c3.72,3.49,7.15,4.18,11.48,4.18c4.64,0,9.2-2.21,11.93-5.48
		c3.5-4.33,4.41-10.79,4.41-18.62v-9.5c0-11.86,0-13.99-0.15-16.42c-0.15-2.58-0.76-3.81-3.27-4.34c-0.6-0.15-1.9-0.22-2.59-0.22
		c-0.3,0-0.61-0.15-0.61-0.46c0-0.46,0.38-0.61,1.22-0.61c3.42,0,7.6,0.23,8.05,0.23c0.53,0,4.11-0.23,6.39-0.23
		c0.83,0,1.22,0.15,1.22,0.61c0,0.31-0.3,0.46-0.61,0.46c-0.53,0-0.99,0-1.9,0.22c-2.05,0.38-2.65,1.68-2.81,4.34
		c-0.14,2.43-0.14,4.56-0.14,16.42v8.13c0,8.21-0.92,17.33-6.99,22.73c-5.48,4.86-11.18,5.63-15.66,5.63
		c-2.59,0-10.26-0.31-15.66-5.4c-3.72-3.58-6.61-8.91-6.61-20V261.32L6.91,261.32L6.91,261.32z"/>
	<g>
		<defs>
			<rect id="SVGID_1_" x="0" width="566.93" height="390.19"/>
		</defs>
		<clipPath id="SVGID_2_">
			<use xlink:href="#SVGID_1_"  style="overflow:visible;"/>
		</clipPath>
		<path class="st2" d="M6.91,261.32c0-11.86,0-13.99-0.15-16.42c-0.16-2.58-0.76-3.81-3.27-4.34c-0.6-0.15-1.9-0.22-2.58-0.22
			c-0.31,0-0.61-0.15-0.61-0.46c0-0.46,0.37-0.61,1.21-0.61c3.42,0,8.06,0.23,8.74,0.23c0.68,0,5.25-0.23,7.53-0.23
			c0.83,0,1.22,0.15,1.22,0.61c0,0.31-0.31,0.46-0.61,0.46c-0.53,0-0.98,0.07-1.9,0.22c-2.05,0.3-2.67,1.68-2.81,4.34
			c-0.16,2.43-0.16,4.56-0.16,16.42v10.64c0,10.94,2.43,15.66,5.71,18.78c3.72,3.49,7.15,4.18,11.48,4.18
			c4.64,0,9.2-2.21,11.93-5.48c3.5-4.33,4.41-10.79,4.41-18.62v-9.5c0-11.86,0-13.99-0.15-16.42c-0.15-2.58-0.76-3.81-3.27-4.34
			c-0.6-0.15-1.9-0.22-2.59-0.22c-0.3,0-0.61-0.15-0.61-0.46c0-0.46,0.38-0.61,1.22-0.61c3.42,0,7.6,0.23,8.05,0.23
			c0.53,0,4.11-0.23,6.39-0.23c0.83,0,1.22,0.15,1.22,0.61c0,0.31-0.3,0.46-0.61,0.46c-0.53,0-0.99,0-1.9,0.22
			c-2.05,0.38-2.65,1.68-2.81,4.34c-0.14,2.43-0.14,4.56-0.14,16.42v8.13c0,8.21-0.92,17.33-6.99,22.73
			c-5.48,4.86-11.18,5.63-15.66,5.63c-2.59,0-10.26-0.31-15.66-5.4c-3.72-3.58-6.61-8.91-6.61-20V261.32L6.91,261.32L6.91,261.32z"
			/>
	</g>
	<path class="st0" d="M82.86,286.41c0.15,6.23,0.91,8.21,2.96,8.82c1.44,0.38,3.12,0.45,3.8,0.45c0.38,0,0.6,0.16,0.6,0.46
		c0,0.46-0.45,0.61-1.36,0.61c-4.33,0-7.37-0.23-8.05-0.23c-0.69,0-3.88,0.23-7.3,0.23c-0.76,0-1.22-0.08-1.22-0.61
		c0-0.3,0.23-0.46,0.61-0.46c0.61,0,1.98-0.07,3.12-0.45c1.89-0.53,2.28-2.74,2.28-9.65l0.07-43.56c0-2.97,0.22-3.81,0.83-3.81
		c0.62,0,1.91,1.68,2.66,2.44c1.14,1.29,12.46,13.53,24.17,26.07c7.53,8.06,15.82,17.34,18.25,19.84l-0.84-38.61
		c-0.07-4.94-0.61-6.61-2.97-7.21c-1.36-0.31-3.11-0.38-3.72-0.38c-0.53,0-0.61-0.23-0.61-0.53c0-0.46,0.61-0.54,1.51-0.54
		c3.42,0,7.07,0.23,7.91,0.23c0.83,0,3.35-0.23,6.46-0.23c0.83,0,1.37,0.07,1.37,0.54c0,0.3-0.31,0.53-0.84,0.53
		c-0.38,0-0.91,0-1.82,0.22c-2.51,0.53-2.81,2.21-2.81,6.77l-0.15,44.55c0,5.02-0.15,5.4-0.69,5.4c-0.6,0-1.52-0.83-5.55-4.86
		c-0.83-0.76-11.78-11.94-19.84-20.6c-8.82-9.51-17.41-19.08-19.84-21.82L82.86,286.41L82.86,286.41L82.86,286.41z"/>
	<path class="st3" d="M82.86,286.41c0.15,6.23,0.91,8.21,2.96,8.82c1.44,0.38,3.12,0.45,3.8,0.45c0.38,0,0.6,0.16,0.6,0.46
		c0,0.46-0.45,0.61-1.36,0.61c-4.33,0-7.37-0.23-8.05-0.23c-0.69,0-3.88,0.23-7.3,0.23c-0.76,0-1.22-0.08-1.22-0.61
		c0-0.3,0.23-0.46,0.61-0.46c0.61,0,1.98-0.07,3.12-0.45c1.89-0.53,2.28-2.74,2.28-9.65l0.07-43.56c0-2.97,0.22-3.81,0.83-3.81
		c0.62,0,1.91,1.68,2.66,2.44c1.14,1.29,12.46,13.53,24.17,26.07c7.53,8.06,15.82,17.34,18.25,19.84l-0.84-38.61
		c-0.07-4.94-0.61-6.61-2.97-7.21c-1.36-0.31-3.11-0.38-3.72-0.38c-0.53,0-0.61-0.23-0.61-0.53c0-0.46,0.61-0.54,1.51-0.54
		c3.42,0,7.07,0.23,7.91,0.23c0.83,0,3.35-0.23,6.46-0.23c0.83,0,1.37,0.07,1.37,0.54c0,0.3-0.31,0.53-0.84,0.53
		c-0.38,0-0.91,0-1.82,0.22c-2.51,0.53-2.81,2.21-2.81,6.77l-0.15,44.55c0,5.02-0.15,5.4-0.69,5.4c-0.6,0-1.52-0.83-5.55-4.86
		c-0.83-0.76-11.78-11.94-19.84-20.6c-8.82-9.51-17.41-19.08-19.84-21.82L82.86,286.41L82.86,286.41L82.86,286.41z"/>
	<path class="st0" d="M165.56,274.69c0,7.3,0,13.31,0.38,16.5c0.23,2.21,0.68,3.87,2.96,4.18c1.07,0.16,2.74,0.31,3.42,0.31
		c0.46,0,0.61,0.24,0.61,0.46c0,0.38-0.38,0.61-1.22,0.61c-4.18,0-8.97-0.23-9.35-0.23c-0.37,0-5.16,0.23-7.45,0.23
		c-0.83,0-1.21-0.15-1.21-0.61c0-0.22,0.14-0.46,0.6-0.46c0.68,0,1.6-0.14,2.28-0.31c1.52-0.3,1.9-1.97,2.2-4.18
		c0.38-3.19,0.38-9.2,0.38-16.5v-13.37c0-11.86,0-13.99-0.16-16.42c-0.15-2.58-0.91-3.88-2.59-4.26c-0.83-0.23-1.82-0.3-2.35-0.3
		c-0.31,0-0.61-0.15-0.61-0.46c0-0.46,0.38-0.61,1.22-0.61c2.52,0,7.31,0.23,7.68,0.23c0.38,0,5.17-0.23,7.46-0.23
		c0.83,0,1.21,0.15,1.21,0.61c0,0.31-0.31,0.46-0.61,0.46c-0.53,0-0.99,0.07-1.9,0.22c-2.05,0.38-2.66,1.68-2.81,4.34
		c-0.16,2.43-0.16,4.56-0.16,16.42V274.69L165.56,274.69L165.56,274.69z"/>
	<path class="st3" d="M165.56,274.69c0,7.3,0,13.31,0.38,16.5c0.23,2.21,0.68,3.87,2.96,4.18c1.07,0.16,2.74,0.31,3.42,0.31
		c0.46,0,0.61,0.24,0.61,0.46c0,0.38-0.38,0.61-1.22,0.61c-4.18,0-8.97-0.23-9.35-0.23c-0.37,0-5.16,0.23-7.45,0.23
		c-0.83,0-1.21-0.15-1.21-0.61c0-0.22,0.14-0.46,0.6-0.46c0.68,0,1.6-0.14,2.28-0.31c1.52-0.3,1.9-1.97,2.2-4.18
		c0.38-3.19,0.38-9.2,0.38-16.5v-13.37c0-11.86,0-13.99-0.16-16.42c-0.15-2.58-0.91-3.88-2.59-4.26c-0.83-0.23-1.82-0.3-2.35-0.3
		c-0.31,0-0.61-0.15-0.61-0.46c0-0.46,0.38-0.61,1.22-0.61c2.52,0,7.31,0.23,7.68,0.23c0.38,0,5.17-0.23,7.46-0.23
		c0.83,0,1.21,0.15,1.21,0.61c0,0.31-0.31,0.46-0.61,0.46c-0.53,0-0.99,0.07-1.9,0.22c-2.05,0.38-2.66,1.68-2.81,4.34
		c-0.16,2.43-0.16,4.56-0.16,16.42V274.69L165.56,274.69L165.56,274.69z"/>
	<path class="st0" d="M215.5,287.47c4.41-10.18,14.59-36.71,16.26-42.18c0.37-1.14,0.69-2.21,0.69-2.89c0-0.61-0.23-1.37-0.98-1.75
		c-0.92-0.3-2.06-0.3-2.89-0.3c-0.46,0-0.84-0.09-0.84-0.46c0-0.46,0.46-0.61,1.68-0.61c3.04,0,6.54,0.23,7.45,0.23
		c0.46,0,3.72-0.23,5.93-0.23c0.84,0,1.29,0.15,1.29,0.54c0,0.38-0.3,0.53-0.91,0.53c-0.53,0-2.2,0-3.64,0.91
		c-1,0.68-2.14,1.98-4.19,7.14c-0.83,2.14-4.64,11.26-8.51,20.61c-4.64,11.09-8.06,19.31-9.81,23.02c-2.13,4.57-2.43,5.79-3.19,5.79
		c-0.91,0-1.29-1.07-2.73-4.72l-18.63-46.59c-1.67-4.26-2.81-5.1-5.47-5.85c-1.14-0.3-2.44-0.3-2.89-0.3
		c-0.45,0-0.61-0.23-0.61-0.53c0-0.46,0.77-0.54,1.98-0.54c3.65,0,7.98,0.23,8.89,0.23c0.76,0,4.19-0.23,7.07-0.23
		c1.37,0,2.05,0.15,2.05,0.54c0,0.38-0.23,0.53-0.76,0.53c-0.84,0-2.2,0.07-2.89,0.38c-0.84,0.37-0.99,0.98-0.99,1.52
		c0,0.99,0.92,3.34,2.06,6.31L215.5,287.47L215.5,287.47L215.5,287.47z"/>
	<path class="st3" d="M215.5,287.47c4.41-10.18,14.59-36.71,16.26-42.18c0.37-1.14,0.69-2.21,0.69-2.89c0-0.61-0.23-1.37-0.98-1.75
		c-0.92-0.3-2.06-0.3-2.89-0.3c-0.46,0-0.84-0.09-0.84-0.46c0-0.46,0.46-0.61,1.68-0.61c3.04,0,6.54,0.23,7.45,0.23
		c0.46,0,3.72-0.23,5.93-0.23c0.84,0,1.29,0.15,1.29,0.54c0,0.38-0.3,0.53-0.91,0.53c-0.53,0-2.2,0-3.64,0.91
		c-1,0.68-2.14,1.98-4.19,7.14c-0.83,2.14-4.64,11.26-8.51,20.61c-4.64,11.09-8.06,19.31-9.81,23.02c-2.13,4.57-2.43,5.79-3.19,5.79
		c-0.91,0-1.29-1.07-2.73-4.72l-18.63-46.59c-1.67-4.26-2.81-5.1-5.47-5.85c-1.14-0.3-2.44-0.3-2.89-0.3
		c-0.45,0-0.61-0.23-0.61-0.53c0-0.46,0.77-0.54,1.98-0.54c3.65,0,7.98,0.23,8.89,0.23c0.76,0,4.19-0.23,7.07-0.23
		c1.37,0,2.05,0.15,2.05,0.54c0,0.38-0.23,0.53-0.76,0.53c-0.84,0-2.2,0.07-2.89,0.38c-0.84,0.37-0.99,0.98-0.99,1.52
		c0,0.99,0.92,3.34,2.06,6.31L215.5,287.47L215.5,287.47L215.5,287.47z"/>
	<path class="st0" d="M261.79,261.32c0-11.86,0-13.99-0.15-16.42c-0.15-2.58-0.76-3.81-3.27-4.34c-0.61-0.15-1.9-0.22-2.59-0.22
		c-0.3,0-0.61-0.15-0.61-0.46c0-0.46,0.38-0.61,1.22-0.61c3.43,0,8.2,0.23,8.59,0.23c0.53,0,15.66,0,17.4-0.08
		c1.45-0.08,2.67-0.22,3.27-0.38c0.37-0.07,0.68-0.38,1.06-0.38c0.23,0,0.3,0.31,0.3,0.68c0,0.54-0.37,1.44-0.61,3.58
		c-0.08,0.75-0.24,4.09-0.38,5.01c-0.07,0.39-0.22,0.84-0.52,0.84c-0.46,0-0.62-0.38-0.62-0.98c0-0.54-0.07-1.83-0.45-2.74
		c-0.54-1.21-1.3-2.12-5.4-2.58c-1.29-0.15-9.58-0.23-10.42-0.23c-0.3,0-0.45,0.23-0.45,0.75v20.98c0,0.53,0.07,0.77,0.45,0.77
		c0.99,0,10.34,0,12.09-0.15c1.82-0.15,2.89-0.31,3.57-1.07c0.53-0.6,0.83-0.98,1.13-0.98c0.23,0,0.38,0.16,0.38,0.6
		c0,0.46-0.38,1.76-0.61,4.26c-0.14,1.52-0.3,4.34-0.3,4.86c0,0.62,0,1.45-0.53,1.45c-0.38,0-0.53-0.3-0.53-0.69
		c0-0.76,0-1.51-0.31-2.51c-0.3-1.06-0.99-2.35-3.95-2.66c-2.05-0.23-9.57-0.38-10.86-0.38c-0.38,0-0.53,0.23-0.53,0.53v6.68
		c0,2.59-0.08,11.42,0,13.01c0.22,5.24,1.36,6.24,8.81,6.24c1.98,0,5.32,0,7.3-0.84c1.98-0.83,2.89-2.35,3.41-5.47
		c0.16-0.84,0.32-1.14,0.69-1.14c0.46,0,0.46,0.61,0.46,1.14c0,0.61-0.61,5.77-0.99,7.37c-0.53,1.97-1.14,1.97-4.1,1.97
		c-11.49,0-16.57-0.46-18.78-0.46c-0.15,0-1.45,0.08-3.04,0.08c-1.53,0.08-3.27,0.15-4.41,0.15c-0.84,0-1.22-0.15-1.22-0.61
		c0-0.22,0.15-0.46,0.61-0.46c0.69,0,1.6-0.14,2.28-0.31c1.52-0.3,1.9-1.97,2.2-4.18c0.38-3.19,0.38-9.2,0.38-16.5V261.32
		L261.79,261.32L261.79,261.32z"/>
	<path class="st3" d="M261.79,261.32c0-11.86,0-13.99-0.15-16.42c-0.15-2.58-0.76-3.81-3.27-4.34c-0.61-0.15-1.9-0.22-2.59-0.22
		c-0.3,0-0.61-0.15-0.61-0.46c0-0.46,0.38-0.61,1.22-0.61c3.43,0,8.2,0.23,8.59,0.23c0.53,0,15.66,0,17.4-0.08
		c1.45-0.08,2.67-0.22,3.27-0.38c0.37-0.07,0.68-0.38,1.06-0.38c0.23,0,0.3,0.31,0.3,0.68c0,0.54-0.37,1.44-0.61,3.58
		c-0.08,0.75-0.24,4.09-0.38,5.01c-0.07,0.39-0.22,0.84-0.52,0.84c-0.46,0-0.62-0.38-0.62-0.98c0-0.54-0.07-1.83-0.45-2.74
		c-0.54-1.21-1.3-2.12-5.4-2.58c-1.29-0.15-9.58-0.23-10.42-0.23c-0.3,0-0.45,0.23-0.45,0.75v20.98c0,0.53,0.07,0.77,0.45,0.77
		c0.99,0,10.34,0,12.09-0.15c1.82-0.15,2.89-0.31,3.57-1.07c0.53-0.6,0.83-0.98,1.13-0.98c0.23,0,0.38,0.16,0.38,0.6
		c0,0.46-0.38,1.76-0.61,4.26c-0.14,1.52-0.3,4.34-0.3,4.86c0,0.62,0,1.45-0.53,1.45c-0.38,0-0.53-0.3-0.53-0.69
		c0-0.76,0-1.51-0.31-2.51c-0.3-1.06-0.99-2.35-3.95-2.66c-2.05-0.23-9.57-0.38-10.86-0.38c-0.38,0-0.53,0.23-0.53,0.53v6.68
		c0,2.59-0.08,11.42,0,13.01c0.22,5.24,1.36,6.24,8.81,6.24c1.98,0,5.32,0,7.3-0.84c1.98-0.83,2.89-2.35,3.41-5.47
		c0.16-0.84,0.32-1.14,0.69-1.14c0.46,0,0.46,0.61,0.46,1.14c0,0.61-0.61,5.77-0.99,7.37c-0.53,1.97-1.14,1.97-4.1,1.97
		c-11.49,0-16.57-0.46-18.78-0.46c-0.15,0-1.45,0.08-3.04,0.08c-1.53,0.08-3.27,0.15-4.41,0.15c-0.84,0-1.22-0.15-1.22-0.61
		c0-0.22,0.15-0.46,0.61-0.46c0.69,0,1.6-0.14,2.28-0.31c1.52-0.3,1.9-1.97,2.2-4.18c0.38-3.19,0.38-9.2,0.38-16.5V261.32
		L261.79,261.32L261.79,261.32z"/>
	<path class="st0" d="M314.55,274.69c0,7.3,0,13.31-0.39,16.5c-0.3,2.21-0.68,3.87-2.2,4.18c-0.69,0.16-1.59,0.31-2.29,0.31
		c-0.45,0-0.6,0.24-0.6,0.46c0,0.46,0.39,0.61,1.22,0.61c2.29,0,7.07-0.23,7.15-0.23c0.37,0,5.17,0.23,9.35,0.23
		c0.83,0,1.21-0.23,1.21-0.61c0-0.22-0.15-0.46-0.61-0.46c-0.68,0-2.35-0.14-3.41-0.31c-2.28-0.3-2.74-1.97-2.98-4.18
		c-0.37-3.19-0.37-9.2-0.37-16.5v-1.81c0-0.39,0.16-0.62,0.53-0.62l9.36,0.16c0.46,0,0.67,0.15,0.98,0.46
		c1.52,1.98,5.11,7.07,8.29,11.24c4.33,5.71,6.99,9.43,10.27,11.18c1.97,1.06,3.87,1.44,8.13,1.44h5.4c1.37,0,1.82-0.15,1.82-0.61
		c0-0.22-0.3-0.46-0.68-0.46c-0.46,0-1.52,0-2.97-0.22c-1.89-0.3-5.17-1.14-9.27-5.48c-4.41-4.7-9.58-11.48-15.81-19.46
		c6.84-6.3,9.19-11.93,9.19-17.56c0-5.24-3.34-8.97-5.24-10.34c-4.01-2.89-9.12-3.34-13.91-3.34c-2.36,0-8.13,0.23-8.96,0.23
		c-0.39,0-5.17-0.23-8.6-0.23c-0.84,0-1.22,0.15-1.22,0.61c0,0.31,0.3,0.46,0.61,0.46c0.69,0,1.98,0.07,2.59,0.22
		c2.51,0.53,3.12,1.76,3.27,4.34c0.15,2.43,0.15,4.56,0.15,16.42V274.69L314.55,274.69L314.55,274.69z M320.62,243.07
		c0-0.45,0.23-0.75,0.61-0.91c0.76-0.23,2.81-0.45,5.08-0.45c8.15,0,13.16,5.71,13.16,15.2c0,5.79-1.98,9.88-4.65,11.7
		c-1.74,1.22-3.86,1.45-5.69,1.45c-3.35,0-6.84-0.53-7.99-1.22c-0.37-0.24-0.53-0.53-0.53-0.91V243.07L320.62,243.07L320.62,243.07z
		"/>
	<path class="st3" d="M314.55,274.69c0,7.3,0,13.31-0.39,16.5c-0.3,2.21-0.68,3.87-2.2,4.18c-0.69,0.16-1.59,0.31-2.29,0.31
		c-0.45,0-0.6,0.24-0.6,0.46c0,0.46,0.39,0.61,1.22,0.61c2.29,0,7.07-0.23,7.15-0.23c0.37,0,5.17,0.23,9.35,0.23
		c0.83,0,1.21-0.23,1.21-0.61c0-0.22-0.15-0.46-0.61-0.46c-0.68,0-2.35-0.14-3.41-0.31c-2.28-0.3-2.74-1.97-2.98-4.18
		c-0.37-3.19-0.37-9.2-0.37-16.5v-1.81c0-0.39,0.16-0.62,0.53-0.62l9.36,0.16c0.46,0,0.67,0.15,0.98,0.46
		c1.52,1.98,5.11,7.07,8.29,11.24c4.33,5.71,6.99,9.43,10.27,11.18c1.97,1.06,3.87,1.44,8.13,1.44h5.4c1.37,0,1.82-0.15,1.82-0.61
		c0-0.22-0.3-0.46-0.68-0.46c-0.46,0-1.52,0-2.97-0.22c-1.89-0.3-5.17-1.14-9.27-5.48c-4.41-4.7-9.58-11.48-15.81-19.46
		c6.84-6.3,9.19-11.93,9.19-17.56c0-5.24-3.34-8.97-5.24-10.34c-4.01-2.89-9.12-3.34-13.91-3.34c-2.36,0-8.13,0.23-8.96,0.23
		c-0.39,0-5.17-0.23-8.6-0.23c-0.84,0-1.22,0.15-1.22,0.61c0,0.31,0.3,0.46,0.61,0.46c0.69,0,1.98,0.07,2.59,0.22
		c2.51,0.53,3.12,1.76,3.27,4.34c0.15,2.43,0.15,4.56,0.15,16.42V274.69L314.55,274.69L314.55,274.69z M320.62,243.07
		c0-0.45,0.23-0.75,0.61-0.91c0.76-0.23,2.81-0.45,5.08-0.45c8.15,0,13.16,5.71,13.16,15.2c0,5.79-1.98,9.88-4.65,11.7
		c-1.74,1.22-3.86,1.45-5.69,1.45c-3.35,0-6.84-0.53-7.99-1.22c-0.37-0.24-0.53-0.53-0.53-0.91V243.07L320.62,243.07L320.62,243.07z
		"/>
	<path class="st0" d="M372.64,295.76c-1.06-0.53-1.14-0.83-1.14-2.89c0-3.81,0.3-6.85,0.38-8.06c0.07-0.84,0.23-1.22,0.6-1.22
		c0.46,0,0.54,0.23,0.54,0.84c0,0.68,0,1.75,0.23,2.81c1.14,5.63,6.16,7.76,11.25,7.76c7.29,0,10.87-5.25,10.87-10.11
		c0-5.25-2.2-8.28-8.74-13.68l-3.42-2.82c-8.06-6.62-9.88-11.33-9.88-16.49c0-8.13,6.09-13.69,15.74-13.69
		c2.96,0,5.17,0.31,7.07,0.77c1.45,0.3,2.06,0.37,2.65,0.37c0.61,0,0.77,0.16,0.77,0.54c0,0.37-0.3,2.89-0.3,8.05
		c0,1.22-0.17,1.75-0.54,1.75c-0.46,0-0.53-0.38-0.61-0.98c-0.08-0.91-0.53-2.97-0.99-3.8c-0.45-0.83-2.51-4.03-9.49-4.03
		c-5.26,0-9.37,3.27-9.37,8.82c0,4.33,2.14,6.92,9.28,12.77l2.14,1.68c8.96,7.07,11.1,11.78,11.1,17.86c0,3.12-1.21,8.9-6.46,12.62
		c-3.26,2.28-7.37,3.2-11.47,3.2C379.25,297.81,375.76,297.28,372.64,295.76L372.64,295.76L372.64,295.76z"/>
	<path class="st3" d="M372.64,295.76c-1.06-0.53-1.14-0.83-1.14-2.89c0-3.81,0.3-6.85,0.38-8.06c0.07-0.84,0.23-1.22,0.6-1.22
		c0.46,0,0.54,0.23,0.54,0.84c0,0.68,0,1.75,0.23,2.81c1.14,5.63,6.16,7.76,11.25,7.76c7.29,0,10.87-5.25,10.87-10.11
		c0-5.25-2.2-8.28-8.74-13.68l-3.42-2.82c-8.06-6.62-9.88-11.33-9.88-16.49c0-8.13,6.09-13.69,15.74-13.69
		c2.96,0,5.17,0.31,7.07,0.77c1.45,0.3,2.06,0.37,2.65,0.37c0.61,0,0.77,0.16,0.77,0.54c0,0.37-0.3,2.89-0.3,8.05
		c0,1.22-0.17,1.75-0.54,1.75c-0.46,0-0.53-0.38-0.61-0.98c-0.08-0.91-0.53-2.97-0.99-3.8c-0.45-0.83-2.51-4.03-9.49-4.03
		c-5.26,0-9.37,3.27-9.37,8.82c0,4.33,2.14,6.92,9.28,12.77l2.14,1.68c8.96,7.07,11.1,11.78,11.1,17.86c0,3.12-1.21,8.9-6.46,12.62
		c-3.26,2.28-7.37,3.2-11.47,3.2C379.25,297.81,375.76,297.28,372.64,295.76L372.64,295.76L372.64,295.76z"/>
	<path class="st0" d="M433.6,274.69c0,7.3,0,13.31,0.38,16.5c0.22,2.21,0.68,3.87,2.96,4.18c1.06,0.16,2.74,0.31,3.42,0.31
		c0.45,0,0.6,0.24,0.6,0.46c0,0.38-0.38,0.61-1.21,0.61c-4.18,0-8.97-0.23-9.35-0.23c-0.38,0-5.18,0.23-7.45,0.23
		c-0.84,0-1.21-0.15-1.21-0.61c0-0.22,0.15-0.46,0.6-0.46c0.69,0,1.6-0.14,2.28-0.31c1.52-0.3,1.9-1.97,2.21-4.18
		c0.38-3.19,0.38-9.2,0.38-16.5v-13.37c0-11.86,0-13.99-0.15-16.42c-0.15-2.58-0.91-3.88-2.58-4.26c-0.84-0.23-1.84-0.3-2.37-0.3
		c-0.3,0-0.6-0.15-0.6-0.46c0-0.46,0.38-0.61,1.22-0.61c2.5,0,7.29,0.23,7.67,0.23c0.38,0,5.17-0.23,7.45-0.23
		c0.83,0,1.21,0.15,1.21,0.61c0,0.31-0.31,0.46-0.61,0.46c-0.53,0-0.99,0.07-1.89,0.22c-2.06,0.38-2.67,1.68-2.82,4.34
		c-0.15,2.43-0.15,4.56-0.15,16.42V274.69L433.6,274.69L433.6,274.69z"/>
	<path class="st3" d="M433.6,274.69c0,7.3,0,13.31,0.38,16.5c0.22,2.21,0.68,3.87,2.96,4.18c1.06,0.16,2.74,0.31,3.42,0.31
		c0.45,0,0.6,0.24,0.6,0.46c0,0.38-0.38,0.61-1.21,0.61c-4.18,0-8.97-0.23-9.35-0.23c-0.38,0-5.18,0.23-7.45,0.23
		c-0.84,0-1.21-0.15-1.21-0.61c0-0.22,0.15-0.46,0.6-0.46c0.69,0,1.6-0.14,2.28-0.31c1.52-0.3,1.9-1.97,2.21-4.18
		c0.38-3.19,0.38-9.2,0.38-16.5v-13.37c0-11.86,0-13.99-0.15-16.42c-0.15-2.58-0.91-3.88-2.58-4.26c-0.84-0.23-1.84-0.3-2.37-0.3
		c-0.3,0-0.6-0.15-0.6-0.46c0-0.46,0.38-0.61,1.22-0.61c2.5,0,7.29,0.23,7.67,0.23c0.38,0,5.17-0.23,7.45-0.23
		c0.83,0,1.21,0.15,1.21,0.61c0,0.31-0.31,0.46-0.61,0.46c-0.53,0-0.99,0.07-1.89,0.22c-2.06,0.38-2.67,1.68-2.82,4.34
		c-0.15,2.43-0.15,4.56-0.15,16.42V274.69L433.6,274.69L433.6,274.69z"/>
	<path class="st0" d="M483.23,274.69c0,7.3,0,13.31,0.39,16.5c0.24,2.21,0.68,3.87,2.96,4.18c1.06,0.16,2.74,0.31,3.42,0.31
		c0.46,0,0.63,0.24,0.63,0.46c0,0.38-0.39,0.61-1.23,0.61c-4.18,0-8.97-0.23-9.35-0.23c-0.37,0-5.16,0.23-7.44,0.23
		c-0.84,0-1.22-0.15-1.22-0.61c0-0.22,0.15-0.46,0.61-0.46c0.68,0,1.59-0.14,2.28-0.31c1.52-0.3,1.89-1.97,2.21-4.18
		c0.38-3.19,0.38-9.2,0.38-16.5v-32.15l-11.25,0.15c-4.72,0.08-6.55,0.61-7.76,2.43c-0.83,1.29-1.06,1.82-1.3,2.37
		c-0.23,0.6-0.45,0.75-0.76,0.75c-0.22,0-0.38-0.23-0.38-0.69c0-0.75,1.51-7.3,1.67-7.91c0.16-0.44,0.46-1.44,0.76-1.44
		c0.54,0,1.29,0.77,3.35,0.91c2.19,0.23,5.09,0.38,6,0.38h28.5c2.43,0,4.17-0.23,5.4-0.38c1.14-0.23,1.82-0.38,2.13-0.38
		c0.38,0,0.38,0.46,0.38,0.9c0,2.29-0.22,7.53-0.22,8.37c0,0.69-0.23,0.99-0.54,0.99c-0.38,0-0.53-0.23-0.61-1.29l-0.08-0.83
		c-0.3-2.28-2.05-4.03-9.36-4.19l-9.57-0.15V274.69L483.23,274.69L483.23,274.69z"/>
	<path class="st3" d="M483.23,274.69c0,7.3,0,13.31,0.39,16.5c0.24,2.21,0.68,3.87,2.96,4.18c1.06,0.16,2.74,0.31,3.42,0.31
		c0.46,0,0.63,0.24,0.63,0.46c0,0.38-0.39,0.61-1.23,0.61c-4.18,0-8.97-0.23-9.35-0.23c-0.37,0-5.16,0.23-7.44,0.23
		c-0.84,0-1.22-0.15-1.22-0.61c0-0.22,0.15-0.46,0.61-0.46c0.68,0,1.59-0.14,2.28-0.31c1.52-0.3,1.89-1.97,2.21-4.18
		c0.38-3.19,0.38-9.2,0.38-16.5v-32.15l-11.25,0.15c-4.72,0.08-6.55,0.61-7.76,2.43c-0.83,1.29-1.06,1.82-1.3,2.37
		c-0.23,0.6-0.45,0.75-0.76,0.75c-0.22,0-0.38-0.23-0.38-0.69c0-0.75,1.51-7.3,1.67-7.91c0.16-0.44,0.46-1.44,0.76-1.44
		c0.54,0,1.29,0.77,3.35,0.91c2.19,0.23,5.09,0.38,6,0.38h28.5c2.43,0,4.17-0.23,5.4-0.38c1.14-0.23,1.82-0.38,2.13-0.38
		c0.38,0,0.38,0.46,0.38,0.9c0,2.29-0.22,7.53-0.22,8.37c0,0.69-0.23,0.99-0.54,0.99c-0.38,0-0.53-0.23-0.61-1.29l-0.08-0.83
		c-0.3-2.28-2.05-4.03-9.36-4.19l-9.57-0.15V274.69L483.23,274.69L483.23,274.69z"/>
	<path class="st0" d="M536.06,277.06c0-4.1-0.76-5.78-1.74-7.99c-0.54-1.21-10.72-17.93-13.37-21.89c-1.91-2.81-3.81-4.71-5.18-5.63
		c-1.14-0.76-2.58-1.21-3.26-1.21c-0.39,0-0.76-0.15-0.76-0.53c0-0.31,0.3-0.54,0.98-0.54c1.45,0,7.16,0.23,7.53,0.23
		c0.54,0,3.41-0.23,6.39-0.23c0.83,0,0.98,0.23,0.98,0.54c0,0.3-0.44,0.38-1.14,0.68c-0.61,0.3-0.99,0.76-0.99,1.37
		c0,0.91,0.38,1.82,0.99,2.97c1.21,2.2,12.62,21.81,13.99,24.02c1.44-3.2,11.09-19.84,12.61-22.35c1-1.6,1.3-2.9,1.3-3.88
		c0-1.07-0.31-1.9-1.23-2.13c-0.68-0.23-1.14-0.38-1.14-0.76c0-0.3,0.46-0.45,1.22-0.45c1.97,0,4.4,0.23,5.01,0.23
		c0.46,0,5.93-0.23,7.37-0.23c0.53,0,1,0.15,1,0.45c0,0.38-0.38,0.62-1,0.62c-0.82,0-2.28,0.3-3.49,1.06
		c-1.51,0.92-2.36,1.83-4.02,3.88c-2.52,3.04-13.17,20.9-14.52,24.17c-1.14,2.74-1.14,5.1-1.14,7.6v6.53c0,1.22,0,4.41,0.22,7.6
		c0.15,2.21,0.83,3.87,3.11,4.18c1.07,0.16,2.74,0.31,3.42,0.31c0.47,0,0.62,0.24,0.62,0.46c0,0.38-0.39,0.61-1.23,0.61
		c-4.18,0-8.96-0.23-9.35-0.23c-0.38,0-5.16,0.23-7.44,0.23c-0.84,0-1.22-0.15-1.22-0.61c0-0.22,0.15-0.46,0.61-0.46
		c0.68,0,1.59-0.14,2.28-0.31c1.52-0.3,2.21-1.97,2.35-4.18c0.23-3.19,0.23-6.38,0.23-7.6V277.06L536.06,277.06L536.06,277.06z"/>
	<g>
		<defs>
			<rect id="SVGID_3_" x="0" width="566.93" height="390.19"/>
		</defs>
		<clipPath id="SVGID_4_">
			<use xlink:href="#SVGID_3_"  style="overflow:visible;"/>
		</clipPath>
		<path class="st4" d="M536.06,277.06c0-4.1-0.76-5.78-1.74-7.99c-0.54-1.21-10.72-17.93-13.37-21.89
			c-1.91-2.81-3.81-4.71-5.18-5.63c-1.14-0.76-2.58-1.21-3.26-1.21c-0.39,0-0.76-0.15-0.76-0.53c0-0.31,0.3-0.54,0.98-0.54
			c1.45,0,7.16,0.23,7.53,0.23c0.54,0,3.41-0.23,6.39-0.23c0.83,0,0.98,0.23,0.98,0.54c0,0.3-0.44,0.38-1.14,0.68
			c-0.61,0.3-0.99,0.76-0.99,1.37c0,0.91,0.38,1.82,0.99,2.97c1.21,2.2,12.62,21.81,13.99,24.02c1.44-3.2,11.09-19.84,12.61-22.35
			c1-1.6,1.3-2.9,1.3-3.88c0-1.07-0.31-1.9-1.23-2.13c-0.68-0.23-1.14-0.38-1.14-0.76c0-0.3,0.46-0.45,1.22-0.45
			c1.97,0,4.4,0.23,5.01,0.23c0.46,0,5.93-0.23,7.37-0.23c0.53,0,1,0.15,1,0.45c0,0.38-0.38,0.62-1,0.62c-0.82,0-2.28,0.3-3.49,1.06
			c-1.51,0.92-2.36,1.83-4.02,3.88c-2.52,3.04-13.17,20.9-14.52,24.17c-1.14,2.74-1.14,5.1-1.14,7.6v6.53c0,1.22,0,4.41,0.22,7.6
			c0.15,2.21,0.83,3.87,3.11,4.18c1.07,0.16,2.74,0.31,3.42,0.31c0.47,0,0.62,0.24,0.62,0.46c0,0.38-0.39,0.61-1.23,0.61
			c-4.18,0-8.96-0.23-9.35-0.23c-0.38,0-5.16,0.23-7.44,0.23c-0.84,0-1.22-0.15-1.22-0.61c0-0.22,0.15-0.46,0.61-0.46
			c0.68,0,1.59-0.14,2.28-0.31c1.52-0.3,2.21-1.97,2.35-4.18c0.23-3.19,0.23-6.38,0.23-7.6V277.06L536.06,277.06L536.06,277.06z"/>
	</g>
	<path class="st0" d="M109.81,350.02c0,8.67,5.49,18.94,18.7,18.94c11.61,0,19.23-8.91,19.23-19.71c0-11.23-8.1-18.07-18.95-18.07
		C115.49,331.18,109.81,342.21,109.81,350.02L109.81,350.02L109.81,350.02z M114.38,348.67c0-10.55,6.03-15.85,14.07-15.85
		c7.62,0,14.65,6.22,14.65,17.78c0,14.02-8.97,16.53-13.31,16.53C121.13,367.13,114.38,359.9,114.38,348.67L114.38,348.67
		L114.38,348.67z"/>
	<path class="st1" d="M109.81,350.02c0,8.67,5.49,18.94,18.7,18.94c11.61,0,19.23-8.91,19.23-19.71c0-11.23-8.1-18.07-18.95-18.07
		C115.49,331.18,109.81,342.21,109.81,350.02L109.81,350.02L109.81,350.02z M114.38,348.67c0-10.55,6.03-15.85,14.07-15.85
		c7.62,0,14.65,6.22,14.65,17.78c0,14.02-8.97,16.53-13.31,16.53C121.13,367.13,114.38,359.9,114.38,348.67L114.38,348.67
		L114.38,348.67z"/>
	<path class="st0" d="M162.01,345.83c0-7.51,0-8.87-0.1-10.42c-0.09-1.63-0.49-2.4-2.07-2.74c-0.39-0.1-1.21-0.14-1.64-0.14
		c-0.19,0-0.39-0.1-0.39-0.29c0-0.29,0.24-0.39,0.77-0.39c2.18,0,5.21,0.14,5.45,0.14c0.96,0,10.74,0,11.86-0.05
		c0.92-0.05,1.68-0.05,2.11-0.19c0.3-0.09,0.49-0.29,0.68-0.29c0.19,0,0.29,0.2,0.29,0.43c0,0.34-0.24,0.92-0.39,2.27
		c-0.05,0.48-0.15,2.6-0.24,3.18c-0.05,0.25-0.15,0.53-0.39,0.53c-0.24,0-0.33-0.24-0.33-0.58c0-0.38-0.15-1.2-0.44-1.82
		c-0.29-0.63-1.41-1.5-3.28-1.54l-7.43-0.14c-0.28,0-0.43,0.14-0.43,0.51v13.31c0,0.29,0.06,0.43,0.34,0.43l6.16-0.05
		c0.83,0,1.5,0,2.18-0.05c1.16-0.09,1.78-0.24,2.22-0.87c0.19-0.25,0.33-0.48,0.53-0.48c0.19,0,0.24,0.14,0.24,0.39
		c0,0.29-0.24,1.11-0.38,2.7c-0.09,0.96-0.19,2.89-0.19,3.22c0,0.44,0,0.92-0.34,0.92c-0.24,0-0.34-0.19-0.34-0.44
		c-0.04-0.48-0.09-1.15-0.29-1.73c-0.24-0.67-1.01-1.54-2.5-1.73c-1.21-0.15-6.46-0.15-7.28-0.15c-0.25,0-0.34,0.09-0.34,0.44v4.09
		c0,4.62,0,8.43,0.25,10.47c0.15,1.38,0.43,2.45,1.88,2.64c0.68,0.09,1.74,0.2,2.17,0.2c0.29,0,0.39,0.14,0.39,0.28
		c0,0.24-0.24,0.38-0.77,0.38c-2.65,0-5.69-0.14-5.93-0.14c-0.24,0-3.28,0.14-4.72,0.14c-0.53,0-0.77-0.09-0.77-0.38
		c0-0.15,0.09-0.28,0.39-0.28c0.43,0,1.01-0.1,1.44-0.2c0.96-0.19,1.21-1.26,1.4-2.64c0.25-2.04,0.25-5.85,0.25-10.47V345.83
		L162.01,345.83L162.01,345.83z"/>
	<path class="st1" d="M162.01,345.83c0-7.51,0-8.87-0.1-10.42c-0.09-1.63-0.49-2.4-2.07-2.74c-0.39-0.1-1.21-0.14-1.64-0.14
		c-0.19,0-0.39-0.1-0.39-0.29c0-0.29,0.24-0.39,0.77-0.39c2.18,0,5.21,0.14,5.45,0.14c0.96,0,10.74,0,11.86-0.05
		c0.92-0.05,1.68-0.05,2.11-0.19c0.3-0.09,0.49-0.29,0.68-0.29c0.19,0,0.29,0.2,0.29,0.43c0,0.34-0.24,0.92-0.39,2.27
		c-0.05,0.48-0.15,2.6-0.24,3.18c-0.05,0.25-0.15,0.53-0.39,0.53c-0.24,0-0.33-0.24-0.33-0.58c0-0.38-0.15-1.2-0.44-1.82
		c-0.29-0.63-1.41-1.5-3.28-1.54l-7.43-0.14c-0.28,0-0.43,0.14-0.43,0.51v13.31c0,0.29,0.06,0.43,0.34,0.43l6.16-0.05
		c0.83,0,1.5,0,2.18-0.05c1.16-0.09,1.78-0.24,2.22-0.87c0.19-0.25,0.33-0.48,0.53-0.48c0.19,0,0.24,0.14,0.24,0.39
		c0,0.29-0.24,1.11-0.38,2.7c-0.09,0.96-0.19,2.89-0.19,3.22c0,0.44,0,0.92-0.34,0.92c-0.24,0-0.34-0.19-0.34-0.44
		c-0.04-0.48-0.09-1.15-0.29-1.73c-0.24-0.67-1.01-1.54-2.5-1.73c-1.21-0.15-6.46-0.15-7.28-0.15c-0.25,0-0.34,0.09-0.34,0.44v4.09
		c0,4.62,0,8.43,0.25,10.47c0.15,1.38,0.43,2.45,1.88,2.64c0.68,0.09,1.74,0.2,2.17,0.2c0.29,0,0.39,0.14,0.39,0.28
		c0,0.24-0.24,0.38-0.77,0.38c-2.65,0-5.69-0.14-5.93-0.14c-0.24,0-3.28,0.14-4.72,0.14c-0.53,0-0.77-0.09-0.77-0.38
		c0-0.15,0.09-0.28,0.39-0.28c0.43,0,1.01-0.1,1.44-0.2c0.96-0.19,1.21-1.26,1.4-2.64c0.25-2.04,0.25-5.85,0.25-10.47V345.83
		L162.01,345.83L162.01,345.83z"/>
	<path class="st0" d="M214.84,353.4c0-11.86,0-13.99-0.15-16.42c-0.15-2.58-0.76-3.79-3.26-4.32c-0.61-0.15-1.9-0.23-2.59-0.23
		c-0.3,0-0.6-0.15-0.6-0.45c0-0.46,0.37-0.61,1.21-0.61c3.42,0,8.06,0.22,8.74,0.22c0.69,0,5.25-0.22,7.53-0.22
		c0.83,0,1.21,0.15,1.21,0.61c0,0.31-0.3,0.45-0.61,0.45c-0.53,0-0.99,0.08-1.9,0.23c-2.05,0.3-2.66,1.67-2.81,4.32
		c-0.16,2.43-0.16,4.56-0.16,16.42v10.64c0,10.95,2.44,15.66,5.71,18.78c3.73,3.49,7.14,4.17,11.48,4.17c4.63,0,9.19-2.2,11.93-5.47
		c3.5-4.33,4.4-10.79,4.4-18.62v-9.5c0-11.86,0-13.99-0.15-16.42c-0.15-2.58-0.76-3.79-3.27-4.32c-0.61-0.15-1.91-0.23-2.58-0.23
		c-0.32,0-0.62-0.15-0.62-0.45c0-0.46,0.38-0.61,1.22-0.61c3.41,0,7.6,0.22,8.06,0.22c0.53,0,4.11-0.22,6.39-0.22
		c0.84,0,1.22,0.15,1.22,0.61c0,0.31-0.3,0.45-0.61,0.45c-0.53,0-0.98,0-1.9,0.23c-2.05,0.38-2.66,1.67-2.81,4.32
		c-0.15,2.43-0.15,4.56-0.15,16.42v8.14c0,8.21-0.91,17.33-6.99,22.73c-5.48,4.86-11.18,5.62-15.66,5.62
		c-2.59,0-10.27-0.3-15.67-5.4c-3.72-3.57-6.61-8.89-6.61-19.99V353.4L214.84,353.4L214.84,353.4z"/>
	<g>
		<defs>
			<rect id="SVGID_5_" x="0" width="566.93" height="390.19"/>
		</defs>
		<clipPath id="SVGID_6_">
			<use xlink:href="#SVGID_5_"  style="overflow:visible;"/>
		</clipPath>
		<path class="st5" d="M214.84,353.4c0-11.86,0-13.99-0.15-16.42c-0.15-2.58-0.76-3.79-3.26-4.32c-0.61-0.15-1.9-0.23-2.59-0.23
			c-0.3,0-0.6-0.15-0.6-0.45c0-0.46,0.37-0.61,1.21-0.61c3.42,0,8.06,0.22,8.74,0.22c0.69,0,5.25-0.22,7.53-0.22
			c0.83,0,1.21,0.15,1.21,0.61c0,0.31-0.3,0.45-0.61,0.45c-0.53,0-0.99,0.08-1.9,0.23c-2.05,0.3-2.66,1.67-2.81,4.32
			c-0.16,2.43-0.16,4.56-0.16,16.42v10.64c0,10.95,2.44,15.66,5.71,18.78c3.73,3.49,7.14,4.17,11.48,4.17
			c4.63,0,9.19-2.2,11.93-5.47c3.5-4.33,4.4-10.79,4.4-18.62v-9.5c0-11.86,0-13.99-0.15-16.42c-0.15-2.58-0.76-3.79-3.27-4.32
			c-0.61-0.15-1.91-0.23-2.58-0.23c-0.32,0-0.62-0.15-0.62-0.45c0-0.46,0.38-0.61,1.22-0.61c3.41,0,7.6,0.22,8.06,0.22
			c0.53,0,4.11-0.22,6.39-0.22c0.84,0,1.22,0.15,1.22,0.61c0,0.31-0.3,0.45-0.61,0.45c-0.53,0-0.98,0-1.9,0.23
			c-2.05,0.38-2.66,1.67-2.81,4.32c-0.15,2.43-0.15,4.56-0.15,16.42v8.14c0,8.21-0.91,17.33-6.99,22.73
			c-5.48,4.86-11.18,5.62-15.66,5.62c-2.59,0-10.27-0.3-15.67-5.4c-3.72-3.57-6.61-8.89-6.61-19.99V353.4L214.84,353.4L214.84,353.4
			z"/>
	</g>
	<path class="st0" d="M304.93,366.78c0,7.3,0,13.3,0.38,16.48c0.23,2.21,0.69,3.89,2.97,4.19c1.07,0.15,2.73,0.3,3.42,0.3
		c0.46,0,0.61,0.23,0.61,0.46c0,0.38-0.37,0.61-1.21,0.61c-4.18,0-8.98-0.23-9.36-0.23c-0.38,0-5.17,0.23-7.44,0.23
		c-0.84,0-1.23-0.16-1.23-0.61c0-0.23,0.16-0.46,0.62-0.46c0.68,0,1.59-0.15,2.28-0.3c1.51-0.3,1.9-1.98,2.2-4.19
		c0.38-3.18,0.38-9.18,0.38-16.48v-32.16l-11.25,0.16c-4.71,0.07-6.54,0.61-7.75,2.42c-0.83,1.3-1.07,1.83-1.3,2.37
		c-0.23,0.6-0.46,0.75-0.75,0.75c-0.23,0-0.38-0.22-0.38-0.68c0-0.77,1.52-7.3,1.68-7.91c0.14-0.46,0.45-1.45,0.76-1.45
		c0.53,0,1.3,0.76,3.34,0.91c2.21,0.24,5.09,0.38,6.01,0.38h28.51c2.42,0,4.17-0.22,5.4-0.38c1.14-0.23,1.82-0.37,2.13-0.37
		c0.39,0,0.39,0.45,0.39,0.91c0,2.28-0.24,7.52-0.24,8.36c0,0.69-0.23,0.99-0.53,0.99c-0.38,0-0.53-0.23-0.61-1.3l-0.07-0.83
		c-0.3-2.28-2.06-4.03-9.35-4.17l-9.58-0.16V366.78L304.93,366.78L304.93,366.78z"/>
	<path class="st3" d="M304.93,366.78c0,7.3,0,13.3,0.38,16.48c0.23,2.21,0.69,3.89,2.97,4.19c1.07,0.15,2.73,0.3,3.42,0.3
		c0.46,0,0.61,0.23,0.61,0.46c0,0.38-0.37,0.61-1.21,0.61c-4.18,0-8.98-0.23-9.36-0.23c-0.38,0-5.17,0.23-7.44,0.23
		c-0.84,0-1.23-0.16-1.23-0.61c0-0.23,0.16-0.46,0.62-0.46c0.68,0,1.59-0.15,2.28-0.3c1.51-0.3,1.9-1.98,2.2-4.19
		c0.38-3.18,0.38-9.18,0.38-16.48v-32.16l-11.25,0.16c-4.71,0.07-6.54,0.61-7.75,2.42c-0.83,1.3-1.07,1.83-1.3,2.37
		c-0.23,0.6-0.46,0.75-0.75,0.75c-0.23,0-0.38-0.22-0.38-0.68c0-0.77,1.52-7.3,1.68-7.91c0.14-0.46,0.45-1.45,0.76-1.45
		c0.53,0,1.3,0.76,3.34,0.91c2.21,0.24,5.09,0.38,6.01,0.38h28.51c2.42,0,4.17-0.22,5.4-0.38c1.14-0.23,1.82-0.37,2.13-0.37
		c0.39,0,0.39,0.45,0.39,0.91c0,2.28-0.24,7.52-0.24,8.36c0,0.69-0.23,0.99-0.53,0.99c-0.38,0-0.53-0.23-0.61-1.3l-0.07-0.83
		c-0.3-2.28-2.06-4.03-9.35-4.17l-9.58-0.16V366.78L304.93,366.78L304.93,366.78z"/>
	<path class="st0" d="M337.92,380.46c-1.37,3.81-2.89,6.7-6.39,7.15c-0.6,0.08-1.67,0.15-2.19,0.15c-0.39,0-0.7,0.16-0.7,0.46
		c0,0.45,0.47,0.61,1.45,0.61c3.58,0,7.76-0.23,8.59-0.23c0.84,0,4.1,0.23,5.93,0.23c0.68,0,1.14-0.16,1.14-0.61
		c0-0.3-0.24-0.46-0.77-0.46h-0.77c-1.28,0-2.88-0.68-2.88-2.2c0-1.36,0.37-3.19,1.06-5.1l4.56-13.44c0.15-0.4,0.38-0.62,0.77-0.62
		h16.33c0.4,0,0.54,0.16,0.7,0.45l7.06,18.7c0.45,1.22,0,1.9-0.45,2.05c-0.3,0.08-0.53,0.23-0.53,0.53c0,0.46,0.83,0.46,2.27,0.53
		c5.26,0.16,10.81,0.16,11.96,0.16c0.83,0,1.51-0.16,1.51-0.61c0-0.39-0.3-0.46-0.76-0.46c-0.75,0-1.89-0.07-3.04-0.45
		c-1.59-0.45-3.8-1.67-6.54-8.43c-4.63-11.55-16.57-42.95-17.7-45.84c-0.91-2.36-1.23-2.74-1.67-2.74c-0.47,0-0.76,0.46-1.68,2.96
		L337.92,380.46L337.92,380.46L337.92,380.46z M348.57,363.66c-0.23,0-0.38-0.16-0.23-0.53l6.68-20.53c0.39-1.14,0.76-1.14,1.14,0
		l7.23,20.53c0.08,0.3,0.08,0.53-0.31,0.53H348.57L348.57,363.66L348.57,363.66z"/>
	<path class="st3" d="M337.92,380.46c-1.37,3.81-2.89,6.7-6.39,7.15c-0.6,0.08-1.67,0.15-2.19,0.15c-0.39,0-0.7,0.16-0.7,0.46
		c0,0.45,0.47,0.61,1.45,0.61c3.58,0,7.76-0.23,8.59-0.23c0.84,0,4.1,0.23,5.93,0.23c0.68,0,1.14-0.16,1.14-0.61
		c0-0.3-0.24-0.46-0.77-0.46h-0.77c-1.28,0-2.88-0.68-2.88-2.2c0-1.36,0.37-3.19,1.06-5.1l4.56-13.44c0.15-0.4,0.38-0.62,0.77-0.62
		h16.33c0.4,0,0.54,0.16,0.7,0.45l7.06,18.7c0.45,1.22,0,1.9-0.45,2.05c-0.3,0.08-0.53,0.23-0.53,0.53c0,0.46,0.83,0.46,2.27,0.53
		c5.26,0.16,10.81,0.16,11.96,0.16c0.83,0,1.51-0.16,1.51-0.61c0-0.39-0.3-0.46-0.76-0.46c-0.75,0-1.89-0.07-3.04-0.45
		c-1.59-0.45-3.8-1.67-6.54-8.43c-4.63-11.55-16.57-42.95-17.7-45.84c-0.91-2.36-1.23-2.74-1.67-2.74c-0.47,0-0.76,0.46-1.68,2.96
		L337.92,380.46L337.92,380.46L337.92,380.46z M348.57,363.66c-0.23,0-0.38-0.16-0.23-0.53l6.68-20.53c0.39-1.14,0.76-1.14,1.14,0
		l7.23,20.53c0.08,0.3,0.08,0.53-0.31,0.53H348.57L348.57,363.66L348.57,363.66z"/>
	<path class="st0" d="M449.74,366.78c0,7.3,0,13.3,0.38,16.48c0.22,2.21,0.68,3.89,2.96,4.19c1.06,0.15,2.74,0.3,3.42,0.3
		c0.46,0,0.6,0.23,0.6,0.46c0,0.38-0.37,0.61-1.21,0.61c-4.18,0-8.98-0.23-9.35-0.23c-0.37,0-5.17,0.23-7.44,0.23
		c-0.84,0-1.23-0.16-1.23-0.61c0-0.23,0.15-0.46,0.6-0.46c0.69,0,1.6-0.15,2.29-0.3c1.52-0.3,1.89-1.98,2.19-4.19
		c0.39-3.18,0.39-9.18,0.39-16.48v-7.98c0-0.31-0.23-0.46-0.46-0.46h-32.23c-0.23,0-0.45,0.07-0.45,0.46v7.98
		c0,7.3,0,13.3,0.38,16.48c0.23,2.21,0.68,3.89,2.96,4.19c1.06,0.15,2.74,0.3,3.42,0.3c0.46,0,0.61,0.23,0.61,0.46
		c0,0.38-0.38,0.61-1.22,0.61c-4.18,0-8.96-0.23-9.35-0.23c-0.38,0-5.16,0.23-7.45,0.23c-0.83,0-1.21-0.16-1.21-0.61
		c0-0.23,0.15-0.46,0.61-0.46c0.68,0,1.58-0.15,2.27-0.3c1.52-0.3,1.9-1.98,2.21-4.19c0.37-3.18,0.37-9.18,0.37-16.48V353.4
		c0-11.86,0-13.99-0.15-16.42c-0.15-2.58-0.76-3.79-3.27-4.32c-0.61-0.15-1.91-0.23-2.58-0.23c-0.31,0-0.61-0.15-0.61-0.45
		c0-0.46,0.38-0.61,1.21-0.61c3.42,0,8.21,0.22,8.59,0.22c0.38,0,5.17-0.22,7.45-0.22c0.84,0,1.21,0.15,1.21,0.61
		c0,0.31-0.31,0.45-0.6,0.45c-0.54,0-1,0.08-1.91,0.23c-2.05,0.38-2.65,1.67-2.81,4.32c-0.15,2.43-0.15,4.56-0.15,16.42v1.59
		c0,0.39,0.22,0.47,0.45,0.47h32.23c0.24,0,0.46-0.08,0.46-0.47v-1.59c0-11.86,0-13.99-0.16-16.42c-0.14-2.58-0.75-3.79-3.26-4.32
		c-0.62-0.15-1.91-0.23-2.59-0.23c-0.3,0-0.61-0.15-0.61-0.45c0-0.46,0.39-0.61,1.23-0.61c3.41,0,8.21,0.22,8.58,0.22
		c0.37,0,5.17-0.22,7.44-0.22c0.84,0,1.22,0.15,1.22,0.61c0,0.31-0.31,0.45-0.62,0.45c-0.52,0-0.98,0.08-1.89,0.23
		c-2.05,0.38-2.66,1.67-2.81,4.32c-0.15,2.43-0.15,4.56-0.15,16.42V366.78L449.74,366.78L449.74,366.78z"/>
	<path class="st3" d="M449.74,366.78c0,7.3,0,13.3,0.38,16.48c0.22,2.21,0.68,3.89,2.96,4.19c1.06,0.15,2.74,0.3,3.42,0.3
		c0.46,0,0.6,0.23,0.6,0.46c0,0.38-0.37,0.61-1.21,0.61c-4.18,0-8.98-0.23-9.35-0.23c-0.37,0-5.17,0.23-7.44,0.23
		c-0.84,0-1.23-0.16-1.23-0.61c0-0.23,0.15-0.46,0.6-0.46c0.69,0,1.6-0.15,2.29-0.3c1.52-0.3,1.89-1.98,2.19-4.19
		c0.39-3.18,0.39-9.18,0.39-16.48v-7.98c0-0.31-0.23-0.46-0.46-0.46h-32.23c-0.23,0-0.45,0.07-0.45,0.46v7.98
		c0,7.3,0,13.3,0.38,16.48c0.23,2.21,0.68,3.89,2.96,4.19c1.06,0.15,2.74,0.3,3.42,0.3c0.46,0,0.61,0.23,0.61,0.46
		c0,0.38-0.38,0.61-1.22,0.61c-4.18,0-8.96-0.23-9.35-0.23c-0.38,0-5.16,0.23-7.45,0.23c-0.83,0-1.21-0.16-1.21-0.61
		c0-0.23,0.15-0.46,0.61-0.46c0.68,0,1.58-0.15,2.27-0.3c1.52-0.3,1.9-1.98,2.21-4.19c0.37-3.18,0.37-9.18,0.37-16.48V353.4
		c0-11.86,0-13.99-0.15-16.42c-0.15-2.58-0.76-3.79-3.27-4.32c-0.61-0.15-1.91-0.23-2.58-0.23c-0.31,0-0.61-0.15-0.61-0.45
		c0-0.46,0.38-0.61,1.21-0.61c3.42,0,8.21,0.22,8.59,0.22c0.38,0,5.17-0.22,7.45-0.22c0.84,0,1.21,0.15,1.21,0.61
		c0,0.31-0.31,0.45-0.6,0.45c-0.54,0-1,0.08-1.91,0.23c-2.05,0.38-2.65,1.67-2.81,4.32c-0.15,2.43-0.15,4.56-0.15,16.42v1.59
		c0,0.39,0.22,0.47,0.45,0.47h32.23c0.24,0,0.46-0.08,0.46-0.47v-1.59c0-11.86,0-13.99-0.16-16.42c-0.14-2.58-0.75-3.79-3.26-4.32
		c-0.62-0.15-1.91-0.23-2.59-0.23c-0.3,0-0.61-0.15-0.61-0.45c0-0.46,0.39-0.61,1.23-0.61c3.41,0,8.21,0.22,8.58,0.22
		c0.37,0,5.17-0.22,7.44-0.22c0.84,0,1.22,0.15,1.22,0.61c0,0.31-0.31,0.45-0.62,0.45c-0.52,0-0.98,0.08-1.89,0.23
		c-2.05,0.38-2.66,1.67-2.81,4.32c-0.15,2.43-0.15,4.56-0.15,16.42V366.78L449.74,366.78L449.74,366.78z"/>
	<polygon class="st6" points="226.87,1.21 226.87,62.49 247.3,62.49 247.3,164.35 288.15,204.94 389.75,204.94 430.6,164.35 
		430.6,62.49 451.03,62.49 451.03,1.21 349.16,1.21 349.16,62.49 369.6,62.49 369.6,143.67 308.32,143.67 308.32,62.49 
		328.74,62.49 328.74,1.21 226.87,1.21 226.87,1.21 	"/>
	<g>
		<defs>
			<rect id="SVGID_7_" x="0" width="566.93" height="390.19"/>
		</defs>
		<clipPath id="SVGID_8_">
			<use xlink:href="#SVGID_7_"  style="overflow:visible;"/>
		</clipPath>
		<polygon class="st7" points="226.87,1.21 226.87,62.49 247.3,62.49 247.3,164.35 288.15,204.94 389.75,204.94 430.6,164.35 
			430.6,62.49 451.03,62.49 451.03,1.21 349.16,1.21 349.16,62.49 369.6,62.49 369.6,143.67 308.32,143.67 308.32,62.49 
			328.74,62.49 328.74,1.21 226.87,1.21 226.87,1.21 		"/>
	</g>
	<path class="st0" d="M420.17,199.04h1c1.14,0,2.1-0.41,2.1-1.48c0-0.76-0.55-1.52-2.1-1.52c-0.45,0-0.76,0.04-1,0.07V199.04
		L420.17,199.04z M420.17,203.83h-1.38v-8.65c0.73-0.1,1.42-0.21,2.45-0.21c1.31,0,2.17,0.28,2.69,0.66c0.52,0.38,0.8,0.96,0.8,1.79
		c0,1.14-0.75,1.83-1.69,2.1v0.07c0.76,0.14,1.27,0.83,1.45,2.1c0.2,1.35,0.42,1.87,0.55,2.14h-1.45c-0.21-0.27-0.41-1.07-0.59-2.2
		c-0.21-1.1-0.75-1.51-1.86-1.51h-0.96V203.83L420.17,203.83z M421.62,192.77c-3.41,0-6.21,2.93-6.21,6.55
		c0,3.69,2.79,6.58,6.24,6.58c3.45,0.03,6.21-2.89,6.21-6.55c0-3.66-2.76-6.58-6.21-6.58H421.62L421.62,192.77z M421.65,191.56
		c4.24,0,7.62,3.44,7.62,7.75c0,4.38-3.38,7.79-7.65,7.79c-4.24,0-7.69-3.41-7.69-7.79c0-4.31,3.44-7.75,7.69-7.75H421.65
		L421.65,191.56z"/>
</g>
</svg>
