<?xml version="1.0" encoding="utf-8"?>
<!-- Generator: Adobe Illustrator 23.0.1, SVG Export Plug-In . SVG Version: 6.00 Build 0)  -->
<svg version="1.1" id="ps_x5F_cc_x5F_app_x5F_RGB.svg"
	 xmlns="http://www.w3.org/2000/svg" xmlns:xlink="http://www.w3.org/1999/xlink" x="0px" y="0px" viewBox="0 0 496.06 496.06"
	 style="enable-background:new 0 0 496.06 496.06;" xml:space="preserve">
<style type="text/css">
	.st0{fill:#2E001E;}
	.st1{fill:#FF2BC2;}
</style>
<g>
	<path class="st0" d="M20.67,26.87h454.73v442.32H20.67V26.87z"/>
	<path class="st1" d="M0,6.2v483.66h496.06V6.2H0z M20.67,26.87h454.73v442.32H20.67V26.87z"/>
	<path class="st1" d="M360.27,209.38c-3.1-1.45-7.03-2.07-11.99-2.07c-26.04,0-43.41,20.05-43.41,53.33
		c0,38.03,17.77,53.33,40.93,53.33c4.96,0,10.33-0.62,14.26-2.27V209.38L360.27,209.38L360.27,209.38z M267.67,262.29
		c0-48.16,31-85.78,81.85-85.78c4.34,0,6.61,0,10.75,0.41v-53.74c0-1.24,1.03-2.07,2.07-2.07h33.28c1.65,0,2.07,0.62,2.07,1.65
		v188.92c0,5.58,0,12.61,1.03,20.26c0,1.45,0,1.65-1.24,2.27c-17.36,8.27-35.55,11.99-52.91,11.99
		C299.71,346.21,267.67,318.51,267.67,262.29L267.67,262.29z M197.19,228.81l57.87,112.23c1.03,1.65,0.41,3.31-1.24,3.31h-35.96
		c-2.27,0-3.31-0.62-4.34-2.69c-13.23-27.28-26.66-55.6-40.51-84.95h-0.41c-12.4,27.7-26.04,57.87-39.27,85.16
		c-1.03,1.65-2.07,2.27-3.72,2.27H95.29c-2.07,0-2.27-1.65-1.24-2.89l56.63-108.93L95.9,124.02c-1.24-1.65,0-3.1,1.45-3.1h35.55
		c2.07,0,3.1,0.41,3.72,2.27c13.02,27.49,26.25,54.57,38.65,82.26h0.41c11.99-27.28,25.22-54.77,37.83-81.85
		c1.03-1.65,1.65-2.69,3.72-2.69h33.28c1.65,0,2.27,1.24,1.24,3.1L197.19,228.81L197.19,228.81z"/>
</g>
</svg>
